<?xml version="1.0" encoding="UTF-8"?>
<svg xmlns="http://www.w3.org/2000/svg" xmlns:xlink="http://www.w3.org/1999/xlink" version="1.2" >
<font id="Gotham Light">
<font-face  font-family="Gotham" units-per-em="1000" ascent="799.805" descent="-199.951" font-style="normal" font-weight="300" font-stretch="normal" cap-height="750" x-height="500" underline-position="-123" underline-thickness="20" />
<missing-glyph  horiz-adv-x="500" d="" />
<glyph glyph-name="&amp;#x0;" d="" />
<glyph glyph-name="&amp;#x8;" unicode="&#x8;" d="" />
<glyph glyph-name="&amp;#x1d;" unicode="&#x1d;" d="" />
<glyph glyph-name="CR" unicode="&#xd;" horiz-adv-x="250" d="" />
<glyph glyph-name="space" unicode="&#x20;" horiz-adv-x="300" d="" />
<glyph glyph-name="exclam" unicode="&#x21;" horiz-adv-x="252" d="M97 700 L97 630 L112 183 L140 183 L155 630 L155 700 L97 700 Z M159 0 L159 85 L93 85 L93 0 L159 0 Z " />
<glyph glyph-name="quotedbl" unicode="&#x22;" horiz-adv-x="410" d="M248 446 L277 446 L348 695 L348 700 L283 700 L248 446 Z M68 446 L97 446 L168 695 L168 700 L103 700 L68 446 Z " />
<glyph glyph-name="numbersign" unicode="&#x23;" horiz-adv-x="700" d="M650 470 L650 517 L530 517 L561 700 L513 700 L482 517 L275 517 L306 700 L258 700 L227 517 L89 517 L89 470 L219 470 L178 234 L49 234 L49 187 L170 187 L138 0 L186 0 L218 187 L425 187 L393 0 L441 0 L473 187 L610 187 L610 234 L481 234 L522 470 L650 470 Z M474 470 L433 234 L226 234 L267 470 L474 470 Z " />
<glyph glyph-name="dollar" unicode="&#x24;" horiz-adv-x="632" d="M559 185 C559 283 495 340 343 372 L343 653 C401 646 453 623 505 577 L538 616 C479 664 422 692 345 698 L345 758 L297 758 L297 700 C175 697 87 620 87 519 C87 419 149 364 299 331 L299 47 C218 54 155 89 93 147 L60 108 C132 44 206 9 297 1 L297 -98 L345 -98 L345 0 C471 5 559 79 559 185 L559 185 Z M299 382 C169 414 138 456 138 523 C138 595 202 653 299 655 L299 382 Z M508 181 C508 105 443 48 343 45 L343 321 C475 291 508 250 508 181 L508 181 Z " />
<glyph glyph-name="percent" unicode="&#x25;" horiz-adv-x="824" d="M363 530 C363 624 302 708 210 708 C117 708 55 623 55 528 C55 434 116 350 208 350 C301 350 363 435 363 530 L363 530 Z M696 700 L642 700 L128 0 L182 0 L696 700 Z M769 172 C769 266 708 350 616 350 C523 350 461 265 461 170 C461 76 522 -8 614 -8 C707 -8 769 77 769 172 L769 172 Z M311 528 C311 452 269 393 210 393 C154 393 107 450 107 530 C107 606 149 665 208 665 C264 665 311 608 311 528 L311 528 Z M717 170 C717 94 675 35 616 35 C560 35 513 92 513 172 C513 248 555 307 614 307 C670 307 717 250 717 170 L717 170 Z " />
<glyph glyph-name="ampersand" unicode="&#x26;" horiz-adv-x="696" d="M663 20 L534 153 C572 204 606 267 638 339 L591 358 C564 294 534 236 500 188 L316 377 C423 414 488 470 488 559 C488 644 418 712 327 712 C225 712 152 643 152 552 C152 493 177 450 230 391 C116 349 49 280 49 185 C49 69 141 -10 264 -10 C358 -10 435 34 501 111 L622 -14 L663 20 Z M436 557 C436 489 385 441 285 409 C223 475 204 509 204 554 C204 618 254 668 325 668 C388 668 436 620 436 557 L436 557 Z M468 145 C410 77 343 35 265 35 C169 35 101 101 101 187 C101 256 150 321 261 359 L468 145 Z " />
<glyph glyph-name="quotesingle" unicode="&#x27;" horiz-adv-x="230" d="M68 446 L97 446 L168 695 L168 700 L103 700 L68 446 Z " />
<glyph glyph-name="parenleft" unicode="&#x28;" horiz-adv-x="430" d="M369 682 L348 715 C172 615 71 468 71 287 C71 106 172 -41 348 -141 L369 -108 C211 -11 123 120 123 287 C123 454 211 585 369 682 L369 682 Z " />
<glyph glyph-name="parenright" unicode="&#x29;" horiz-adv-x="430" d="M61 682 C219 585 307 454 307 287 C307 120 219 -11 61 -108 L82 -141 C258 -41 359 106 359 287 C359 468 258 615 82 715 L61 682 Z " />
<glyph glyph-name="asterisk" unicode="&#x2a;" horiz-adv-x="430" d="M355 498 L237 554 L355 610 L333 647 L227 575 L236 702 L194 702 L203 575 L97 647 L75 610 L193 554 L75 498 L97 461 L203 533 L194 406 L236 406 L227 533 L333 461 L355 498 Z " />
<glyph glyph-name="plus" unicode="&#x2b;" horiz-adv-x="640" d="M295 376 L78 376 L78 328 L295 328 L295 113 L345 113 L345 328 L562 328 L562 376 L345 376 L345 591 L295 591 L295 376 Z " />
<glyph glyph-name="comma" unicode="&#x2c;" horiz-adv-x="230" d="M53 -82 L65 -107 C125 -84 148 -51 148 11 L148 85 L82 85 L82 0 L109 0 C112 -38 96 -60 53 -82 L53 -82 Z " />
<glyph glyph-name="hyphen" unicode="&#x2d;" horiz-adv-x="408" d="M338 269 L338 325 L70 325 L70 269 L338 269 Z " />
<glyph glyph-name="period" unicode="&#x2e;" horiz-adv-x="230" d="M148 0 L148 85 L82 85 L82 0 L148 0 Z " />
<glyph glyph-name="slash" unicode="&#x2f;" horiz-adv-x="500" d="M454 798 L-18 -128 L31 -128 L503 798 L454 798 Z " />
<glyph glyph-name="zero" unicode="0" horiz-adv-x="710" d="M645 351 C645 545 534 712 356 712 C178 712 65 543 65 349 C65 155 176 -12 354 -12 C532 -12 645 157 645 351 L645 351 Z M591 349 C591 185 501 35 356 35 C211 35 119 187 119 351 C119 515 209 665 354 665 C499 665 591 513 591 349 L591 349 Z " />
<glyph glyph-name="one" unicode="1" horiz-adv-x="335" d="M30 646 L44 605 L179 651 L179 0 L230 0 L230 705 L190 705 L30 646 Z " />
<glyph glyph-name="two" unicode="2" horiz-adv-x="590" d="M306 664 C390 664 464 605 464 514 C464 440 424 380 309 275 L48 39 L48 0 L526 0 L526 50 L130 50 L344 244 C467 356 519 420 519 517 C519 627 430 710 311 710 C188 710 123 653 62 560 L101 534 C159 618 217 664 306 664 L306 664 Z " />
<glyph glyph-name="three" unicode="3" horiz-adv-x="610" d="M457 651 L216 373 L229 344 L267 344 C393 344 485 290 485 191 C485 98 406 35 312 35 C220 35 150 76 94 147 L54 114 C111 40 197 -12 311 -12 C432 -12 539 70 539 193 C539 322 424 384 291 392 L528 663 L528 700 L90 700 L90 651 L457 651 Z " />
<glyph glyph-name="four" unicode="4" horiz-adv-x="664" d="M448 705 L48 210 L66 171 L445 171 L445 0 L495 0 L495 171 L609 171 L609 216 L495 216 L495 705 L448 705 Z M445 216 L111 216 L445 630 L445 216 Z " />
<glyph glyph-name="five" unicode="5" horiz-adv-x="605" d="M102 361 L142 335 C186 359 235 379 300 379 C413 379 492 310 492 212 C492 113 415 35 304 35 C230 35 157 75 94 138 L57 101 C118 39 207 -12 302 -12 C443 -12 546 81 546 214 C546 340 441 426 306 426 C241 426 196 410 151 388 L168 650 L515 650 L515 700 L122 700 L102 361 Z " />
<glyph glyph-name="six" unicode="6" horiz-adv-x="642" d="M551 631 C490 681 429 712 349 712 C175 712 64 544 64 332 C64 186 95 116 153 58 C195 16 259 -12 331 -12 C469 -12 576 85 576 219 C576 345 464 432 335 432 C221 432 156 370 116 302 C111 516 203 665 345 665 C411 665 464 639 518 591 L551 631 Z M522 217 C522 117 448 35 335 35 C222 35 137 111 137 212 C137 299 217 386 332 386 C443 386 522 314 522 217 L522 217 Z " />
<glyph glyph-name="seven" unicode="7" horiz-adv-x="587" d="M68 650 L474 650 L156 0 L213 0 L532 662 L532 700 L68 700 L68 650 Z " />
<glyph glyph-name="eight" unicode="8" horiz-adv-x="630" d="M575 188 C575 271 508 333 420 362 C489 390 551 442 551 526 C551 636 436 710 315 710 C194 710 79 636 79 526 C79 442 141 390 210 362 C122 333 55 271 55 188 C55 71 168 -10 315 -10 C462 -10 575 71 575 188 L575 188 Z M497 526 C497 439 414 381 315 381 C216 381 133 439 133 526 C133 606 213 663 315 663 C417 663 497 606 497 526 L497 526 Z M521 186 C521 106 444 37 315 37 C186 37 109 106 109 186 C109 274 201 337 315 337 C429 337 521 274 521 186 L521 186 Z " />
<glyph glyph-name="nine" unicode="9" horiz-adv-x="642" d="M578 367 C578 508 546 585 490 641 C448 683 387 712 312 712 C166 712 66 606 66 476 C66 355 167 261 308 261 C418 261 486 324 526 396 C534 186 435 35 294 35 C230 35 174 62 115 115 L82 75 C140 26 206 -12 293 -12 C456 -12 578 146 578 367 L578 367 Z M505 486 C505 397 429 307 310 307 C199 307 120 379 120 478 C120 576 191 665 306 665 C422 665 505 586 505 486 L505 486 Z " />
<glyph glyph-name="colon" unicode="&#x3a;" horiz-adv-x="240" d="M153 425 L153 510 L87 510 L87 425 L153 425 Z M153 0 L153 85 L87 85 L87 0 L153 0 Z " />
<glyph glyph-name="semicolon" unicode="&#x3b;" horiz-adv-x="240" d="M153 425 L153 510 L87 510 L87 425 L153 425 Z M58 -82 L70 -107 C130 -84 153 -51 153 11 L153 85 L87 85 L87 0 L114 0 C117 -38 101 -60 58 -82 L58 -82 Z " />
<glyph glyph-name="less" unicode="&#x3c;" horiz-adv-x="640" d="M73 372 L73 332 L537 91 L537 145 L134 353 L537 559 L537 613 L73 372 Z " />
<glyph glyph-name="equal" unicode="&#x3d;" horiz-adv-x="640" d="M93 490 L93 439 L547 439 L547 490 L93 490 Z M93 265 L93 214 L547 214 L547 265 L93 265 Z " />
<glyph glyph-name="greater" unicode="&#x3e;" horiz-adv-x="640" d="M567 332 L567 372 L103 613 L103 559 L506 351 L103 145 L103 91 L567 332 Z " />
<glyph glyph-name="question" unicode="&#x3f;" horiz-adv-x="534" d="M221 350 L216 345 L229 183 L261 183 L270 308 C386 322 482 388 482 513 C482 621 397 709 265 709 C159 709 91 661 34 590 L70 560 C122 624 183 663 263 663 C365 663 429 594 429 511 C429 414 353 353 221 350 L221 350 Z M278 0 L278 85 L212 85 L212 0 L278 0 Z " />
<glyph glyph-name="at" unicode="&#x40;" horiz-adv-x="980" d="M927 316 C927 527 736 712 491 712 C246 712 53 513 53 274 C53 35 243 -162 499 -162 C603 -162 687 -134 764 -87 L749 -62 C672 -107 599 -130 499 -130 C258 -130 87 50 87 274 C87 497 260 680 491 680 C721 680 893 499 893 316 C893 171 819 109 749 109 C692 109 659 140 659 197 C659 209 662 234 668 269 L705 480 L657 486 L643 411 C620 455 575 500 494 500 C382 500 261 394 261 251 C261 145 341 73 438 73 C517 73 568 115 609 166 C626 109 675 73 745 73 C830 73 927 145 927 316 L927 316 Z M626 313 C626 215 540 120 446 120 C368 120 313 170 313 255 C313 367 403 452 494 452 C570 452 626 392 626 313 L626 313 Z " />
<glyph glyph-name="A" unicode="A" horiz-adv-x="790" d="M746 0 L420 705 L370 705 L44 0 L98 0 L187 196 L600 196 L689 0 L746 0 Z M578 243 L209 243 L394 648 L578 243 Z " />
<glyph glyph-name="B" unicode="B" horiz-adv-x="722" d="M659 191 L659 193 C659 290 585 338 501 360 C558 383 620 431 620 526 L620 528 C620 633 529 700 393 700 L104 700 L104 0 L408 0 C559 0 659 74 659 191 L659 191 Z M567 521 C567 428 492 377 387 377 L156 377 L156 652 L392 652 C504 652 567 600 567 523 L567 521 Z M606 191 C606 103 530 48 410 48 L156 48 L156 329 L393 329 C531 329 606 279 606 193 L606 191 Z " />
<glyph glyph-name="C" unicode="C" horiz-adv-x="738" d="M699 110 L664 144 C593 74 524 35 423 35 C256 35 127 173 127 350 L127 352 C127 528 254 665 422 665 C527 665 597 621 658 562 L695 600 C623 666 548 712 423 712 C221 712 73 548 73 350 L73 348 C73 147 221 -12 421 -12 C545 -12 625 37 699 110 L699 110 Z " />
<glyph glyph-name="D" unicode="D" horiz-adv-x="782" d="M709 350 L709 352 C709 549 557 700 337 700 L104 700 L104 0 L337 0 C557 0 709 153 709 350 L709 350 Z M655 348 C655 181 532 48 337 48 L156 48 L156 652 L337 652 C532 652 655 516 655 350 L655 348 Z " />
<glyph glyph-name="E" unicode="E" horiz-adv-x="670" d="M607 0 L607 48 L156 48 L156 329 L557 329 L557 377 L156 377 L156 652 L602 652 L602 700 L104 700 L104 0 L607 0 Z " />
<glyph glyph-name="F" unicode="F" horiz-adv-x="656" d="M597 652 L597 700 L104 700 L104 0 L156 0 L156 317 L552 317 L552 365 L156 365 L156 652 L597 652 Z " />
<glyph glyph-name="G" unicode="G" horiz-adv-x="784" d="M700 93 L700 363 L416 363 L416 315 L650 315 L650 114 C599 71 516 34 427 34 C240 34 127 169 127 350 L127 352 C127 521 246 665 416 665 C522 665 586 629 641 581 L675 620 C605 678 533 712 419 712 C210 712 73 539 73 350 L73 348 C73 151 204 -12 425 -12 C539 -12 637 37 700 93 L700 93 Z " />
<glyph glyph-name="H" unicode="H" horiz-adv-x="760" d="M656 0 L656 700 L604 700 L604 376 L156 376 L156 700 L104 700 L104 0 L156 0 L156 328 L604 328 L604 0 L656 0 Z " />
<glyph glyph-name="I" unicode="I" horiz-adv-x="274" d="M163 0 L163 700 L111 700 L111 0 L163 0 Z " />
<glyph glyph-name="J" unicode="J" horiz-adv-x="549" d="M456 228 L456 700 L404 700 L404 224 C404 102 338 37 252 37 C170 37 123 75 80 148 L37 121 C80 44 145 -10 249 -10 C365 -10 456 71 456 228 L456 228 Z " />
<glyph glyph-name="K" unicode="K" horiz-adv-x="715" d="M686 0 L367 391 L673 700 L602 700 L156 240 L156 700 L104 700 L104 0 L156 0 L156 178 L330 354 L618 0 L686 0 Z " />
<glyph glyph-name="L" unicode="L" horiz-adv-x="619" d="M567 0 L567 48 L156 48 L156 700 L104 700 L104 0 L567 0 Z " />
<glyph glyph-name="M" unicode="M" horiz-adv-x="868" d="M764 0 L764 700 L715 700 L434 286 L153 700 L104 700 L104 0 L154 0 L154 608 L431 205 L435 205 L712 608 L712 0 L764 0 Z " />
<glyph glyph-name="N" unicode="N" horiz-adv-x="790" d="M686 0 L686 700 L636 700 L636 91 L153 700 L104 700 L104 0 L154 0 L154 622 L647 0 L686 0 Z " />
<glyph glyph-name="O" unicode="O" horiz-adv-x="850" d="M777 350 C778 351 778 351 777 352 C777 543 638 712 426 712 C214 712 73 541 73 350 L73 348 C73 157 212 -12 424 -12 C636 -12 777 159 777 350 L777 350 Z M723 348 C723 175 599 35 426 35 C253 35 127 177 127 350 L127 352 C127 525 251 665 424 665 C597 665 723 523 723 350 L723 348 Z " />
<glyph glyph-name="P" unicode="P" horiz-adv-x="668" d="M618 484 L618 486 C618 621 512 700 358 700 L104 700 L104 0 L156 0 L156 261 L345 261 C491 261 618 337 618 484 L618 484 Z M566 481 C566 377 478 309 348 309 L156 309 L156 652 L354 652 C480 652 566 594 566 483 L566 481 Z " />
<glyph glyph-name="Q" unicode="Q" horiz-adv-x="850" d="M785 19 L685 103 C744 169 777 257 777 350 C778 351 778 351 777 352 C777 543 638 712 426 712 C214 712 73 541 73 350 L73 348 C73 157 212 -12 424 -12 C514 -12 591 18 650 68 L748 -21 L785 19 Z M723 348 C723 267 695 192 647 136 L513 258 L476 217 L612 101 C563 60 499 35 426 35 C253 35 127 177 127 350 L127 352 C127 525 251 665 424 665 C597 665 723 523 723 350 L723 348 Z " />
<glyph glyph-name="R" unicode="R" horiz-adv-x="723" d="M674 0 L443 299 C561 315 648 382 648 499 L648 501 C648 618 549 700 398 700 L104 700 L104 0 L156 0 L156 290 L385 290 L608 0 L674 0 Z M596 497 C596 396 509 337 392 337 L156 337 L156 652 L395 652 C522 652 596 593 596 499 L596 497 Z " />
<glyph glyph-name="S" unicode="S" horiz-adv-x="640" d="M573 181 L573 183 C573 285 505 343 343 376 C177 410 139 455 139 529 L139 531 C139 604 207 663 310 663 C387 663 453 641 519 584 L552 625 C481 682 414 710 312 710 C182 710 87 630 87 526 L87 524 C87 418 155 361 323 327 C482 295 521 252 521 178 L521 176 C521 96 449 37 344 37 C241 37 170 70 93 141 L59 102 C143 27 229 -10 341 -10 C476 -10 573 68 573 181 L573 181 Z " />
<glyph glyph-name="T" unicode="T" horiz-adv-x="648" d="M594 652 L594 700 L54 700 L54 652 L298 652 L298 0 L350 0 L350 652 L594 652 Z " />
<glyph glyph-name="U" unicode="U" horiz-adv-x="760" d="M667 297 L667 700 L615 700 L615 291 C615 122 524 36 382 36 C234 36 145 131 145 296 L145 700 L93 700 L93 291 C93 95 212 -11 380 -11 C550 -11 667 96 667 297 L667 297 Z " />
<glyph glyph-name="V" unicode="V" horiz-adv-x="750" d="M706 700 L651 700 L376 56 L102 700 L44 700 L352 -5 L398 -5 L706 700 Z " />
<glyph glyph-name="W" unicode="W" horiz-adv-x="1102" d="M1052 700 L998 700 L778 77 L573 702 L533 702 L328 77 L108 700 L50 700 L304 -5 L346 -5 L551 603 L756 -5 L798 -5 L1052 700 Z " />
<glyph glyph-name="X" unicode="X" horiz-adv-x="722" d="M671 0 L393 358 L661 700 L600 700 L362 392 L123 700 L61 700 L330 357 L51 0 L112 0 L360 323 L609 0 L671 0 Z " />
<glyph glyph-name="Y" unicode="Y" horiz-adv-x="716" d="M684 700 L622 700 L359 324 L97 700 L32 700 L332 277 L332 0 L384 0 L384 278 L684 700 Z " />
<glyph glyph-name="Z" unicode="Z" horiz-adv-x="688" d="M621 0 L621 47 L142 47 L621 671 L621 700 L85 700 L85 653 L547 653 L68 29 L68 0 L621 0 Z " />
<glyph glyph-name="bracketleft" unicode="&#x5b;" horiz-adv-x="430" d="M371 700 L98 700 L98 -130 L371 -130 L371 -92 L144 -92 L144 662 L371 662 L371 700 Z " />
<glyph glyph-name="backslash" unicode="&#x5c;" horiz-adv-x="500" d="M46 798 L-3 798 L469 -128 L518 -128 L46 798 Z " />
<glyph glyph-name="bracketright" unicode="&#x5d;" horiz-adv-x="430" d="M59 700 L59 662 L286 662 L286 -92 L59 -92 L59 -130 L332 -130 L332 700 L59 700 Z " />
<glyph glyph-name="asciicircum" unicode="&#x5e;" horiz-adv-x="500" d="M249 660 L377 493 L430 493 L272 703 L228 703 L70 493 L121 493 L249 660 Z " />
<glyph glyph-name="underscore" unicode="&#x5f;" horiz-adv-x="600" d="M-2 -116 L-2 -160 L602 -160 L602 -116 L-2 -116 Z " />
<glyph glyph-name="grave" unicode="&#x60;" horiz-adv-x="500" d="M264 595 L306 595 L218 728 L157 698 L264 595 Z " />
<glyph glyph-name="a" unicode="a" horiz-adv-x="574" d="M491 0 L491 318 C491 450 409 518 278 518 C208 518 153 500 97 474 L115 431 C162 455 213 472 275 472 C380 472 443 419 443 316 L443 294 C394 307 345 316 274 316 C142 316 51 256 51 150 L51 148 C51 42 153 -12 248 -12 C345 -12 408 36 443 85 L443 0 L491 0 Z M444 191 C444 98 355 34 251 34 C173 34 103 77 103 151 L103 153 C103 224 163 272 271 272 C344 272 401 260 444 249 L444 191 Z " />
<glyph glyph-name="b" unicode="b" horiz-adv-x="660" d="M600 255 L600 257 C600 423 475 522 352 522 C251 522 186 463 142 396 L142 730 L93 730 L93 0 L142 0 L142 110 C184 46 250 -12 352 -12 C475 -12 600 89 600 255 L600 255 Z M547 253 C547 116 458 35 347 35 C241 35 139 123 139 254 L139 256 C139 386 241 475 347 475 C454 475 547 389 547 255 L547 253 Z " />
<glyph glyph-name="c" unicode="c" horiz-adv-x="571" d="M526 89 L492 119 C449 71 393 34 321 34 C204 34 111 132 111 255 L111 257 C111 379 201 476 317 476 C393 476 443 437 487 392 L522 428 C474 478 414 522 318 522 C172 522 58 398 58 255 L58 253 C58 110 171 -12 318 -12 C412 -12 474 30 526 89 L526 89 Z " />
<glyph glyph-name="d" unicode="d" horiz-adv-x="660" d="M567 0 L567 730 L518 730 L518 400 C476 464 410 522 308 522 C185 522 60 421 60 255 L60 253 C60 87 185 -12 308 -12 C409 -12 474 47 518 114 L518 0 L567 0 Z M521 254 C521 124 419 35 313 35 C206 35 113 121 113 255 L113 257 C113 394 202 475 313 475 C419 475 521 387 521 256 L521 254 Z " />
<glyph glyph-name="e" unicode="e" horiz-adv-x="584" d="M110 235 L533 235 C534 243 534 246 534 253 L534 255 C534 406 443 522 300 522 C162 522 58 404 58 256 L58 254 C58 95 174 -12 308 -12 C406 -12 467 28 519 84 L485 114 C443 69 389 34 310 34 C210 34 119 108 110 235 L110 235 Z M110 279 C119 392 197 477 298 477 C415 477 474 382 481 279 L110 279 Z " />
<glyph glyph-name="f" unicode="f" horiz-adv-x="362" d="M351 675 L351 721 C328 729 306 733 275 733 C179 733 123 670 123 560 L123 510 L49 510 L49 465 L123 465 L123 0 L172 0 L172 465 L350 465 L350 510 L172 510 L172 559 C172 646 205 688 275 688 C301 688 322 684 351 675 L351 675 Z " />
<glyph glyph-name="g" unicode="g" horiz-adv-x="660" d="M567 79 L567 510 L518 510 L518 408 C476 468 407 522 305 522 C182 522 60 427 60 280 L60 278 C60 132 182 38 305 38 C406 38 474 93 518 156 L518 82 C518 -49 435 -116 318 -116 C243 -116 173 -91 112 -44 L83 -84 C153 -136 232 -162 317 -162 C462 -162 567 -76 567 79 L567 79 Z M521 279 C521 163 416 85 310 85 C205 85 113 165 113 280 L113 282 C113 401 203 475 310 475 C416 475 521 399 521 281 L521 279 Z " />
<glyph glyph-name="h" unicode="h" horiz-adv-x="613" d="M530 0 L530 312 C530 434 455 522 326 522 C233 522 176 475 142 415 L142 730 L93 730 L93 0 L142 0 L142 295 C142 401 219 477 319 477 C422 477 481 408 481 303 L481 0 L530 0 Z " />
<glyph glyph-name="i" unicode="i" horiz-adv-x="249" d="M155 643 L155 710 L94 710 L94 643 L155 643 Z M149 0 L149 510 L100 510 L100 0 L149 0 Z " />
<glyph glyph-name="j" unicode="j" horiz-adv-x="249" d="M155 643 L155 710 L94 710 L94 643 L155 643 Z M149 -45 L149 510 L100 510 L100 -48 C100 -96 75 -119 39 -119 C28 -119 11 -118 -1 -116 L-1 -159 C14 -162 26 -163 40 -163 C106 -163 149 -125 149 -45 L149 -45 Z " />
<glyph glyph-name="k" unicode="k" horiz-adv-x="560" d="M530 0 L300 284 L523 510 L458 510 L142 183 L142 730 L93 730 L93 0 L142 0 L142 124 L266 249 L468 0 L530 0 Z " />
<glyph glyph-name="l" unicode="l" horiz-adv-x="249" d="M149 0 L149 730 L100 730 L100 0 L149 0 Z " />
<glyph glyph-name="m" unicode="m" horiz-adv-x="951" d="M864 0 L864 309 C864 437 789 522 668 522 C572 522 517 469 484 412 C456 471 401 522 312 522 C221 522 175 472 142 419 L142 510 L93 510 L93 0 L142 0 L142 294 C142 397 214 477 305 477 C396 477 454 412 454 306 L454 0 L503 0 L503 297 C503 411 578 477 664 477 C758 477 815 413 815 303 L815 0 L864 0 Z " />
<glyph glyph-name="n" unicode="n" horiz-adv-x="613" d="M530 0 L530 312 C530 434 455 522 326 522 C233 522 176 475 142 415 L142 510 L93 510 L93 0 L142 0 L142 295 C142 401 219 477 319 477 C422 477 481 408 481 303 L481 0 L530 0 Z " />
<glyph glyph-name="o" unicode="o" horiz-adv-x="640" d="M582 255 L582 257 C582 400 472 522 321 522 C169 522 58 398 58 255 L58 253 C58 110 168 -12 319 -12 C471 -12 582 112 582 255 L582 255 Z M529 253 C529 133 442 34 321 34 C203 34 111 132 111 255 L111 257 C111 377 198 476 319 476 C437 476 529 378 529 255 L529 253 Z " />
<glyph glyph-name="p" unicode="p" horiz-adv-x="660" d="M600 255 L600 257 C600 423 475 522 352 522 C251 522 186 463 142 396 L142 510 L93 510 L93 -160 L142 -160 L142 110 C184 46 250 -12 352 -12 C475 -12 600 89 600 255 L600 255 Z M547 253 C547 116 458 35 347 35 C241 35 139 123 139 254 L139 256 C139 386 241 475 347 475 C454 475 547 389 547 255 L547 253 Z " />
<glyph glyph-name="q" unicode="q" horiz-adv-x="660" d="M567 -160 L567 510 L518 510 L518 400 C476 464 410 522 308 522 C185 522 60 421 60 255 L60 253 C60 87 185 -12 308 -12 C409 -12 474 47 518 114 L518 -160 L567 -160 Z M521 254 C521 124 419 35 313 35 C206 35 113 121 113 255 L113 257 C113 394 202 475 313 475 C419 475 521 387 521 256 L521 254 Z " />
<glyph glyph-name="r" unicode="r" horiz-adv-x="400" d="M368 464 L368 518 C267 522 182 456 142 365 L142 510 L93 510 L93 0 L142 0 L142 209 C142 375 245 464 363 464 L368 464 Z " />
<glyph glyph-name="s" unicode="s" horiz-adv-x="497" d="M434 139 L434 141 C434 231 348 261 266 284 C193 305 124 326 124 383 L124 385 C124 436 170 474 240 474 C294 474 350 454 397 423 L423 464 C372 498 303 520 242 520 C143 520 74 461 74 379 L74 377 C74 286 166 261 249 237 C320 217 384 195 384 135 L384 133 C384 74 330 36 261 36 C196 36 134 60 78 103 L49 64 C103 20 184 -10 258 -10 C356 -10 434 48 434 139 L434 139 Z " />
<glyph glyph-name="t" unicode="t" horiz-adv-x="400" d="M346 9 L346 55 C317 42 296 37 271 37 C212 37 169 63 169 136 L169 465 L348 465 L348 510 L169 510 L169 673 L120 673 L120 510 L46 510 L46 465 L120 465 L120 131 C120 34 184 -9 263 -9 C295 -9 320 -3 346 9 L346 9 Z " />
<glyph glyph-name="u" unicode="u" horiz-adv-x="613" d="M520 0 L520 510 L471 510 L471 215 C471 109 394 33 294 33 C191 33 132 102 132 207 L132 510 L83 510 L83 198 C83 76 158 -12 287 -12 C380 -12 437 35 471 95 L471 0 L520 0 Z " />
<glyph glyph-name="v" unicode="v" horiz-adv-x="582" d="M541 510 L486 510 L291 55 L98 510 L41 510 L270 -4 L312 -4 L541 510 Z " />
<glyph glyph-name="w" unicode="w" horiz-adv-x="861" d="M812 510 L759 510 L605 62 L451 512 L412 512 L258 62 L104 510 L49 510 L236 -4 L278 -4 L431 433 L583 -4 L625 -4 L812 510 Z " />
<glyph glyph-name="x" unicode="x" horiz-adv-x="570" d="M525 0 L316 261 L517 510 L458 510 L286 294 L114 510 L53 510 L254 260 L45 0 L104 0 L284 227 L464 0 L525 0 Z " />
<glyph glyph-name="y" unicode="y" horiz-adv-x="588" d="M546 510 L492 510 L308 54 L96 510 L39 510 L284 3 C246 -86 211 -117 158 -117 C120 -117 98 -111 71 -98 L54 -141 C88 -156 116 -163 155 -163 C228 -163 280 -125 325 -18 L546 510 Z " />
<glyph glyph-name="z" unicode="z" horiz-adv-x="554" d="M499 0 L499 44 L131 44 L499 482 L499 510 L72 510 L72 466 L426 466 L58 28 L58 0 L499 0 Z " />
<glyph glyph-name="braceleft" unicode="&#x7b;" horiz-adv-x="480" d="M423 683 L416 715 C237 681 205 616 205 512 C205 497 205 450 205 433 C205 355 179 306 85 306 L59 306 L59 268 L85 268 C179 268 205 219 205 141 C205 124 205 77 205 62 C205 -42 237 -107 416 -141 L423 -109 C270 -70 254 -33 254 68 C254 88 254 122 254 143 C254 232 217 265 150 287 C213 306 254 342 254 431 C254 452 254 486 254 506 C254 607 270 644 423 683 L423 683 Z " />
<glyph glyph-name="bar" unicode="&#x7c;" horiz-adv-x="286" d="M165 -128 L165 798 L121 798 L121 -128 L165 -128 Z " />
<glyph glyph-name="braceright" unicode="&#x7d;" horiz-adv-x="480" d="M57 -109 L64 -141 C243 -107 275 -42 275 62 C275 77 275 124 275 141 C275 219 301 268 395 268 L421 268 L421 306 L395 306 C301 306 275 355 275 433 C275 450 275 497 275 512 C275 616 243 681 64 715 L57 683 C210 644 226 607 226 506 C226 486 226 452 226 431 C226 342 263 309 330 287 C267 268 226 232 226 143 C226 122 226 88 226 68 C226 -33 210 -70 57 -109 L57 -109 Z " />
<glyph glyph-name="asciitilde" unicode="&#x7e;" horiz-adv-x="460" d="M378 344 L344 353 C329 315 318 303 294 303 C260 303 204 344 166 344 C126 344 101 323 82 251 L116 242 C131 280 142 292 166 292 C200 292 256 251 294 251 C334 251 359 272 378 344 L378 344 Z " />
<glyph glyph-name="nbspace" unicode="&#xa0;" horiz-adv-x="300" d="" />
<glyph glyph-name="exclamdown" unicode="&#xa1;" horiz-adv-x="252" d="M93 700 L93 615 L159 615 L159 700 L93 700 Z M155 0 L155 70 L140 517 L112 517 L97 70 L97 0 L155 0 Z " />
<glyph glyph-name="cent" unicode="&#xa2;" horiz-adv-x="581" d="M530 189 L496 219 C453 171 397 134 325 134 C313 134 301 135 290 137 L373 570 C422 557 457 526 491 492 L526 528 C489 567 447 602 385 615 L403 706 L353 706 L337 622 C332 622 327 622 322 622 C176 622 62 498 62 354 C62 240 133 139 236 103 L214 -6 L264 -6 L283 91 C296 89 309 88 322 88 C416 88 478 130 530 189 L530 189 Z M330 576 L248 149 C170 182 115 261 115 356 C115 479 205 576 321 576 C324 576 327 576 330 576 L330 576 Z " />
<glyph glyph-name="sterling" unicode="&#xa3;" horiz-adv-x="644" d="M156 353 L70 353 L70 305 L156 305 L156 45 L70 25 L70 0 L581 0 L581 47 L207 47 L207 305 L505 305 L505 353 L207 353 L207 472 C207 589 265 663 370 663 C454 663 500 624 541 573 L581 604 C535 664 475 710 371 710 C236 710 156 611 156 471 L156 353 Z " />
<glyph glyph-name="currency" unicode="&#xa4;" horiz-adv-x="720" d="M144 416 C141 394 139 372 139 349 C139 330 140 311 142 293 L59 293 L59 245 L149 245 C183 92 290 -12 428 -12 C539 -12 609 54 663 137 L625 162 C576 86 518 34 431 34 C319 34 233 120 202 245 L488 245 L488 293 L193 293 C191 312 190 331 190 351 C190 373 192 395 195 416 L488 416 L488 464 L204 464 C237 582 318 666 419 666 C514 666 567 623 621 545 L661 572 C608 652 538 712 421 712 C292 712 189 607 153 464 L59 464 L59 416 L144 416 Z " />
<glyph glyph-name="yen" unicode="&#xa5;" horiz-adv-x="686" d="M368 268 L581 268 L581 313 L385 313 L654 700 L594 700 L344 327 L95 700 L32 700 L300 313 L105 313 L105 268 L318 268 L318 170 L105 170 L105 125 L318 125 L318 0 L368 0 L368 125 L581 125 L581 170 L368 170 L368 268 Z " />
<glyph glyph-name="section" unicode="&#xa7;" horiz-adv-x="632" d="M567 336 C567 402 514 440 365 476 C228 509 182 539 182 583 C182 627 219 661 298 661 C378 661 446 626 492 579 L530 615 C475 671 392 710 303 710 C197 710 127 660 127 584 C127 537 161 501 213 478 C123 467 65 424 65 364 C65 298 118 260 267 224 C404 191 450 161 450 117 C450 73 413 39 334 39 C254 39 186 74 140 121 L102 85 C157 29 240 -10 329 -10 C435 -10 505 40 505 116 C505 163 471 199 419 222 C509 233 567 276 567 336 L567 336 Z M515 332 C515 291 464 253 386 253 C358 253 322 257 274 269 C149 300 117 331 117 368 C117 409 168 447 246 447 C274 447 309 443 358 431 C483 400 515 369 515 332 L515 332 Z " />
<glyph glyph-name="dieresis" unicode="&#xa8;" horiz-adv-x="500" d="M366 595 L366 675 L297 675 L297 595 L366 595 Z M203 595 L203 675 L134 675 L134 595 L203 595 Z " />
<glyph glyph-name="copyright" unicode="&#xa9;" horiz-adv-x="830" d="M777 351 C777 549 619 712 416 712 C213 712 53 547 53 349 C53 151 211 -12 414 -12 C617 -12 777 153 777 351 L777 351 Z M747 351 C747 167 604 16 414 16 C225 16 83 165 83 349 C83 533 226 684 416 684 C605 684 747 535 747 351 L747 351 Z M563 230 L535 258 C500 225 469 206 420 206 C343 206 281 274 281 356 C281 438 338 505 419 505 C466 505 502 481 531 453 L561 484 C524 519 485 545 420 545 C315 545 237 458 237 355 C237 251 316 166 419 166 C484 166 524 192 563 230 L563 230 Z " />
<glyph glyph-name="ordfeminine" unicode="&#xaa;" horiz-adv-x="390" d="M309 417 L309 591 C309 665 264 703 191 703 C152 703 122 693 88 677 L101 643 C131 657 157 667 189 667 C240 667 272 641 272 590 L272 585 C249 591 225 596 189 596 C115 596 65 562 65 502 C65 441 121 411 174 411 C216 411 250 429 272 458 L272 417 L309 417 Z M314 293 L314 333 L62 333 L62 293 L314 293 Z M272 524 C272 478 227 447 176 447 C138 447 105 467 105 504 C105 538 134 562 187 562 C224 562 249 558 272 551 L272 524 Z " />
<glyph glyph-name="guillemotleft" unicode="&#xab;" horiz-adv-x="515" d="M415 468 L255 259 L255 251 L415 42 L452 66 L315 256 L452 444 L415 468 Z M211 468 L51 259 L51 251 L211 42 L248 66 L111 256 L248 444 L211 468 Z " />
<glyph glyph-name="registered" unicode="&#xae;" horiz-adv-x="830" d="M777 351 C777 549 619 712 416 712 C213 712 53 547 53 349 C53 151 211 -12 414 -12 C617 -12 777 153 777 351 L777 351 Z M747 351 C747 167 604 16 414 16 C225 16 83 165 83 349 C83 533 226 684 416 684 C605 684 747 535 747 351 L747 351 Z M575 437 C575 502 518 543 440 543 L276 543 L276 177 L319 177 L319 324 L425 324 L541 177 L597 177 L475 331 C534 342 575 377 575 437 L575 437 Z M530 435 C530 388 488 364 433 364 L319 364 L319 502 L438 502 C495 502 530 477 530 435 L530 435 Z " />
<glyph glyph-name="macron" unicode="&#xaf;" horiz-adv-x="500" d="M400 600 L400 653 L100 653 L100 600 L400 600 Z " />
<glyph glyph-name="degree" unicode="&#xb0;" horiz-adv-x="450" d="M376 559 C376 638 304 706 225 706 C146 706 74 638 74 559 C74 480 146 412 225 412 C304 412 376 480 376 559 L376 559 Z M326 559 C326 505 283 456 225 456 C167 456 124 505 124 559 C124 613 167 662 225 662 C283 662 326 613 326 559 L326 559 Z " />
<glyph glyph-name="plusminus" unicode="&#xb1;" horiz-adv-x="600" d="M537 185 C537 278 471 333 385 358 C450 380 518 428 518 525 C518 632 425 712 298 712 C191 712 114 660 61 582 L101 558 C151 627 211 665 296 665 C397 665 464 605 464 523 C464 430 383 376 277 376 L206 376 L206 330 L276 330 C407 330 483 275 483 184 C483 94 407 35 305 35 C211 35 139 79 87 148 L45 117 C100 43 191 -12 303 -12 C440 -12 537 76 537 185 L537 185 Z " />
<glyph glyph-name="acute" unicode="&#xb4;" horiz-adv-x="500" d="M236 595 L343 698 L282 728 L194 595 L236 595 Z " />
<glyph glyph-name="mu" unicode="&#xb5;" horiz-adv-x="850" d="M777 351 C777 543 638 712 426 712 C214 712 73 541 73 349 C73 157 212 -12 424 -12 C488 -12 545 3 595 30 L737 -101 L812 -101 L812 -97 L642 63 C727 131 777 237 777 351 L777 351 Z M723 349 C723 175 599 35 426 35 C253 35 127 177 127 351 C127 525 251 665 424 665 C597 665 723 523 723 349 L723 349 Z " />
<glyph glyph-name="paragraph" unicode="&#xb6;" horiz-adv-x="480" d="M312 700 C160 700 53 621 53 489 C53 353 173 277 327 277 L333 277 L333 0 L386 0 L386 700 L312 700 Z " />
<glyph glyph-name="periodcentered" unicode="&#xb7;" horiz-adv-x="230" d="M148 255 L148 340 L82 340 L82 255 L148 255 Z " />
<glyph glyph-name="cedilla" unicode="&#xb8;" horiz-adv-x="500" d="M252 10 L162 -122 L217 -148 L295 10 L252 10 Z " />
<glyph glyph-name="ordmasculine" unicode="&#xba;" horiz-adv-x="390" d="M339 559 C339 638 279 705 196 705 C112 705 51 637 51 557 C51 478 111 411 194 411 C278 411 339 479 339 559 L339 559 Z M339 293 L339 333 L51 333 L51 293 L339 293 Z M296 557 C296 498 255 450 196 450 C138 450 94 498 94 559 C94 618 135 666 194 666 C252 666 296 618 296 557 L296 557 Z " />
<glyph glyph-name="guillemotright" unicode="&#xbb;" horiz-adv-x="515" d="M304 42 L464 251 L464 259 L304 468 L267 444 L404 254 L267 66 L304 42 Z M100 42 L260 251 L260 259 L100 468 L63 444 L200 254 L63 66 L100 42 Z " />
<glyph glyph-name="questiondown" unicode="&#xbf;" horiz-adv-x="534" d="M256 700 L256 615 L322 615 L322 700 L256 700 Z M313 350 L318 355 L305 517 L273 517 L264 392 C148 378 52 312 52 187 C52 79 137 -9 269 -9 C375 -9 443 39 500 110 L464 140 C412 76 351 37 271 37 C169 37 105 106 105 189 C105 286 181 347 313 350 L313 350 Z " />
<glyph glyph-name="Agrave" unicode="&#xc0;" horiz-adv-x="790" d="M746 0 L420 705 L370 705 L44 0 L98 0 L187 196 L600 196 L689 0 L746 0 Z M578 243 L209 243 L394 648 L578 243 Z M370 765 L412 765 L324 898 L263 868 L370 765 Z " />
<glyph glyph-name="Aacute" unicode="&#xc1;" horiz-adv-x="790" d="M746 0 L420 705 L370 705 L44 0 L98 0 L187 196 L600 196 L689 0 L746 0 Z M578 243 L209 243 L394 648 L578 243 Z M420 765 L527 868 L466 898 L378 765 L420 765 Z " />
<glyph glyph-name="Acircumflex" unicode="&#xc2;" horiz-adv-x="790" d="M746 0 L420 705 L370 705 L44 0 L98 0 L187 196 L600 196 L689 0 L746 0 Z M578 243 L209 243 L394 648 L578 243 Z M394 828 L468 760 L515 760 L415 882 L375 882 L275 760 L320 760 L394 828 Z " />
<glyph glyph-name="Atilde" unicode="&#xc3;" horiz-adv-x="790" d="M746 0 L420 705 L370 705 L44 0 L98 0 L187 196 L600 196 L689 0 L746 0 Z M578 243 L209 243 L394 648 L578 243 Z M543 858 L509 867 C494 829 483 817 459 817 C425 817 369 858 331 858 C291 858 266 837 247 765 L281 756 C296 794 307 806 331 806 C365 806 421 765 459 765 C499 765 524 786 543 858 L543 858 Z " />
<glyph glyph-name="Adieresis" unicode="&#xc4;" horiz-adv-x="790" d="M746 0 L420 705 L370 705 L44 0 L98 0 L187 196 L600 196 L689 0 L746 0 Z M578 243 L209 243 L394 648 L578 243 Z M511 765 L511 845 L442 845 L442 765 L511 765 Z M348 765 L348 845 L279 845 L279 765 L348 765 Z " />
<glyph glyph-name="Aring" unicode="&#xc5;" horiz-adv-x="790" d="M357 678 L44 0 L98 0 L187 196 L600 196 L689 0 L746 0 L433 678 C467 692 493 725 493 764 C493 816 447 858 395 858 C343 858 297 816 297 764 C297 725 323 692 357 678 L357 678 Z M457 764 C457 730 429 702 395 702 C361 702 333 730 333 764 C333 798 361 826 395 826 C429 826 457 798 457 764 L457 764 Z M578 243 L209 243 L394 648 L578 243 Z " />
<glyph glyph-name="AE" unicode="&#xc6;" horiz-adv-x="1045" d="M194 196 L494 196 L494 0 L982 0 L982 48 L546 48 L546 329 L932 329 L932 377 L546 377 L546 652 L977 652 L977 700 L444 700 L20 0 L76 0 L194 196 Z M468 653 L494 653 L494 243 L222 243 L468 653 Z " />
<glyph glyph-name="Ccedilla" unicode="&#xc7;" horiz-adv-x="738" d="M388 -11 L312 -122 L367 -148 L434 -12 C551 -8 628 40 699 110 L664 144 C593 74 524 35 423 35 C256 35 127 173 127 351 C127 529 254 665 422 665 C527 665 597 621 658 562 L695 600 C623 666 548 712 423 712 C221 712 73 549 73 349 C73 158 205 6 388 -11 L388 -11 Z " />
<glyph glyph-name="Egrave" unicode="&#xc8;" horiz-adv-x="670" d="M607 0 L607 48 L156 48 L156 329 L557 329 L557 377 L156 377 L156 652 L602 652 L602 700 L104 700 L104 0 L607 0 Z M349 765 L391 765 L303 898 L242 868 L349 765 Z " />
<glyph glyph-name="Eacute" unicode="&#xc9;" horiz-adv-x="670" d="M607 0 L607 48 L156 48 L156 329 L557 329 L557 377 L156 377 L156 652 L602 652 L602 700 L104 700 L104 0 L607 0 Z M351 765 L458 868 L397 898 L309 765 L351 765 Z " />
<glyph glyph-name="Ecircumflex" unicode="&#xca;" horiz-adv-x="670" d="M607 0 L607 48 L156 48 L156 329 L557 329 L557 377 L156 377 L156 652 L602 652 L602 700 L104 700 L104 0 L607 0 Z M348 833 L422 765 L469 765 L369 887 L329 887 L229 765 L274 765 L348 833 Z " />
<glyph glyph-name="Edieresis" unicode="&#xcb;" horiz-adv-x="670" d="M607 0 L607 48 L156 48 L156 329 L557 329 L557 377 L156 377 L156 652 L602 652 L602 700 L104 700 L104 0 L607 0 Z M465 765 L465 845 L396 845 L396 765 L465 765 Z M302 765 L302 845 L233 845 L233 765 L302 765 Z " />
<glyph glyph-name="Igrave" unicode="&#xcc;" horiz-adv-x="274" d="M163 0 L163 700 L111 700 L111 0 L163 0 Z M114 765 L156 765 L68 898 L7 868 L114 765 Z " />
<glyph glyph-name="Iacute" unicode="&#xcd;" horiz-adv-x="274" d="M163 0 L163 700 L111 700 L111 0 L163 0 Z M160 765 L267 868 L206 898 L118 765 L160 765 Z " />
<glyph glyph-name="Icircumflex" unicode="&#xce;" horiz-adv-x="274" d="M163 0 L163 700 L111 700 L111 0 L163 0 Z M137 833 L211 765 L258 765 L158 887 L118 887 L18 765 L63 765 L137 833 Z " />
<glyph glyph-name="Idieresis" unicode="&#xcf;" horiz-adv-x="274" d="M163 0 L163 700 L111 700 L111 0 L163 0 Z M254 765 L254 845 L185 845 L185 765 L254 765 Z M91 765 L91 845 L22 845 L22 765 L91 765 Z " />
<glyph glyph-name="Eth" unicode="&#xd0;" horiz-adv-x="812" d="M134 328 L134 0 L367 0 C587 0 739 153 739 351 C739 549 587 700 367 700 L134 700 L134 376 L59 376 L59 328 L134 328 Z M186 376 L186 652 L367 652 C562 652 685 517 685 349 C685 181 562 48 367 48 L186 48 L186 328 L418 328 L418 376 L186 376 Z " />
<glyph glyph-name="Ntilde" unicode="&#xd1;" horiz-adv-x="790" d="M686 0 L686 700 L636 700 L636 91 L153 700 L104 700 L104 0 L154 0 L154 622 L647 0 L686 0 Z M543 858 L509 867 C494 829 483 817 459 817 C425 817 369 858 331 858 C291 858 266 837 247 765 L281 756 C296 794 307 806 331 806 C365 806 421 765 459 765 C499 765 524 786 543 858 L543 858 Z " />
<glyph glyph-name="Ograve" unicode="&#xd2;" horiz-adv-x="850" d="M777 350 C778 351 778 351 777 352 C777 543 638 712 426 712 C214 712 73 541 73 350 L73 348 C73 157 212 -12 424 -12 C636 -12 777 159 777 350 L777 350 Z M723 348 C723 175 599 35 426 35 C253 35 127 177 127 350 L127 352 C127 525 251 665 424 665 C597 665 723 523 723 350 L723 348 Z M399 765 L441 765 L353 898 L292 868 L399 765 Z " />
<glyph glyph-name="Oacute" unicode="&#xd3;" horiz-adv-x="850" d="M777 350 C778 351 778 351 777 352 C777 543 638 712 426 712 C214 712 73 541 73 350 L73 348 C73 157 212 -12 424 -12 C636 -12 777 159 777 350 L777 350 Z M723 348 C723 175 599 35 426 35 C253 35 127 177 127 350 L127 352 C127 525 251 665 424 665 C597 665 723 523 723 350 L723 348 Z M451 765 L558 868 L497 898 L409 765 L451 765 Z " />
<glyph glyph-name="Ocircumflex" unicode="&#xd4;" horiz-adv-x="850" d="M777 350 C778 351 778 351 777 352 C777 543 638 712 426 712 C214 712 73 541 73 350 L73 348 C73 157 212 -12 424 -12 C636 -12 777 159 777 350 L777 350 Z M723 348 C723 175 599 35 426 35 C253 35 127 177 127 350 L127 352 C127 525 251 665 424 665 C597 665 723 523 723 350 L723 348 Z M424 833 L498 765 L545 765 L445 887 L405 887 L305 765 L350 765 L424 833 Z " />
<glyph glyph-name="Otilde" unicode="&#xd5;" horiz-adv-x="850" d="M777 350 C778 351 778 351 777 352 C777 543 638 712 426 712 C214 712 73 541 73 350 L73 348 C73 157 212 -12 424 -12 C636 -12 777 159 777 350 L777 350 Z M723 348 C723 175 599 35 426 35 C253 35 127 177 127 350 L127 352 C127 525 251 665 424 665 C597 665 723 523 723 350 L723 348 Z M573 858 L539 867 C524 829 513 817 489 817 C455 817 399 858 361 858 C321 858 296 837 277 765 L311 756 C326 794 337 806 361 806 C395 806 451 765 489 765 C529 765 554 786 573 858 L573 858 Z " />
<glyph glyph-name="Odieresis" unicode="&#xd6;" horiz-adv-x="850" d="M777 350 C778 351 778 351 777 352 C777 543 638 712 426 712 C214 712 73 541 73 350 L73 348 C73 157 212 -12 424 -12 C636 -12 777 159 777 350 L777 350 Z M723 348 C723 175 599 35 426 35 C253 35 127 177 127 350 L127 352 C127 525 251 665 424 665 C597 665 723 523 723 350 L723 348 Z M541 765 L541 845 L472 845 L472 765 L541 765 Z M378 765 L378 845 L309 845 L309 765 L378 765 Z " />
<glyph glyph-name="Oslash" unicode="&#xd8;" horiz-adv-x="850" d="M777 351 C777 444 744 533 685 598 L785 705 L725 705 L654 629 C595 681 517 712 426 712 C214 712 73 541 73 349 C73 256 106 167 165 101 L65 -5 L125 -5 L196 71 C255 19 333 -12 424 -12 C636 -12 777 159 777 351 L777 351 Z M621 591 L200 139 C153 196 126 270 126 351 C126 526 250 666 424 666 C502 666 570 637 621 591 L621 591 Z M724 349 C724 174 600 34 426 34 C348 34 280 63 229 109 L650 561 C697 504 724 430 724 349 L724 349 Z " />
<glyph glyph-name="Ugrave" unicode="&#xd9;" horiz-adv-x="760" d="M667 297 L667 700 L615 700 L615 291 C615 122 524 36 382 36 C234 36 145 131 145 296 L145 700 L93 700 L93 291 C93 95 212 -11 380 -11 C550 -11 667 96 667 297 L667 297 Z M363 760 L405 760 L317 893 L256 863 L363 760 Z " />
<glyph glyph-name="Uacute" unicode="&#xda;" horiz-adv-x="760" d="M667 297 L667 700 L615 700 L615 291 C615 122 524 36 382 36 C234 36 145 131 145 296 L145 700 L93 700 L93 291 C93 95 212 -11 380 -11 C550 -11 667 96 667 297 L667 297 Z M397 760 L504 863 L443 893 L355 760 L397 760 Z " />
<glyph glyph-name="Ucircumflex" unicode="&#xdb;" horiz-adv-x="760" d="M667 297 L667 700 L615 700 L615 291 C615 122 524 36 382 36 C234 36 145 131 145 296 L145 700 L93 700 L93 291 C93 95 212 -11 380 -11 C550 -11 667 96 667 297 L667 297 Z M379 828 L453 760 L500 760 L400 882 L360 882 L260 760 L305 760 L379 828 Z " />
<glyph glyph-name="Udieresis" unicode="&#xdc;" horiz-adv-x="760" d="M667 297 L667 700 L615 700 L615 291 C615 122 524 36 382 36 C234 36 145 131 145 296 L145 700 L93 700 L93 291 C93 95 212 -11 380 -11 C550 -11 667 96 667 297 L667 297 Z M496 760 L496 840 L427 840 L427 760 L496 760 Z M333 760 L333 840 L264 840 L264 760 L333 760 Z " />
<glyph glyph-name="Yacute" unicode="&#xdd;" horiz-adv-x="716" d="M684 700 L622 700 L359 324 L97 700 L32 700 L332 277 L332 0 L384 0 L384 278 L684 700 Z M382 760 L489 863 L428 893 L340 760 L382 760 Z " />
<glyph glyph-name="Thorn" unicode="&#xde;" horiz-adv-x="673" d="M618 358 C618 494 512 573 358 573 L156 573 L156 700 L104 700 L104 0 L156 0 L156 133 L345 133 C491 133 618 210 618 358 L618 358 Z M566 355 C566 250 478 181 348 181 L156 181 L156 525 L354 525 C480 525 566 467 566 355 L566 355 Z " />
<glyph glyph-name="germandbls" unicode="&#xdf;" horiz-adv-x="620" d="M512 561 C512 660 433 737 313 737 C178 737 93 639 93 500 L93 0 L142 0 L142 500 C142 617 213 691 310 691 C398 691 459 636 459 559 C459 467 387 413 289 383 L289 342 C421 328 504 279 504 188 C504 93 421 44 289 41 L289 -2 C454 -2 557 69 557 190 C557 299 460 352 355 370 C433 398 512 462 512 561 L512 561 Z " />
<glyph glyph-name="agrave" unicode="&#xe0;" horiz-adv-x="574" d="M491 0 L491 318 C491 450 409 518 278 518 C208 518 153 500 97 474 L115 431 C162 455 213 472 275 472 C380 472 443 419 443 316 L443 294 C394 307 345 316 274 316 C142 316 51 256 51 150 L51 148 C51 42 153 -12 248 -12 C345 -12 408 36 443 85 L443 0 L491 0 Z M444 191 C444 98 355 34 251 34 C173 34 103 77 103 151 L103 153 C103 224 163 272 271 272 C344 272 401 260 444 249 L444 191 Z M264 595 L306 595 L218 728 L157 698 L264 595 Z " />
<glyph glyph-name="aacute" unicode="&#xe1;" horiz-adv-x="574" d="M491 0 L491 318 C491 450 409 518 278 518 C208 518 153 500 97 474 L115 431 C162 455 213 472 275 472 C380 472 443 419 443 316 L443 294 C394 307 345 316 274 316 C142 316 51 256 51 150 L51 148 C51 42 153 -12 248 -12 C345 -12 408 36 443 85 L443 0 L491 0 Z M444 191 C444 98 355 34 251 34 C173 34 103 77 103 151 L103 153 C103 224 163 272 271 272 C344 272 401 260 444 249 L444 191 Z M298 595 L405 698 L344 728 L256 595 L298 595 Z " />
<glyph glyph-name="acircumflex" unicode="&#xe2;" horiz-adv-x="574" d="M491 0 L491 318 C491 450 409 518 278 518 C208 518 153 500 97 474 L115 431 C162 455 213 472 275 472 C380 472 443 419 443 316 L443 294 C394 307 345 316 274 316 C142 316 51 256 51 150 L51 148 C51 42 153 -12 248 -12 C345 -12 408 36 443 85 L443 0 L491 0 Z M444 191 C444 98 355 34 251 34 C173 34 103 77 103 151 L103 153 C103 224 163 272 271 272 C344 272 401 260 444 249 L444 191 Z M289 663 L363 595 L410 595 L310 717 L270 717 L170 595 L215 595 L289 663 Z " />
<glyph glyph-name="atilde" unicode="&#xe3;" horiz-adv-x="574" d="M491 0 L491 318 C491 450 409 518 278 518 C208 518 153 500 97 474 L115 431 C162 455 213 472 275 472 C380 472 443 419 443 316 L443 294 C394 307 345 316 274 316 C142 316 51 256 51 150 L51 148 C51 42 153 -12 248 -12 C345 -12 408 36 443 85 L443 0 L491 0 Z M444 191 C444 98 355 34 251 34 C173 34 103 77 103 151 L103 153 C103 224 163 272 271 272 C344 272 401 260 444 249 L444 191 Z M438 688 L404 697 C389 659 378 647 354 647 C320 647 264 688 226 688 C186 688 161 667 142 595 L176 586 C191 624 202 636 226 636 C260 636 316 595 354 595 C394 595 419 616 438 688 L438 688 Z " />
<glyph glyph-name="adieresis" unicode="&#xe4;" horiz-adv-x="574" d="M491 0 L491 318 C491 450 409 518 278 518 C208 518 153 500 97 474 L115 431 C162 455 213 472 275 472 C380 472 443 419 443 316 L443 294 C394 307 345 316 274 316 C142 316 51 256 51 150 L51 148 C51 42 153 -12 248 -12 C345 -12 408 36 443 85 L443 0 L491 0 Z M444 191 C444 98 355 34 251 34 C173 34 103 77 103 151 L103 153 C103 224 163 272 271 272 C344 272 401 260 444 249 L444 191 Z M406 595 L406 675 L337 675 L337 595 L406 595 Z M243 595 L243 675 L174 675 L174 595 L243 595 Z " />
<glyph glyph-name="aring" unicode="&#xe5;" horiz-adv-x="574" d="M491 0 L491 318 C491 450 409 518 278 518 C208 518 153 500 97 474 L115 431 C162 455 213 472 275 472 C380 472 443 419 443 316 L443 294 C394 307 345 316 274 316 C142 316 51 256 51 150 L51 148 C51 42 153 -12 248 -12 C345 -12 408 36 443 85 L443 0 L491 0 Z M444 191 C444 98 355 34 251 34 C173 34 103 77 103 151 L103 153 C103 224 163 272 271 272 C344 272 401 260 444 249 L444 191 Z M388 687 C388 739 342 781 290 781 C238 781 192 739 192 687 C192 635 238 593 290 593 C342 593 388 635 388 687 L388 687 Z M352 687 C352 653 324 625 290 625 C256 625 228 653 228 687 C228 721 256 749 290 749 C324 749 352 721 352 687 L352 687 Z " />
<glyph glyph-name="ae" unicode="&#xe6;" horiz-adv-x="954" d="M472 100 C517 30 594 -12 678 -12 C776 -12 837 28 889 84 L855 114 C813 69 759 34 680 34 C581 34 489 108 480 235 L903 235 C904 243 904 249 904 254 C904 406 813 522 670 522 C580 522 504 469 464 390 C441 475 372 518 271 518 C203 518 154 501 97 474 L115 431 C162 455 208 472 268 472 C370 472 429 419 429 316 L429 294 C380 307 335 316 269 316 C141 316 51 256 51 149 C51 42 149 -12 243 -12 C344 -12 419 39 472 100 L472 100 Z M480 279 C489 392 567 477 668 477 C785 477 844 382 851 279 L480 279 Z M428 250 C429 210 437 174 450 141 C401 80 333 34 246 34 C168 34 103 77 103 152 C103 224 161 272 266 272 C331 272 385 260 428 250 L428 250 Z " />
<glyph glyph-name="ccedilla" unicode="&#xe7;" horiz-adv-x="571" d="M284 -10 L208 -122 L263 -148 L330 -12 C417 -8 476 33 526 89 L492 119 C449 71 393 34 321 34 C204 34 111 132 111 256 C111 379 201 476 317 476 C393 476 443 437 487 392 L522 428 C474 478 414 522 318 522 C172 522 58 398 58 254 C58 121 154 7 284 -10 L284 -10 Z " />
<glyph glyph-name="egrave" unicode="&#xe8;" horiz-adv-x="584" d="M110 235 L533 235 C534 243 534 246 534 253 L534 255 C534 406 443 522 300 522 C162 522 58 404 58 256 L58 254 C58 95 174 -12 308 -12 C406 -12 467 28 519 84 L485 114 C443 69 389 34 310 34 C210 34 119 108 110 235 L110 235 Z M110 279 C119 392 197 477 298 477 C415 477 474 382 481 279 L110 279 Z M286 595 L328 595 L240 728 L179 698 L286 595 Z " />
<glyph glyph-name="eacute" unicode="&#xe9;" horiz-adv-x="584" d="M110 235 L533 235 C534 243 534 246 534 253 L534 255 C534 406 443 522 300 522 C162 522 58 404 58 256 L58 254 C58 95 174 -12 308 -12 C406 -12 467 28 519 84 L485 114 C443 69 389 34 310 34 C210 34 119 108 110 235 L110 235 Z M110 279 C119 392 197 477 298 477 C415 477 474 382 481 279 L110 279 Z M299 595 L406 698 L345 728 L257 595 L299 595 Z " />
<glyph glyph-name="ecircumflex" unicode="&#xea;" horiz-adv-x="584" d="M110 235 L533 235 C534 243 534 246 534 253 L534 255 C534 406 443 522 300 522 C162 522 58 404 58 256 L58 254 C58 95 174 -12 308 -12 C406 -12 467 28 519 84 L485 114 C443 69 389 34 310 34 C210 34 119 108 110 235 L110 235 Z M110 279 C119 392 197 477 298 477 C415 477 474 382 481 279 L110 279 Z M296 663 L370 595 L417 595 L317 717 L277 717 L177 595 L222 595 L296 663 Z " />
<glyph glyph-name="edieresis" unicode="&#xeb;" horiz-adv-x="584" d="M110 235 L533 235 C534 243 534 246 534 253 L534 255 C534 406 443 522 300 522 C162 522 58 404 58 256 L58 254 C58 95 174 -12 308 -12 C406 -12 467 28 519 84 L485 114 C443 69 389 34 310 34 C210 34 119 108 110 235 L110 235 Z M110 279 C119 392 197 477 298 477 C415 477 474 382 481 279 L110 279 Z M413 595 L413 675 L344 675 L344 595 L413 595 Z M250 595 L250 675 L181 675 L181 595 L250 595 Z " />
<glyph glyph-name="igrave" unicode="&#xec;" horiz-adv-x="249" d="M149 0 L149 510 L100 510 L100 0 L149 0 Z M102 595 L144 595 L56 728 L-5 698 L102 595 Z " />
<glyph glyph-name="iacute" unicode="&#xed;" horiz-adv-x="249" d="M149 0 L149 510 L100 510 L100 0 L149 0 Z M147 595 L254 698 L193 728 L105 595 L147 595 Z " />
<glyph glyph-name="icircumflex" unicode="&#xee;" horiz-adv-x="249" d="M149 0 L149 510 L100 510 L100 0 L149 0 Z M123 663 L197 595 L244 595 L144 717 L104 717 L4 595 L49 595 L123 663 Z " />
<glyph glyph-name="idieresis" unicode="&#xef;" horiz-adv-x="249" d="M149 0 L149 510 L100 510 L100 0 L149 0 Z M240 595 L240 675 L171 675 L171 595 L240 595 Z M77 595 L77 675 L8 675 L8 595 L77 595 Z " />
<glyph glyph-name="eth" unicode="&#xf0;" horiz-adv-x="628" d="M328 631 L475 423 C431 457 379 486 298 486 C172 486 58 389 58 244 C58 106 165 -12 309 -12 C466 -12 568 110 568 248 C568 345 533 414 481 492 L372 653 L474 703 L446 739 L348 689 L321 730 L258 730 L303 666 L166 599 L195 563 L328 631 Z M515 243 C515 132 434 34 314 34 C196 34 111 134 111 241 C111 354 185 442 304 442 C423 442 515 352 515 243 L515 243 Z " />
<glyph glyph-name="ntilde" unicode="&#xf1;" horiz-adv-x="613" d="M530 0 L530 312 C530 434 455 522 326 522 C233 522 176 475 142 415 L142 510 L93 510 L93 0 L142 0 L142 295 C142 401 219 477 319 477 C422 477 481 408 481 303 L481 0 L530 0 Z M459 688 L425 697 C410 659 399 647 375 647 C341 647 285 688 247 688 C207 688 182 667 163 595 L197 586 C212 624 223 636 247 636 C281 636 337 595 375 595 C415 595 440 616 459 688 L459 688 Z " />
<glyph glyph-name="ograve" unicode="&#xf2;" horiz-adv-x="640" d="M582 255 L582 257 C582 400 472 522 321 522 C169 522 58 398 58 255 L58 253 C58 110 168 -12 319 -12 C471 -12 582 112 582 255 L582 255 Z M529 253 C529 133 442 34 321 34 C203 34 111 132 111 255 L111 257 C111 377 198 476 319 476 C437 476 529 378 529 255 L529 253 Z M298 595 L340 595 L252 728 L191 698 L298 595 Z " />
<glyph glyph-name="oacute" unicode="&#xf3;" horiz-adv-x="640" d="M582 255 L582 257 C582 400 472 522 321 522 C169 522 58 398 58 255 L58 253 C58 110 168 -12 319 -12 C471 -12 582 112 582 255 L582 255 Z M529 253 C529 133 442 34 321 34 C203 34 111 132 111 255 L111 257 C111 377 198 476 319 476 C437 476 529 378 529 255 L529 253 Z M342 595 L449 698 L388 728 L300 595 L342 595 Z " />
<glyph glyph-name="ocircumflex" unicode="&#xf4;" horiz-adv-x="640" d="M582 255 L582 257 C582 400 472 522 321 522 C169 522 58 398 58 255 L58 253 C58 110 168 -12 319 -12 C471 -12 582 112 582 255 L582 255 Z M529 253 C529 133 442 34 321 34 C203 34 111 132 111 255 L111 257 C111 377 198 476 319 476 C437 476 529 378 529 255 L529 253 Z M319 663 L393 595 L440 595 L340 717 L300 717 L200 595 L245 595 L319 663 Z " />
<glyph glyph-name="otilde" unicode="&#xf5;" horiz-adv-x="640" d="M582 255 L582 257 C582 400 472 522 321 522 C169 522 58 398 58 255 L58 253 C58 110 168 -12 319 -12 C471 -12 582 112 582 255 L582 255 Z M529 253 C529 133 442 34 321 34 C203 34 111 132 111 255 L111 257 C111 377 198 476 319 476 C437 476 529 378 529 255 L529 253 Z M468 688 L434 697 C419 659 408 647 384 647 C350 647 294 688 256 688 C216 688 191 667 172 595 L206 586 C221 624 232 636 256 636 C290 636 346 595 384 595 C424 595 449 616 468 688 L468 688 Z " />
<glyph glyph-name="odieresis" unicode="&#xf6;" horiz-adv-x="640" d="M582 255 L582 257 C582 400 472 522 321 522 C169 522 58 398 58 255 L58 253 C58 110 168 -12 319 -12 C471 -12 582 112 582 255 L582 255 Z M529 253 C529 133 442 34 321 34 C203 34 111 132 111 255 L111 257 C111 377 198 476 319 476 C437 476 529 378 529 255 L529 253 Z M436 595 L436 675 L367 675 L367 595 L436 595 Z M273 595 L273 675 L204 675 L204 595 L273 595 Z " />
<glyph glyph-name="oslash" unicode="&#xf8;" horiz-adv-x="640" d="M582 256 C582 324 558 386 517 433 L597 517 L540 517 L488 461 C444 499 386 522 321 522 C169 522 58 398 58 254 C58 187 82 125 122 77 L43 -5 L100 -5 L152 48 C196 11 254 -12 319 -12 C471 -12 582 112 582 256 L582 256 Z M457 424 L157 113 C127 152 110 201 110 256 C110 380 197 477 319 477 C373 477 420 457 457 424 L457 424 Z M530 254 C530 130 443 33 321 33 C268 33 220 52 183 85 L482 397 C512 359 530 309 530 254 L530 254 Z " />
<glyph glyph-name="ugrave" unicode="&#xf9;" horiz-adv-x="613" d="M520 0 L520 510 L471 510 L471 215 C471 109 394 33 294 33 C191 33 132 102 132 207 L132 510 L83 510 L83 198 C83 76 158 -12 287 -12 C380 -12 437 35 471 95 L471 0 L520 0 Z M289 590 L331 590 L243 723 L182 693 L289 590 Z " />
<glyph glyph-name="uacute" unicode="&#xfa;" horiz-adv-x="613" d="M520 0 L520 510 L471 510 L471 215 C471 109 394 33 294 33 C191 33 132 102 132 207 L132 510 L83 510 L83 198 C83 76 158 -12 287 -12 C380 -12 437 35 471 95 L471 0 L520 0 Z M319 590 L426 693 L365 723 L277 590 L319 590 Z " />
<glyph glyph-name="ucircumflex" unicode="&#xfb;" horiz-adv-x="613" d="M520 0 L520 510 L471 510 L471 215 C471 109 394 33 294 33 C191 33 132 102 132 207 L132 510 L83 510 L83 198 C83 76 158 -12 287 -12 C380 -12 437 35 471 95 L471 0 L520 0 Z M307 663 L381 595 L428 595 L328 717 L288 717 L188 595 L233 595 L307 663 Z " />
<glyph glyph-name="udieresis" unicode="&#xfc;" horiz-adv-x="613" d="M520 0 L520 510 L471 510 L471 215 C471 109 394 33 294 33 C191 33 132 102 132 207 L132 510 L83 510 L83 198 C83 76 158 -12 287 -12 C380 -12 437 35 471 95 L471 0 L520 0 Z M424 595 L424 675 L355 675 L355 595 L424 595 Z M261 595 L261 675 L192 675 L192 595 L261 595 Z " />
<glyph glyph-name="yacute" unicode="&#xfd;" horiz-adv-x="588" d="M546 510 L492 510 L308 54 L96 510 L39 510 L284 3 C246 -86 211 -117 158 -117 C120 -117 98 -111 71 -98 L54 -141 C88 -156 116 -163 155 -163 C228 -163 280 -125 325 -18 L546 510 Z M323 590 L430 693 L369 723 L281 590 L323 590 Z " />
<glyph glyph-name="thorn" unicode="&#xfe;" horiz-adv-x="660" d="M600 256 C600 423 475 522 352 522 C251 522 186 463 142 396 L142 730 L93 730 L93 -160 L142 -160 L142 110 C184 46 250 -12 352 -12 C475 -12 600 89 600 256 L600 256 Z M547 254 C547 116 458 35 347 35 C241 35 139 123 139 255 C139 386 241 475 347 475 C454 475 547 389 547 254 L547 254 Z " />
<glyph glyph-name="ydieresis" unicode="&#xff;" horiz-adv-x="588" d="M546 510 L492 510 L308 54 L96 510 L39 510 L284 3 C246 -86 211 -117 158 -117 C120 -117 98 -111 71 -98 L54 -141 C88 -156 116 -163 155 -163 C228 -163 280 -125 325 -18 L546 510 Z M410 595 L410 675 L341 675 L341 595 L410 595 Z M247 595 L247 675 L178 675 L178 595 L247 595 Z " />
<glyph glyph-name="dotlessi" unicode="&#x131;" horiz-adv-x="249" d="M149 0 L149 510 L100 510 L100 0 L149 0 Z " />
<glyph glyph-name="Lslash" unicode="&#x141;" horiz-adv-x="649" d="M597 0 L597 48 L185 48 L185 332 L410 401 L410 449 L185 380 L185 700 L134 700 L134 364 L59 341 L59 293 L134 316 L134 0 L597 0 Z " />
<glyph glyph-name="lslash" unicode="&#x142;" horiz-adv-x="309" d="M179 350 L255 374 L255 424 L179 400 L179 730 L130 730 L130 385 L54 362 L54 312 L130 336 L130 0 L179 0 L179 350 Z " />
<glyph glyph-name="OE" unicode="&#x152;" horiz-adv-x="1152" d="M1089 0 L1089 48 L653 48 L653 329 L1039 329 L1039 377 L653 377 L653 652 L1084 652 L1084 700 L445 700 C225 700 73 547 73 349 C73 151 225 0 445 0 L1089 0 Z M601 48 L445 48 C250 48 127 183 127 351 C127 519 250 652 445 652 L601 652 L601 48 Z " />
<glyph glyph-name="oe" unicode="&#x153;" horiz-adv-x="1055" d="M554 145 C593 48 682 -12 781 -12 C877 -12 938 28 990 84 L956 114 C914 69 860 34 781 34 C682 34 590 108 581 235 L1004 235 C1005 243 1005 249 1005 254 C1005 406 914 522 772 522 C672 522 591 459 554 366 C515 457 428 522 320 522 C170 522 58 398 58 254 C58 110 169 -12 318 -12 C427 -12 515 54 554 145 L554 145 Z M581 279 C590 392 668 477 769 477 C886 477 945 382 952 279 L581 279 Z M529 254 C529 131 442 34 321 34 C203 34 111 132 111 256 C111 379 198 476 319 476 C437 476 529 378 529 254 L529 254 Z " />
<glyph glyph-name="Scaron" unicode="&#x160;" horiz-adv-x="640" d="M573 181 L573 183 C573 285 505 343 343 376 C177 410 139 455 139 529 L139 531 C139 604 207 663 310 663 C387 663 453 641 519 584 L552 625 C481 682 414 710 312 710 C182 710 87 630 87 526 L87 524 C87 418 155 361 323 327 C482 295 521 252 521 178 L521 176 C521 96 449 37 344 37 C241 37 170 70 93 141 L59 102 C143 27 229 -10 341 -10 C476 -10 573 68 573 181 L573 181 Z M328 819 L254 887 L207 887 L307 765 L347 765 L447 887 L402 887 L328 819 Z " />
<glyph glyph-name="scaron" unicode="&#x161;" horiz-adv-x="497" d="M434 139 L434 141 C434 231 348 261 266 284 C193 305 124 326 124 383 L124 385 C124 436 170 474 240 474 C294 474 350 454 397 423 L423 464 C372 498 303 520 242 520 C143 520 74 461 74 379 L74 377 C74 286 166 261 249 237 C320 217 384 195 384 135 L384 133 C384 74 330 36 261 36 C196 36 134 60 78 103 L49 64 C103 20 184 -10 258 -10 C356 -10 434 48 434 139 L434 139 Z M252 649 L178 717 L131 717 L231 595 L271 595 L371 717 L326 717 L252 649 Z " />
<glyph glyph-name="Ydieresis" unicode="&#x178;" horiz-adv-x="716" d="M684 700 L622 700 L359 324 L97 700 L32 700 L332 277 L332 0 L384 0 L384 278 L684 700 Z M474 760 L474 840 L405 840 L405 760 L474 760 Z M311 760 L311 840 L242 840 L242 760 L311 760 Z " />
<glyph glyph-name="Zcaron" unicode="&#x17d;" horiz-adv-x="688" d="M621 0 L621 47 L142 47 L621 671 L621 700 L85 700 L85 653 L547 653 L68 29 L68 0 L621 0 Z M350 819 L276 887 L229 887 L329 765 L369 765 L469 887 L424 887 L350 819 Z " />
<glyph glyph-name="zcaron" unicode="&#x17e;" horiz-adv-x="554" d="M499 0 L499 44 L131 44 L499 482 L499 510 L72 510 L72 466 L426 466 L58 28 L58 0 L499 0 Z M287 649 L213 717 L166 717 L266 595 L306 595 L406 717 L361 717 L287 649 Z " />
<glyph glyph-name="florin" unicode="&#x192;" horiz-adv-x="506" d="M470 651 L470 695 C446 702 427 705 395 705 C315 705 271 664 252 565 L226 429 L109 429 L109 384 L218 384 L169 121 C159 65 130 39 87 39 C68 39 56 40 41 43 L41 -1 C54 -3 69 -5 90 -5 C165 -5 206 35 222 118 L272 384 L435 384 L435 429 L280 429 L305 562 C318 633 345 661 400 661 C421 661 446 657 470 651 L470 651 Z " />
<glyph glyph-name="circumflex" unicode="&#x2c6;" horiz-adv-x="500" d="M249 663 L323 595 L370 595 L270 717 L230 717 L130 595 L175 595 L249 663 Z " />
<glyph glyph-name="caron" unicode="&#x2c7;" horiz-adv-x="500" d="M251 649 L177 717 L130 717 L230 595 L270 595 L370 717 L325 717 L251 649 Z " />
<glyph glyph-name="breve" unicode="&#x2d8;" horiz-adv-x="500" d="M383 717 L344 717 C332 672 302 644 250 644 C198 644 168 672 156 717 L117 717 C122 639 176 593 250 593 C324 593 378 639 383 717 L383 717 Z " />
<glyph glyph-name="dotaccent" unicode="&#x2d9;" horiz-adv-x="500" d="M286 595 L286 676 L214 676 L214 595 L286 595 Z " />
<glyph glyph-name="ring" unicode="&#x2da;" horiz-adv-x="500" d="M348 687 C348 739 302 781 250 781 C198 781 152 739 152 687 C152 635 198 593 250 593 C302 593 348 635 348 687 L348 687 Z M312 687 C312 653 284 625 250 625 C216 625 188 653 188 687 C188 721 216 749 250 749 C284 749 312 721 312 687 L312 687 Z " />
<glyph glyph-name="ogonek" unicode="&#x2db;" horiz-adv-x="500" d="M244 10 L201 10 C193 -9 187 -32 187 -57 C187 -120 242 -168 356 -164 L356 -133 C276 -129 238 -100 238 -46 C238 -28 240 -8 244 10 L244 10 Z " />
<glyph glyph-name="tilde" unicode="&#x2dc;" horiz-adv-x="500" d="M398 688 L364 697 C349 659 338 647 314 647 C280 647 224 688 186 688 C146 688 121 667 102 595 L136 586 C151 624 162 636 186 636 C220 636 276 595 314 595 C354 595 379 616 398 688 L398 688 Z " />
<glyph glyph-name="hungarumlaut" unicode="&#x2dd;" horiz-adv-x="500" d="M297 595 L398 699 L343 728 L254 595 L297 595 Z M145 595 L246 699 L191 728 L102 595 L145 595 Z " />
<glyph glyph-name="pi" unicode="&#x3c0;" horiz-adv-x="830" d="M777 351 C777 549 619 712 416 712 C213 712 53 547 53 349 C53 151 211 -12 414 -12 C617 -12 777 153 777 351 L777 351 Z M747 351 C747 167 604 16 414 16 C225 16 83 165 83 349 C83 533 226 684 416 684 C605 684 747 535 747 351 L747 351 Z M580 425 C580 500 523 541 437 541 L296 541 L296 175 L340 175 L340 303 L430 303 C509 303 580 342 580 425 L580 425 Z M535 423 C535 372 494 344 431 344 L340 344 L340 500 L434 500 C496 500 535 476 535 423 L535 423 Z " />
<glyph glyph-name="endash" unicode="&#x2013;" horiz-adv-x="528" d="M458 271 L458 323 L70 323 L70 271 L458 271 Z " />
<glyph glyph-name="emdash" unicode="&#x2014;" horiz-adv-x="898" d="M828 271 L828 323 L70 323 L70 271 L828 271 Z " />
<glyph glyph-name="quoteleft" unicode="&#x2018;" horiz-adv-x="230" d="M172 680 L160 705 C100 682 77 649 77 587 L77 513 L143 513 L143 598 L116 598 C113 636 129 658 172 680 L172 680 Z " />
<glyph glyph-name="quoteright" unicode="&#x2019;" horiz-adv-x="230" d="M58 533 L70 508 C130 531 153 564 153 626 L153 700 L87 700 L87 615 L114 615 C117 577 101 555 58 533 L58 533 Z " />
<glyph glyph-name="quotesinglbase" unicode="&#x201a;" horiz-adv-x="230" d="M53 -82 L65 -107 C125 -84 148 -51 148 11 L148 85 L82 85 L82 0 L109 0 C112 -38 96 -60 53 -82 L53 -82 Z " />
<glyph glyph-name="quotedblleft" unicode="&#x201c;" horiz-adv-x="410" d="M352 680 L340 705 C280 682 257 649 257 587 L257 513 L323 513 L323 598 L296 598 C293 636 309 658 352 680 L352 680 Z M172 680 L160 705 C100 682 77 649 77 587 L77 513 L143 513 L143 598 L116 598 C113 636 129 658 172 680 L172 680 Z " />
<glyph glyph-name="quotedblright" unicode="&#x201d;" horiz-adv-x="410" d="M238 533 L250 508 C310 531 333 564 333 626 L333 700 L267 700 L267 615 L294 615 C297 577 281 555 238 533 L238 533 Z M58 533 L70 508 C130 531 153 564 153 626 L153 700 L87 700 L87 615 L114 615 C117 577 101 555 58 533 L58 533 Z " />
<glyph glyph-name="quotedblbase" unicode="&#x201e;" horiz-adv-x="410" d="M233 -82 L245 -107 C305 -84 328 -51 328 11 L328 85 L262 85 L262 0 L289 0 C292 -38 276 -60 233 -82 L233 -82 Z M53 -82 L65 -107 C125 -84 148 -51 148 11 L148 85 L82 85 L82 0 L109 0 C112 -38 96 -60 53 -82 L53 -82 Z " />
<glyph glyph-name="dagger" unicode="&#x2020;" horiz-adv-x="410" d="M222 524 L347 517 L347 562 L223 555 L230 700 L180 700 L187 555 L63 562 L63 517 L188 524 L183 238 L227 238 L222 524 Z " />
<glyph glyph-name="daggerdbl" unicode="&#x2021;" horiz-adv-x="430" d="M357 138 L357 183 L232 176 L237 350 L232 524 L357 517 L357 562 L233 555 L240 700 L190 700 L197 555 L73 562 L73 517 L198 524 L193 350 L198 176 L73 183 L73 138 L197 145 L190 0 L240 0 L233 145 L357 138 Z " />
<glyph glyph-name="bullet" unicode="&#x2022;" horiz-adv-x="470" d="M359 352 C359 420 303 476 235 476 C167 476 111 420 111 352 C111 284 167 228 235 228 C303 228 359 284 359 352 L359 352 Z " />
<glyph glyph-name="ellipsis" unicode="&#x2026;" horiz-adv-x="680" d="M598 0 L598 83 L534 83 L534 0 L598 0 Z M372 0 L372 83 L308 83 L308 0 L372 0 Z M146 0 L146 83 L82 83 L82 0 L146 0 Z " />
<glyph glyph-name="perthousand" unicode="&#x2030;" horiz-adv-x="1200" d="M363 530 C363 624 302 708 210 708 C117 708 55 623 55 528 C55 434 116 350 208 350 C301 350 363 435 363 530 L363 530 Z M642 700 L128 0 L182 0 L696 700 L642 700 Z M1145 172 C1145 266 1084 350 992 350 C899 350 837 265 837 170 C837 76 898 -8 990 -8 C1083 -8 1145 77 1145 172 L1145 172 Z M769 172 C769 266 708 350 616 350 C523 350 461 265 461 170 C461 76 522 -8 614 -8 C707 -8 769 77 769 172 L769 172 Z M311 528 C311 452 269 393 210 393 C154 393 107 450 107 530 C107 606 149 665 208 665 C264 665 311 608 311 528 L311 528 Z M1093 170 C1093 94 1051 35 992 35 C936 35 889 92 889 172 C889 248 931 307 990 307 C1046 307 1093 250 1093 170 L1093 170 Z M717 170 C717 94 675 35 616 35 C560 35 513 92 513 172 C513 248 555 307 614 307 C670 307 717 250 717 170 L717 170 Z " />
<glyph glyph-name="guilsinglleft" unicode="&#x2039;" horiz-adv-x="311" d="M211 468 L51 259 L51 251 L211 42 L248 66 L111 256 L248 444 L211 468 Z " />
<glyph glyph-name="guilsinglright" unicode="&#x203a;" horiz-adv-x="311" d="M100 42 L260 251 L260 259 L100 468 L63 444 L200 254 L63 66 L100 42 Z " />
<glyph glyph-name="fraction" unicode="&#x2044;" horiz-adv-x="410" d="M401 758 L-67 -98 L-13 -98 L455 758 L401 758 Z " />
<glyph glyph-name="trademark" unicode="&#x2122;" horiz-adv-x="690" d="M611 638 L611 392 L646 392 L646 700 L610 700 L490 517 L370 700 L333 700 L333 392 L368 392 L368 638 L487 460 L492 460 L611 638 Z M162 666 L263 666 L263 700 L26 700 L26 666 L127 666 L127 392 L162 392 L162 666 Z " />
<glyph glyph-name="Omega" unicode="&#x2126;" horiz-adv-x="724" d="M534 510 L534 559 C534 646 567 688 637 688 C663 688 684 684 713 675 L713 721 C690 729 668 733 637 733 C541 733 485 670 485 560 L485 510 L411 510 L411 465 L485 465 L485 0 L534 0 L534 465 L712 465 L712 510 L534 510 Z M172 510 L172 559 C172 646 205 688 275 688 C301 688 322 684 351 675 L351 721 C328 729 306 733 275 733 C179 733 123 670 123 560 L123 510 L49 510 L49 465 L123 465 L123 0 L172 0 L172 465 L350 465 L350 510 L172 510 Z " />
<glyph glyph-name="radical" unicode="&#x221a;" horiz-adv-x="973" d="M534 510 L534 559 C534 646 567 688 637 688 C663 688 684 684 713 675 L713 721 C690 729 668 733 637 733 C541 733 485 670 485 560 L485 510 L411 510 L411 465 L485 465 L485 0 L534 0 L534 465 L712 465 L712 510 L534 510 Z M172 510 L172 559 C172 646 205 688 275 688 C301 688 322 684 351 675 L351 721 C328 729 306 733 275 733 C179 733 123 670 123 560 L123 510 L49 510 L49 465 L123 465 L123 0 L172 0 L172 465 L350 465 L350 510 L172 510 Z M873 0 L873 730 L824 730 L824 0 L873 0 Z " />
<glyph glyph-name="approxequal" unicode="&#x2248;" horiz-adv-x="973" d="M879 643 L879 710 L818 710 L818 643 L879 643 Z M534 510 L534 559 C534 646 567 688 637 688 C663 688 684 684 713 675 L713 721 C690 729 668 733 637 733 C541 733 485 670 485 560 L485 510 L411 510 L411 465 L485 465 L485 0 L534 0 L534 465 L712 465 L712 510 L534 510 Z M172 510 L172 559 C172 646 205 688 275 688 C301 688 322 684 351 675 L351 721 C328 729 306 733 275 733 C179 733 123 670 123 560 L123 510 L49 510 L49 465 L123 465 L123 0 L172 0 L172 465 L350 465 L350 510 L172 510 Z M873 0 L873 510 L824 510 L824 0 L873 0 Z " />
<glyph glyph-name="fi" unicode="&#xfb01;" horiz-adv-x="611" d="M517 643 L517 710 L456 710 L456 643 L517 643 Z M172 510 L172 559 C172 646 205 688 275 688 C301 688 322 684 351 675 L351 721 C328 729 306 733 275 733 C179 733 123 670 123 560 L123 510 L49 510 L49 465 L123 465 L123 0 L172 0 L172 465 L350 465 L350 510 L172 510 Z M511 0 L511 510 L462 510 L462 0 L511 0 Z " />
<glyph glyph-name="fl" unicode="&#xfb02;" horiz-adv-x="611" d="M172 510 L172 559 C172 646 205 688 275 688 C301 688 322 684 351 675 L351 721 C328 729 306 733 275 733 C179 733 123 670 123 560 L123 510 L49 510 L49 465 L123 465 L123 0 L172 0 L172 465 L350 465 L350 510 L172 510 Z M511 0 L511 730 L462 730 L462 0 L511 0 Z " />
</font>
</svg>
