<?xml version="1.0" encoding="UTF-8"?>
<svg xmlns="http://www.w3.org/2000/svg" xmlns:xlink="http://www.w3.org/1999/xlink" version="1.2" >
<font id="Gotham Medium">
<font-face  font-family="Gotham" units-per-em="1000" ascent="799.805" descent="-199.951" font-style="normal" font-weight="500" font-stretch="normal" cap-height="750" x-height="500" underline-position="-123" underline-thickness="20" />
<missing-glyph  horiz-adv-x="500" d="" />
<glyph glyph-name="&amp;#x0;" d="" />
<glyph glyph-name="&amp;#x8;" unicode="&#x8;" d="" />
<glyph glyph-name="&amp;#x1d;" unicode="&#x1d;" d="" />
<glyph glyph-name="CR" unicode="&#xd;" horiz-adv-x="250" d="" />
<glyph glyph-name="space" unicode="&#x20;" horiz-adv-x="300" d="" />
<glyph glyph-name="exclam" unicode="&#x21;" horiz-adv-x="302" d="M80 700 L80 665 L118 221 L185 221 L222 665 L222 700 L80 700 Z M218 0 L218 137 L85 137 L85 0 L218 0 Z " />
<glyph glyph-name="quotedbl" unicode="&#x22;" horiz-adv-x="487" d="M279 401 L342 401 L440 695 L440 700 L303 700 L279 401 Z M60 401 L123 401 L220 695 L220 700 L83 700 L60 401 Z " />
<glyph glyph-name="numbersign" unicode="&#x23;" horiz-adv-x="700" d="M660 439 L660 543 L571 543 L598 700 L491 700 L465 543 L301 543 L328 700 L221 700 L194 543 L76 543 L76 439 L176 439 L147 265 L39 265 L39 161 L129 161 L101 0 L208 0 L235 161 L399 161 L371 0 L478 0 L506 161 L624 161 L624 265 L524 265 L553 439 L660 439 Z M447 439 L417 265 L253 265 L283 439 L447 439 Z " />
<glyph glyph-name="dollar" unicode="&#x24;" horiz-adv-x="642" d="M585 195 C585 303 520 364 368 402 L368 592 C415 582 460 561 504 528 L560 622 C505 663 445 689 372 698 L372 758 L285 758 L285 700 C160 690 75 616 75 508 C75 395 143 340 289 302 L289 106 C224 116 170 146 113 192 L49 101 C117 47 198 12 285 2 L285 -98 L372 -98 L372 1 C499 12 585 85 585 195 L585 195 Z M289 423 C212 446 193 473 193 515 C193 559 226 594 289 599 L289 423 Z M467 188 C467 140 431 107 368 102 L368 283 C446 260 467 233 467 188 L467 188 Z " />
<glyph glyph-name="percent" unicode="&#x25;" horiz-adv-x="849" d="M378 530 C378 627 312 708 214 708 C115 708 48 626 48 528 C48 431 114 350 212 350 C311 350 378 432 378 530 L378 530 Z M730 700 L631 700 L119 0 L218 0 L730 700 Z M801 172 C801 269 735 350 637 350 C538 350 471 268 471 170 C471 73 537 -8 635 -8 C734 -8 801 74 801 172 L801 172 Z M289 528 C289 472 261 427 214 427 C169 427 137 472 137 530 C137 586 165 631 212 631 C257 631 289 586 289 528 L289 528 Z M712 170 C712 114 684 69 637 69 C592 69 560 114 560 172 C560 228 588 273 635 273 C680 273 712 228 712 170 L712 170 Z " />
<glyph glyph-name="ampersand" unicode="&#x26;" horiz-adv-x="696" d="M666 51 L556 163 C592 212 623 267 651 323 L558 372 C535 323 510 277 483 237 L363 359 C456 394 517 449 517 542 C517 638 442 712 331 712 C206 712 130 630 130 535 C130 483 148 440 188 388 C92 347 39 282 39 191 C39 68 137 -10 267 -10 C352 -10 422 25 482 81 L575 -14 L666 51 Z M408 535 C408 483 370 451 298 425 C259 468 245 494 245 530 C245 580 278 615 328 615 C375 615 408 584 408 535 L408 535 Z M412 153 C372 115 328 92 280 92 C212 92 163 135 163 195 C163 241 191 284 256 312 L412 153 Z " />
<glyph glyph-name="quotesingle" unicode="&#x27;" horiz-adv-x="269" d="M60 401 L124 401 L222 695 L222 700 L83 700 L60 401 Z " />
<glyph glyph-name="parenleft" unicode="&#x28;" horiz-adv-x="440" d="M393 634 L340 715 C158 615 63 476 63 287 C63 98 158 -41 340 -141 L393 -60 C251 34 184 138 184 287 C184 436 251 540 393 634 L393 634 Z " />
<glyph glyph-name="parenright" unicode="&#x29;" horiz-adv-x="440" d="M48 634 C190 540 257 436 257 287 C257 138 190 34 48 -60 L101 -141 C282 -41 378 98 378 287 C378 476 282 615 101 715 L48 634 Z " />
<glyph glyph-name="asterisk" unicode="&#x2a;" horiz-adv-x="430" d="M372 492 L258 542 L372 592 L336 653 L236 580 L250 702 L180 702 L194 580 L94 653 L58 592 L172 542 L58 492 L94 431 L194 504 L180 382 L250 382 L236 504 L336 431 L372 492 Z " />
<glyph glyph-name="plus" unicode="&#x2b;" horiz-adv-x="640" d="M263 407 L71 407 L71 297 L263 297 L263 106 L377 106 L377 297 L569 297 L569 407 L377 407 L377 598 L263 598 L263 407 Z " />
<glyph glyph-name="comma" unicode="&#x2c;" horiz-adv-x="269" d="M34 -94 L47 -145 C148 -137 201 -90 201 21 L201 137 L68 137 L68 0 L119 0 C124 -51 95 -82 34 -94 L34 -94 Z " />
<glyph glyph-name="hyphen" unicode="&#x2d;" horiz-adv-x="408" d="M352 247 L352 366 L56 366 L56 247 L352 247 Z " />
<glyph glyph-name="period" unicode="&#x2e;" horiz-adv-x="269" d="M201 0 L201 137 L68 137 L68 0 L201 0 Z " />
<glyph glyph-name="slash" unicode="&#x2f;" horiz-adv-x="521" d="M427 798 L-25 -128 L80 -128 L532 798 L427 798 Z " />
<glyph glyph-name="zero" unicode="0" horiz-adv-x="724" d="M667 351 C667 552 547 712 363 712 C179 712 57 550 57 349 C57 148 177 -12 361 -12 C545 -12 667 150 667 351 L667 351 Z M540 349 C540 210 472 99 363 99 C254 99 184 211 184 351 C184 491 252 601 361 601 C470 601 540 488 540 349 L540 349 Z " />
<glyph glyph-name="one" unicode="1" horiz-adv-x="396" d="M26 645 L52 545 L178 580 L178 0 L300 0 L300 705 L214 705 L26 645 Z " />
<glyph glyph-name="two" unicode="2" horiz-adv-x="613" d="M308 600 C372 600 421 560 421 491 C421 428 386 383 290 302 L49 97 L49 0 L555 0 L555 108 L222 108 L366 228 C490 329 548 389 548 500 C548 625 457 710 317 710 C192 710 126 657 59 563 L146 495 C200 565 244 600 308 600 L308 600 Z " />
<glyph glyph-name="three" unicode="3" horiz-adv-x="618" d="M385 593 L196 392 L216 315 L273 315 C372 315 434 276 434 206 C434 141 382 99 313 99 C235 99 179 132 129 191 L43 111 C102 39 189 -12 311 -12 C456 -12 556 80 556 210 C556 341 457 394 350 408 L545 608 L545 700 L82 700 L82 593 L385 593 Z " />
<glyph glyph-name="four" unicode="4" horiz-adv-x="681" d="M425 705 L36 245 L59 157 L412 157 L412 0 L530 0 L530 157 L630 157 L630 258 L530 258 L530 705 L425 705 Z M412 258 L182 258 L412 535 L412 258 Z " />
<glyph glyph-name="five" unicode="5" horiz-adv-x="622" d="M94 357 L168 308 C204 325 247 339 297 339 C384 339 442 294 442 222 C442 148 387 100 303 100 C238 100 179 132 123 184 L47 95 C113 31 197 -12 304 -12 C459 -12 563 82 563 226 C563 375 457 447 320 447 C273 447 242 439 209 427 L220 591 L532 591 L532 700 L114 700 L94 357 Z " />
<glyph glyph-name="six" unicode="6" horiz-adv-x="656" d="M571 634 C510 683 448 712 357 712 C159 712 57 545 57 330 C57 188 89 115 142 61 C189 15 251 -12 337 -12 C484 -12 597 86 597 227 C597 368 488 448 352 448 C270 448 222 414 185 378 C191 506 249 600 353 600 C414 600 456 577 505 539 L571 634 Z M474 222 C474 149 421 94 334 94 C246 94 189 148 189 221 C189 289 244 345 331 345 C418 345 474 293 474 222 L474 222 Z " />
<glyph glyph-name="seven" unicode="7" horiz-adv-x="609" d="M68 592 L420 592 L106 0 L244 0 L560 607 L560 700 L68 700 L68 592 Z " />
<glyph glyph-name="eight" unicode="8" horiz-adv-x="630" d="M582 194 C582 278 532 328 456 363 C515 394 558 441 558 520 C558 628 455 710 315 710 C175 710 72 628 72 520 C72 441 115 394 174 363 C95 330 48 277 48 191 C48 70 162 -10 315 -10 C468 -10 582 68 582 194 L582 194 Z M440 508 C440 447 387 404 315 404 C243 404 190 447 190 509 C190 563 240 607 315 607 C390 607 440 563 440 508 L440 508 Z M462 199 C462 140 407 93 315 93 C223 93 168 140 168 199 C168 264 232 306 315 306 C398 306 462 264 462 199 L462 199 Z " />
<glyph glyph-name="nine" unicode="9" horiz-adv-x="656" d="M599 370 C599 509 566 586 514 638 C465 687 408 712 320 712 C165 712 59 607 59 469 C59 333 158 246 307 246 C382 246 436 278 471 320 C467 191 405 100 302 100 C242 100 195 121 142 166 L75 72 C134 23 202 -12 299 -12 C487 -12 599 144 599 370 L599 370 Z M467 476 C467 407 414 349 325 349 C238 349 182 401 182 475 C182 548 234 606 321 606 C410 606 467 550 467 476 L467 476 Z " />
<glyph glyph-name="colon" unicode="&#x3a;" horiz-adv-x="279" d="M206 391 L206 528 L73 528 L73 391 L206 391 Z M206 0 L206 137 L73 137 L73 0 L206 0 Z " />
<glyph glyph-name="semicolon" unicode="&#x3b;" horiz-adv-x="279" d="M206 391 L206 528 L73 528 L73 391 L206 391 Z M39 -94 L52 -145 C153 -137 206 -90 206 21 L206 137 L73 137 L73 0 L124 0 C129 -51 100 -82 39 -94 L39 -94 Z " />
<glyph glyph-name="less" unicode="&#x3c;" horiz-adv-x="640" d="M70 406 L70 298 L547 77 L547 193 L190 353 L547 512 L547 627 L70 406 Z " />
<glyph glyph-name="equal" unicode="&#x3d;" horiz-adv-x="640" d="M86 533 L86 421 L554 421 L554 533 L86 533 Z M86 283 L86 171 L554 171 L554 283 L86 283 Z " />
<glyph glyph-name="greater" unicode="&#x3e;" horiz-adv-x="640" d="M570 298 L570 406 L93 627 L93 511 L450 351 L93 192 L93 77 L570 298 Z " />
<glyph glyph-name="question" unicode="&#x3f;" horiz-adv-x="541" d="M192 388 L187 383 L207 221 L288 221 L298 302 C409 321 499 378 499 505 C499 631 405 709 265 709 C157 709 82 664 24 598 L99 518 C147 569 199 597 262 597 C334 597 377 558 377 501 C377 434 319 393 192 388 L192 388 Z M312 0 L312 137 L178 137 L178 0 L312 0 Z " />
<glyph glyph-name="at" unicode="&#x40;" horiz-adv-x="980" d="M927 316 C927 523 736 712 491 712 C246 712 53 513 53 274 C53 35 243 -162 499 -162 C603 -162 687 -134 764 -87 L746 -57 C670 -101 598 -124 499 -124 C261 -124 93 53 93 274 C93 494 263 674 491 674 C718 674 887 500 887 316 C887 179 826 111 755 111 C706 111 677 139 677 182 C677 191 679 207 682 225 L726 477 L629 492 L617 432 C591 472 548 506 476 506 C360 506 249 397 249 256 C249 141 330 67 430 67 C500 67 549 100 585 137 C608 100 655 67 733 67 C836 67 927 148 927 316 L927 316 Z M595 312 C595 225 530 154 457 154 C395 154 351 193 351 262 C351 352 417 420 490 420 C550 420 595 376 595 312 L595 312 Z " />
<glyph glyph-name="A" unicode="A" horiz-adv-x="790" d="M452 705 L338 705 L30 0 L156 0 L228 169 L559 169 L630 0 L760 0 L452 705 Z M514 278 L273 278 L393 558 L514 278 Z " />
<glyph glyph-name="B" unicode="B" horiz-adv-x="722" d="M404 700 L90 700 L90 0 L414 0 C570 0 673 67 673 193 C673 289 616 336 534 364 C586 391 634 435 634 521 C634 631 545 700 404 700 L404 700 Z M379 405 L211 405 L211 591 L388 591 C467 591 511 558 511 501 C511 436 458 405 379 405 L379 405 Z M415 109 L211 109 L211 301 L406 301 C503 301 550 266 550 206 C550 142 499 109 415 109 L415 109 Z " />
<glyph glyph-name="C" unicode="C" horiz-adv-x="738" d="M699 112 L620 192 C560 136 505 101 419 101 C285 101 188 213 188 351 C188 489 285 599 419 599 C499 599 559 564 615 512 L694 603 C627 667 549 712 420 712 C208 712 59 549 59 349 C59 147 211 -12 415 -12 C546 -12 626 36 699 112 L699 112 Z " />
<glyph glyph-name="D" unicode="D" horiz-adv-x="782" d="M723 351 C723 549 571 700 351 700 L90 700 L90 0 L351 0 C571 0 723 153 723 351 L723 351 Z M594 349 C594 211 498 112 351 112 L213 112 L213 588 L351 588 C498 588 594 487 594 349 L594 349 Z " />
<glyph glyph-name="E" unicode="E" horiz-adv-x="670" d="M609 700 L90 700 L90 0 L614 0 L614 110 L213 110 L213 298 L564 298 L564 408 L213 408 L213 590 L609 590 L609 700 Z " />
<glyph glyph-name="F" unicode="F" horiz-adv-x="656" d="M611 700 L90 700 L90 0 L213 0 L213 285 L566 285 L566 397 L213 397 L213 588 L611 588 L611 700 Z " />
<glyph glyph-name="G" unicode="G" horiz-adv-x="784" d="M714 97 L714 391 L416 391 L416 284 L595 284 L595 153 C552 121 492 100 426 100 C283 100 188 206 188 351 C188 487 286 599 415 599 C504 599 557 570 611 524 L689 617 C617 678 542 712 420 712 C209 712 59 546 59 349 C59 144 203 -12 422 -12 C546 -12 645 38 714 97 L714 97 Z " />
<glyph glyph-name="H" unicode="H" horiz-adv-x="760" d="M547 295 L547 0 L670 0 L670 700 L547 700 L547 409 L213 409 L213 700 L90 700 L90 0 L213 0 L213 295 L547 295 Z " />
<glyph glyph-name="I" unicode="I" horiz-adv-x="317" d="M97 700 L97 0 L220 0 L220 700 L97 700 Z " />
<glyph glyph-name="J" unicode="J" horiz-adv-x="559" d="M480 238 L480 700 L354 700 L354 241 C354 148 309 104 243 104 C184 104 143 134 102 186 L21 103 C67 40 137 -10 245 -10 C383 -10 480 72 480 238 L480 238 Z " />
<glyph glyph-name="K" unicode="K" horiz-adv-x="725" d="M406 399 L697 700 L546 700 L213 348 L213 700 L90 700 L90 0 L213 0 L213 203 L322 315 L561 0 L710 0 L406 399 Z " />
<glyph glyph-name="L" unicode="L" horiz-adv-x="619" d="M90 0 L581 0 L581 112 L213 112 L213 700 L90 700 L90 0 Z " />
<glyph glyph-name="M" unicode="M" horiz-adv-x="868" d="M655 502 L655 0 L778 0 L778 700 L647 700 L434 369 L221 700 L90 700 L90 0 L211 0 L211 500 L430 172 L434 172 L655 502 Z " />
<glyph glyph-name="N" unicode="N" horiz-adv-x="790" d="M579 216 L204 700 L90 700 L90 0 L211 0 L211 498 L597 0 L700 0 L700 700 L579 700 L579 216 Z " />
<glyph glyph-name="O" unicode="O" horiz-adv-x="850" d="M791 351 C791 549 641 712 426 712 C211 712 59 547 59 349 C59 151 209 -12 424 -12 C639 -12 791 153 791 351 L791 351 Z M662 349 C662 212 565 101 426 101 C287 101 188 214 188 351 C188 488 285 599 424 599 C563 599 662 486 662 349 L662 349 Z " />
<glyph glyph-name="P" unicode="P" horiz-adv-x="668" d="M632 465 C632 608 529 700 366 700 L90 700 L90 0 L213 0 L213 225 L352 225 C506 225 632 307 632 465 L632 465 Z M507 462 C507 387 449 336 356 336 L213 336 L213 588 L356 588 C448 588 507 545 507 462 L507 462 Z " />
<glyph glyph-name="Q" unicode="Q" horiz-adv-x="850" d="M720 135 C765 196 791 271 791 351 C791 549 641 712 426 712 C211 712 59 547 59 349 C59 151 209 -12 424 -12 C506 -12 578 13 637 54 L721 -21 L800 67 L720 135 Z M546 135 C513 114 472 101 426 101 C287 101 188 214 188 351 C188 488 285 599 424 599 C563 599 662 486 662 349 C662 300 650 254 626 217 L505 327 L426 237 L546 135 Z " />
<glyph glyph-name="R" unicode="R" horiz-adv-x="723" d="M684 0 L495 265 C593 292 662 362 662 478 C662 615 563 700 402 700 L90 700 L90 0 L213 0 L213 244 L367 244 L539 0 L684 0 Z M537 471 C537 399 481 353 393 353 L213 353 L213 588 L392 588 C483 588 537 548 537 471 L537 471 Z " />
<glyph glyph-name="S" unicode="S" horiz-adv-x="640" d="M194 517 C194 564 236 601 308 601 C372 601 435 576 498 529 L564 622 C493 679 412 710 310 710 C171 710 71 628 71 506 C71 376 155 332 304 296 C434 266 462 239 462 188 C462 134 414 99 338 99 C251 99 184 132 117 190 L43 102 C127 27 228 -10 335 -10 C482 -10 585 68 585 200 C585 317 508 370 360 406 C226 438 194 462 194 517 L194 517 Z " />
<glyph glyph-name="T" unicode="T" horiz-adv-x="648" d="M386 586 L608 586 L608 700 L40 700 L40 586 L262 586 L262 0 L386 0 L386 586 Z " />
<glyph glyph-name="U" unicode="U" horiz-adv-x="757" d="M678 700 L555 700 L555 297 C555 168 488 102 379 102 C269 102 202 172 202 302 L202 700 L79 700 L79 297 C79 94 195 -11 377 -11 C560 -11 678 94 678 303 L678 700 Z " />
<glyph glyph-name="V" unicode="V" horiz-adv-x="750" d="M377 162 L166 700 L30 700 L321 -5 L429 -5 L720 700 L587 700 L377 162 Z " />
<glyph glyph-name="W" unicode="W" horiz-adv-x="1116" d="M336 181 L169 700 L36 700 L280 -5 L386 -5 L558 498 L730 -5 L836 -5 L1080 700 L951 700 L784 181 L612 702 L508 702 L336 181 Z " />
<glyph glyph-name="X" unicode="X" horiz-adv-x="729" d="M692 0 L438 358 L682 700 L541 700 L366 449 L192 700 L47 700 L292 356 L37 0 L178 0 L363 265 L547 0 L692 0 Z " />
<glyph glyph-name="Y" unicode="Y" horiz-adv-x="716" d="M420 279 L698 700 L557 700 L359 390 L163 700 L18 700 L296 276 L296 0 L420 0 L420 279 Z " />
<glyph glyph-name="Z" unicode="Z" horiz-adv-x="702" d="M478 591 L65 91 L65 0 L638 0 L638 109 L225 109 L638 609 L638 700 L78 700 L78 591 L478 591 Z " />
<glyph glyph-name="bracketleft" unicode="&#x5b;" horiz-adv-x="454" d="M395 700 L88 700 L88 -130 L395 -130 L395 -35 L203 -35 L203 605 L395 605 L395 700 Z " />
<glyph glyph-name="backslash" unicode="&#x5c;" horiz-adv-x="521" d="M94 798 L-11 798 L441 -128 L546 -128 L94 798 Z " />
<glyph glyph-name="bracketright" unicode="&#x5d;" horiz-adv-x="454" d="M59 700 L59 605 L251 605 L251 -35 L59 -35 L59 -130 L367 -130 L367 700 L59 700 Z " />
<glyph glyph-name="asciicircum" unicode="&#x5e;" horiz-adv-x="500" d="M249 625 L351 493 L444 493 L293 701 L207 701 L56 493 L147 493 L249 625 Z " />
<glyph glyph-name="underscore" unicode="&#x5f;" horiz-adv-x="600" d="M-2 -66 L-2 -160 L602 -160 L602 -66 L-2 -66 Z " />
<glyph glyph-name="grave" unicode="&#x60;" horiz-adv-x="500" d="M246 595 L340 595 L234 759 L124 710 L246 595 Z " />
<glyph glyph-name="a" unicode="a" horiz-adv-x="587" d="M519 0 L519 313 C519 454 443 536 287 536 C201 536 144 518 86 492 L119 395 C167 415 211 428 270 428 C354 428 400 388 400 315 L400 302 C359 315 318 324 254 324 C131 324 40 268 40 154 L40 152 C40 46 128 -11 228 -11 C308 -11 363 22 399 65 L399 0 L519 0 Z M402 191 C402 125 342 80 262 80 C205 80 160 108 160 158 L160 160 C160 214 205 245 281 245 C328 245 371 236 402 224 L402 191 Z " />
<glyph glyph-name="b" unicode="b" horiz-adv-x="670" d="M622 264 C622 440 501 539 376 539 C291 539 236 495 197 440 L197 730 L76 730 L76 0 L197 0 L197 82 C234 33 289 -11 376 -11 C502 -11 622 88 622 264 L622 264 Z M499 264 C499 159 431 94 348 94 C266 94 194 161 194 264 C194 367 266 434 348 434 C430 434 499 368 499 264 L499 264 Z " />
<glyph glyph-name="c" unicode="c" horiz-adv-x="571" d="M536 87 L463 159 C425 120 383 93 326 93 C233 93 168 169 168 264 C168 357 232 433 320 433 C381 433 420 406 457 367 L532 448 C483 502 421 539 321 539 C163 539 47 413 47 262 C47 111 163 -12 320 -12 C423 -12 484 29 536 87 L536 87 Z " />
<glyph glyph-name="d" unicode="d" horiz-adv-x="670" d="M595 0 L595 730 L474 730 L474 446 C436 495 381 539 294 539 C168 539 49 440 49 264 C49 88 170 -11 294 -11 C380 -11 435 33 474 88 L474 0 L595 0 Z M476 264 C476 161 404 94 323 94 C241 94 171 160 171 264 C171 370 240 434 323 434 C404 434 476 367 476 264 L476 264 Z " />
<glyph glyph-name="e" unicode="e" horiz-adv-x="604" d="M168 221 L556 221 C557 233 558 243 558 254 C558 407 473 539 305 539 C154 539 47 415 47 263 C47 99 165 -12 318 -12 C415 -12 484 27 534 87 L463 150 C421 109 379 87 320 87 C242 87 182 135 168 221 L168 221 Z M167 301 C178 383 230 440 304 440 C384 440 430 379 438 301 L167 301 Z " />
<glyph glyph-name="f" unicode="f" horiz-adv-x="376" d="M222 524 L222 553 C222 608 246 633 292 633 C318 633 339 628 363 620 L363 722 C336 730 307 736 265 736 C161 736 103 679 103 563 L103 525 L36 525 L36 424 L103 424 L103 0 L224 0 L224 424 L362 424 L362 524 L222 524 Z " />
<glyph glyph-name="g" unicode="g" horiz-adv-x="670" d="M595 108 L595 528 L474 528 L474 449 C433 498 378 539 289 539 C166 539 49 447 49 290 C49 133 165 42 289 42 C376 42 431 82 475 139 L475 98 C475 -8 416 -64 308 -64 C236 -64 176 -43 120 -8 L75 -99 C143 -140 224 -162 311 -162 C493 -162 595 -79 595 108 L595 108 Z M476 290 C476 203 405 144 321 144 C238 144 171 203 171 291 C171 379 237 437 321 437 C405 437 476 379 476 290 L476 290 Z " />
<glyph glyph-name="h" unicode="h" horiz-adv-x="620" d="M197 298 C197 380 246 429 316 429 C388 429 429 382 429 300 L429 0 L550 0 L550 336 C550 459 481 539 362 539 C280 539 231 496 197 446 L197 730 L76 730 L76 0 L197 0 L197 298 Z " />
<glyph glyph-name="i" unicode="i" horiz-adv-x="286" d="M208 609 L208 724 L78 724 L78 609 L208 609 Z M204 0 L204 528 L83 528 L83 0 L204 0 Z " />
<glyph glyph-name="j" unicode="j" horiz-adv-x="286" d="M208 609 L208 724 L78 724 L78 609 L208 609 Z M83 528 L83 0 C83 -46 60 -64 26 -64 C15 -64 4 -63 -8 -61 L-8 -158 C11 -161 27 -163 50 -163 C149 -163 204 -114 204 -7 L204 528 L83 528 Z " />
<glyph glyph-name="k" unicode="k" horiz-adv-x="582" d="M353 313 L563 528 L416 528 L197 294 L197 730 L76 730 L76 0 L197 0 L197 151 L271 228 L430 0 L570 0 L353 313 Z " />
<glyph glyph-name="l" unicode="l" horiz-adv-x="286" d="M204 0 L204 730 L83 730 L83 0 L204 0 Z " />
<glyph glyph-name="m" unicode="m" horiz-adv-x="950" d="M515 446 C487 502 434 539 358 539 C277 539 231 495 197 448 L197 528 L76 528 L76 0 L197 0 L197 297 C197 379 243 429 310 429 C377 429 417 383 417 301 L417 0 L538 0 L538 298 C538 383 585 429 651 429 C719 429 758 384 758 300 L758 0 L879 0 L879 337 C879 466 809 539 694 539 C614 539 558 502 515 446 L515 446 Z " />
<glyph glyph-name="n" unicode="n" horiz-adv-x="620" d="M197 298 C197 380 246 429 316 429 C388 429 429 382 429 300 L429 0 L550 0 L550 336 C550 459 481 539 362 539 C280 539 231 496 197 446 L197 528 L76 528 L76 0 L197 0 L197 298 Z " />
<glyph glyph-name="o" unicode="o" horiz-adv-x="657" d="M610 264 C610 416 491 539 329 539 C167 539 47 414 47 262 C47 111 166 -12 327 -12 C490 -12 610 113 610 264 L610 264 Z M489 262 C489 169 427 93 329 93 C235 93 168 170 168 264 C168 357 230 433 327 433 C422 433 489 356 489 262 L489 262 Z " />
<glyph glyph-name="p" unicode="p" horiz-adv-x="670" d="M622 264 C622 440 501 539 376 539 C291 539 236 495 197 440 L197 528 L76 528 L76 -160 L197 -160 L197 82 C234 33 289 -11 376 -11 C502 -11 622 88 622 264 L622 264 Z M499 264 C499 159 431 94 348 94 C266 94 194 161 194 264 C194 367 266 434 348 434 C430 434 499 368 499 264 L499 264 Z " />
<glyph glyph-name="q" unicode="q" horiz-adv-x="670" d="M595 -160 L595 528 L474 528 L474 446 C436 495 381 539 294 539 C168 539 49 440 49 264 C49 88 170 -11 294 -11 C380 -11 435 33 474 88 L474 -160 L595 -160 Z M476 264 C476 161 404 94 323 94 C241 94 171 160 171 264 C171 370 240 434 323 434 C404 434 476 367 476 264 L476 264 Z " />
<glyph glyph-name="r" unicode="r" horiz-adv-x="413" d="M197 201 C197 341 271 410 377 410 L384 410 L384 538 C291 542 230 488 197 409 L197 528 L76 528 L76 0 L197 0 L197 201 Z " />
<glyph glyph-name="s" unicode="s" horiz-adv-x="500" d="M453 156 L453 158 C453 253 366 288 289 312 C227 332 170 348 170 386 L170 388 C170 419 197 441 244 441 C288 441 342 422 393 391 L441 477 C385 514 313 537 247 537 C142 537 59 476 59 376 L59 374 C59 273 146 241 224 219 C286 200 342 186 342 145 L342 143 C342 108 312 86 260 86 C206 86 144 108 87 151 L33 69 C99 17 182 -10 257 -10 C367 -10 453 45 453 156 L453 156 Z " />
<glyph glyph-name="t" unicode="t" horiz-adv-x="410" d="M222 424 L364 424 L364 528 L222 528 L222 673 L101 673 L101 528 L34 528 L34 424 L101 424 L101 146 C101 30 164 -9 253 -9 C298 -9 332 1 362 18 L362 117 C338 105 314 99 287 99 C246 99 222 118 222 165 L222 424 Z " />
<glyph glyph-name="u" unicode="u" horiz-adv-x="620" d="M423 230 C423 148 374 99 304 99 C232 99 191 146 191 228 L191 528 L70 528 L70 192 C70 69 139 -11 258 -11 C340 -11 389 32 423 82 L423 0 L544 0 L544 528 L423 528 L423 230 Z " />
<glyph glyph-name="v" unicode="v" horiz-adv-x="595" d="M298 140 L156 528 L26 528 L243 -4 L352 -4 L568 528 L441 528 L298 140 Z " />
<glyph glyph-name="w" unicode="w" horiz-adv-x="861" d="M482 530 L379 530 L262 166 L156 528 L32 528 L203 -4 L311 -4 L430 357 L548 -4 L656 -4 L829 528 L708 528 L600 166 L482 530 Z " />
<glyph glyph-name="x" unicode="x" horiz-adv-x="580" d="M355 271 L542 528 L413 528 L291 354 L169 528 L37 528 L224 268 L30 0 L159 0 L288 185 L418 0 L550 0 L355 271 Z " />
<glyph glyph-name="y" unicode="y" horiz-adv-x="596" d="M568 528 L442 528 L305 136 L155 528 L26 528 L246 0 C226 -46 205 -61 171 -61 C146 -61 122 -53 100 -41 L59 -131 C96 -151 133 -163 184 -163 C269 -163 316 -123 358 -15 L568 528 Z " />
<glyph glyph-name="z" unicode="z" horiz-adv-x="560" d="M357 429 L52 83 L52 0 L511 0 L511 99 L206 99 L511 445 L511 528 L63 528 L63 429 L357 429 Z " />
<glyph glyph-name="braceleft" unicode="&#x7b;" horiz-adv-x="487" d="M437 635 L416 715 C234 682 189 618 189 515 C189 500 191 460 191 443 C191 365 161 333 78 333 L52 333 L52 241 L78 241 C161 241 191 209 191 131 C191 114 189 74 189 59 C189 -44 234 -108 416 -141 L437 -61 C317 -28 301 3 301 76 C301 96 303 129 303 150 C303 228 266 265 199 287 C265 308 303 346 303 424 C303 445 301 478 301 498 C301 571 317 602 437 635 L437 635 Z " />
<glyph glyph-name="bar" unicode="&#x7c;" horiz-adv-x="331" d="M214 -128 L214 798 L117 798 L117 -128 L214 -128 Z " />
<glyph glyph-name="braceright" unicode="&#x7d;" horiz-adv-x="487" d="M50 -61 L71 -141 C253 -108 298 -44 298 59 C298 74 296 114 296 131 C296 209 326 241 409 241 L435 241 L435 333 L409 333 C326 333 296 365 296 443 C296 460 298 500 298 515 C298 618 253 682 71 715 L50 635 C170 602 186 571 186 498 C186 478 184 445 184 424 C184 346 221 309 288 287 C222 266 184 228 184 150 C184 129 186 96 186 76 C186 3 170 -28 50 -61 L50 -61 Z " />
<glyph glyph-name="asciitilde" unicode="&#x7e;" horiz-adv-x="495" d="M436 364 L369 384 C355 350 343 334 314 334 C279 334 226 374 171 374 C110 374 81 330 59 250 L126 229 C140 263 152 279 181 279 C216 279 269 239 324 239 C385 239 414 283 436 364 L436 364 Z " />
<glyph glyph-name="nbspace" unicode="&#xa0;" horiz-adv-x="300" d="" />
<glyph glyph-name="exclamdown" unicode="&#xa1;" horiz-adv-x="302" d="M85 700 L85 563 L218 563 L218 700 L85 700 Z M222 0 L222 35 L185 479 L118 479 L80 35 L80 0 L222 0 Z " />
<glyph glyph-name="cent" unicode="&#xa2;" horiz-adv-x="581" d="M538 181 L468 250 C433 215 392 189 341 186 C337 186 334 186 331 187 L394 510 C421 500 442 482 464 461 L537 539 C505 574 469 603 419 617 L437 706 L349 706 L334 630 C331 630 328 630 325 630 C168 630 52 505 52 354 C52 235 125 133 230 95 L210 -6 L298 -6 L314 81 C318 80 322 80 326 80 C422 81 486 122 538 181 L538 181 Z M317 525 L255 203 C203 231 170 288 170 356 C170 447 231 521 315 525 C316 525 317 525 317 525 L317 525 Z " />
<glyph glyph-name="sterling" unicode="&#xa3;" horiz-adv-x="644" d="M142 382 L63 382 L63 278 L142 278 L142 102 L63 78 L63 0 L591 0 L591 107 L266 107 L266 278 L515 278 L515 382 L266 382 L266 471 C266 548 306 596 373 596 C429 596 463 569 499 523 L593 598 C545 661 483 710 372 710 C226 710 142 619 142 474 L142 382 Z " />
<glyph glyph-name="currency" unicode="&#xa4;" horiz-adv-x="720" d="M130 395 C128 380 128 364 128 349 C128 336 128 323 129 310 L52 310 L52 225 L143 225 C181 84 286 -12 434 -12 C548 -12 619 46 676 129 L588 193 C542 133 502 98 435 98 C357 98 299 147 272 225 L488 225 L488 310 L254 310 C253 324 252 337 252 351 C252 366 253 381 254 395 L488 395 L488 480 L274 480 C301 555 356 602 427 602 C497 602 538 570 581 511 L674 580 C621 656 552 712 430 712 C288 712 186 615 146 480 L52 480 L52 395 L130 395 Z " />
<glyph glyph-name="yen" unicode="&#xa5;" horiz-adv-x="686" d="M402 264 L595 264 L595 353 L435 353 L667 700 L528 700 L345 407 L162 700 L19 700 L250 353 L91 353 L91 264 L284 264 L284 191 L91 191 L91 102 L284 102 L284 0 L402 0 L402 102 L595 102 L595 191 L402 191 L402 264 Z " />
<glyph glyph-name="section" unicode="&#xa7;" horiz-adv-x="632" d="M574 350 C574 424 513 462 358 497 C250 522 226 539 226 568 C226 597 252 618 307 618 C370 618 422 590 468 547 L537 615 C481 674 404 710 306 710 C183 710 110 652 110 563 C110 524 129 490 165 467 C102 450 58 414 58 350 C58 276 119 238 274 203 C382 178 406 161 406 132 C406 103 380 82 325 82 C262 82 210 110 164 153 L95 85 C151 26 228 -10 326 -10 C449 -10 522 48 522 137 C522 176 503 210 467 233 C530 250 574 286 574 350 L574 350 Z M465 333 C465 302 436 278 388 278 C365 278 335 283 284 296 C199 317 167 337 167 367 C167 398 196 422 244 422 C267 422 296 417 348 404 C433 383 465 363 465 333 L465 333 Z " />
<glyph glyph-name="dieresis" unicode="&#xa8;" horiz-adv-x="500" d="M411 595 L411 713 L288 713 L288 595 L411 595 Z M212 595 L212 713 L89 713 L89 595 L212 595 Z " />
<glyph glyph-name="copyright" unicode="&#xa9;" horiz-adv-x="830" d="M777 351 C777 549 619 712 416 712 C213 712 53 547 53 349 C53 151 211 -12 414 -12 C617 -12 777 153 777 351 L777 351 Z M739 351 C739 171 599 24 414 24 C230 24 91 169 91 349 C91 529 231 676 416 676 C600 676 739 531 739 351 L739 351 Z M573 227 L525 274 C494 245 466 227 421 227 C353 227 303 285 303 355 C303 426 352 483 421 483 C461 483 494 464 523 438 L570 492 C534 527 492 551 421 551 C307 551 227 462 227 354 C227 245 309 159 419 159 C490 159 533 185 573 227 L573 227 Z " />
<glyph glyph-name="ordfeminine" unicode="&#xaa;" horiz-adv-x="390" d="M319 409 L319 581 C319 659 277 703 192 703 C144 703 114 694 80 678 L99 624 C127 635 151 643 182 643 C227 643 252 621 252 582 L252 577 C230 583 208 588 176 588 C105 588 56 557 56 494 C56 434 104 403 159 403 C201 403 230 419 251 443 L251 409 L319 409 Z M323 282 L323 340 L53 340 L53 282 L323 282 Z M252 514 C252 479 220 454 177 454 C147 454 125 469 125 497 C125 526 149 543 189 543 C215 543 235 538 252 532 L252 514 Z " />
<glyph glyph-name="guillemotleft" unicode="&#xab;" horiz-adv-x="606" d="M461 488 L296 268 L296 260 L461 41 L553 88 L421 265 L553 441 L461 488 Z M210 488 L44 268 L44 260 L210 41 L302 88 L170 265 L302 441 L210 488 Z " />
<glyph glyph-name="registered" unicode="&#xae;" horiz-adv-x="830" d="M777 351 C777 549 619 712 416 712 C213 712 53 547 53 349 C53 151 211 -12 414 -12 C617 -12 777 153 777 351 L777 351 Z M739 351 C739 171 599 24 414 24 C230 24 91 169 91 349 C91 529 231 676 416 676 C600 676 739 531 739 351 L739 351 Z M584 429 C584 505 526 550 438 550 L269 550 L269 171 L341 171 L341 302 L420 302 L512 171 L598 171 L496 314 C548 329 584 367 584 429 L584 429 Z M510 425 C510 388 482 365 435 365 L341 365 L341 485 L435 485 C482 485 510 464 510 425 L510 425 Z " />
<glyph glyph-name="macron" unicode="&#xaf;" horiz-adv-x="500" d="M421 600 L421 689 L79 689 L79 600 L421 600 Z " />
<glyph glyph-name="degree" unicode="&#xb0;" horiz-adv-x="471" d="M402 544 C402 631 323 706 235 706 C148 706 69 631 69 544 C69 456 148 381 235 381 C323 381 402 456 402 544 L402 544 Z M330 544 C330 492 290 447 235 447 C181 447 141 492 141 544 C141 595 181 640 235 640 C290 640 330 595 330 544 L330 544 Z " />
<glyph glyph-name="plusminus" unicode="&#xb1;" horiz-adv-x="610" d="M560 200 C560 286 507 332 437 359 C494 387 541 435 541 524 C541 633 445 712 300 712 C184 712 113 661 53 583 L139 513 C185 567 231 601 298 601 C373 601 419 562 419 506 C419 445 368 405 287 405 L209 405 L209 301 L284 301 C381 301 438 266 438 201 C438 139 390 99 313 99 C232 99 173 134 124 189 L39 110 C103 37 197 -12 311 -12 C467 -12 560 79 560 200 L560 200 Z " />
<glyph glyph-name="acute" unicode="&#xb4;" horiz-adv-x="500" d="M254 595 L376 710 L266 759 L160 595 L254 595 Z " />
<glyph glyph-name="mu" unicode="&#xb5;" horiz-adv-x="850" d="M791 351 C791 549 641 712 426 712 C211 712 59 547 59 349 C59 151 209 -12 424 -12 C469 -12 511 -4 550 10 L666 -101 L846 -101 L846 -93 L671 81 C746 148 791 245 791 351 L791 351 Z M662 349 C662 212 565 101 426 101 C287 101 188 214 188 351 C188 488 285 599 424 599 C563 599 662 486 662 349 L662 349 Z " />
<glyph glyph-name="paragraph" unicode="&#xb6;" horiz-adv-x="557" d="M311 700 C151 700 40 615 40 472 C40 322 164 244 328 244 L346 244 L346 0 L470 0 L470 700 L311 700 Z " />
<glyph glyph-name="periodcentered" unicode="&#xb7;" horiz-adv-x="269" d="M201 238 L201 375 L68 375 L68 238 L201 238 Z " />
<glyph glyph-name="cedilla" unicode="&#xb8;" horiz-adv-x="500" d="M221 10 L131 -121 L237 -165 L312 10 L221 10 Z " />
<glyph glyph-name="ordmasculine" unicode="&#xba;" horiz-adv-x="390" d="M346 554 C346 638 282 705 196 705 C109 705 44 637 44 553 C44 469 108 402 194 402 C281 402 346 470 346 554 L346 554 Z M339 282 L339 340 L51 340 L51 282 L339 282 Z M276 553 C276 504 245 464 196 464 C148 464 114 505 114 554 C114 603 145 643 194 643 C242 643 276 602 276 553 L276 553 Z " />
<glyph glyph-name="guillemotright" unicode="&#xbb;" horiz-adv-x="606" d="M396 41 L562 260 L562 268 L396 488 L304 440 L436 263 L304 87 L396 41 Z M145 41 L310 260 L310 268 L145 488 L53 440 L185 263 L53 87 L145 41 Z " />
<glyph glyph-name="questiondown" unicode="&#xbf;" horiz-adv-x="541" d="M229 700 L229 563 L363 563 L363 700 L229 700 Z M349 312 L354 317 L334 479 L253 479 L243 398 C132 379 42 322 42 195 C42 69 136 -9 276 -9 C384 -9 459 36 517 102 L442 182 C394 131 342 103 279 103 C207 103 164 142 164 199 C164 266 222 307 349 312 L349 312 Z " />
<glyph glyph-name="Agrave" unicode="&#xc0;" horiz-adv-x="790" d="M452 705 L338 705 L30 0 L156 0 L228 169 L559 169 L630 0 L760 0 L452 705 Z M514 278 L273 278 L393 558 L514 278 Z M351 758 L445 758 L339 922 L229 873 L351 758 Z " />
<glyph glyph-name="Aacute" unicode="&#xc1;" horiz-adv-x="790" d="M452 705 L338 705 L30 0 L156 0 L228 169 L559 169 L630 0 L760 0 L452 705 Z M514 278 L273 278 L393 558 L514 278 Z M439 758 L561 873 L451 922 L345 758 L439 758 Z " />
<glyph glyph-name="Acircumflex" unicode="&#xc2;" horiz-adv-x="790" d="M452 705 L338 705 L30 0 L156 0 L228 169 L559 169 L630 0 L760 0 L452 705 Z M514 278 L273 278 L393 558 L514 278 Z M394 824 L471 757 L567 757 L451 903 L339 903 L223 757 L317 757 L394 824 Z " />
<glyph glyph-name="Atilde" unicode="&#xc3;" horiz-adv-x="790" d="M452 705 L338 705 L30 0 L156 0 L228 169 L559 169 L630 0 L760 0 L452 705 Z M514 278 L273 278 L393 558 L514 278 Z M584 882 L517 903 C502 869 491 853 462 853 C426 853 373 893 318 893 C257 893 228 849 206 768 L273 748 C288 782 299 798 328 798 C364 798 417 758 472 758 C533 758 562 802 584 882 L584 882 Z " />
<glyph glyph-name="Adieresis" unicode="&#xc4;" horiz-adv-x="790" d="M452 705 L338 705 L30 0 L156 0 L228 169 L559 169 L630 0 L760 0 L452 705 Z M514 278 L273 278 L393 558 L514 278 Z M556 758 L556 876 L433 876 L433 758 L556 758 Z M357 758 L357 876 L234 876 L234 758 L357 758 Z " />
<glyph glyph-name="Aring" unicode="&#xc5;" horiz-adv-x="790" d="M328 684 L30 0 L156 0 L228 169 L559 169 L630 0 L760 0 L462 684 C489 704 509 735 509 772 C509 832 455 882 395 882 C335 882 281 832 281 772 C281 735 301 704 328 684 L328 684 Z M457 772 C457 738 429 710 395 710 C361 710 333 738 333 772 C333 806 361 834 395 834 C429 834 457 806 457 772 L457 772 Z M514 278 L273 278 L393 558 L514 278 Z " />
<glyph glyph-name="AE" unicode="&#xc6;" horiz-adv-x="1045" d="M232 169 L487 169 L487 0 L989 0 L989 110 L610 110 L610 298 L939 298 L939 408 L610 408 L610 590 L984 590 L984 700 L403 700 L12 0 L139 0 L232 169 Z M467 593 L487 593 L487 278 L291 278 L467 593 Z " />
<glyph glyph-name="Ccedilla" unicode="&#xc7;" horiz-adv-x="738" d="M345 -5 L266 -121 L371 -165 L437 -11 C556 -6 631 41 699 112 L620 192 C560 136 505 101 419 101 C285 101 188 213 188 351 C188 489 285 599 419 599 C499 599 559 564 615 512 L694 603 C627 667 549 712 420 712 C208 712 59 549 59 349 C59 171 177 26 345 -5 L345 -5 Z " />
<glyph glyph-name="Egrave" unicode="&#xc8;" horiz-adv-x="670" d="M609 700 L90 700 L90 0 L614 0 L614 110 L213 110 L213 298 L564 298 L564 408 L213 408 L213 590 L609 590 L609 700 Z M327 758 L421 758 L315 922 L205 873 L327 758 Z " />
<glyph glyph-name="Eacute" unicode="&#xc9;" horiz-adv-x="670" d="M609 700 L90 700 L90 0 L614 0 L614 110 L213 110 L213 298 L564 298 L564 408 L213 408 L213 590 L609 590 L609 700 Z M371 758 L493 873 L383 922 L277 758 L371 758 Z " />
<glyph glyph-name="Ecircumflex" unicode="&#xca;" horiz-adv-x="670" d="M609 700 L90 700 L90 0 L614 0 L614 110 L213 110 L213 298 L564 298 L564 408 L213 408 L213 590 L609 590 L609 700 Z M346 825 L423 758 L519 758 L403 904 L291 904 L175 758 L269 758 L346 825 Z " />
<glyph glyph-name="Edieresis" unicode="&#xcb;" horiz-adv-x="670" d="M609 700 L90 700 L90 0 L614 0 L614 110 L213 110 L213 298 L564 298 L564 408 L213 408 L213 590 L609 590 L609 700 Z M508 758 L508 876 L385 876 L385 758 L508 758 Z M309 758 L309 876 L186 876 L186 758 L309 758 Z " />
<glyph glyph-name="Igrave" unicode="&#xcc;" horiz-adv-x="317" d="M97 700 L97 0 L220 0 L220 700 L97 700 Z M116 758 L210 758 L104 922 L-6 873 L116 758 Z " />
<glyph glyph-name="Iacute" unicode="&#xcd;" horiz-adv-x="317" d="M97 700 L97 0 L220 0 L220 700 L97 700 Z M202 758 L324 873 L214 922 L108 758 L202 758 Z " />
<glyph glyph-name="Icircumflex" unicode="&#xce;" horiz-adv-x="317" d="M97 700 L97 0 L220 0 L220 700 L97 700 Z M158 825 L235 758 L331 758 L215 904 L103 904 L-13 758 L81 758 L158 825 Z " />
<glyph glyph-name="Idieresis" unicode="&#xcf;" horiz-adv-x="317" d="M97 700 L97 0 L220 0 L220 700 L97 700 Z M320 758 L320 876 L197 876 L197 758 L320 758 Z M121 758 L121 876 L-2 876 L-2 758 L121 758 Z " />
<glyph glyph-name="Eth" unicode="&#xd0;" horiz-adv-x="812" d="M120 297 L120 0 L381 0 C601 0 753 153 753 351 C753 549 601 700 381 700 L120 700 L120 407 L45 407 L45 297 L120 297 Z M242 407 L242 588 L381 588 C528 588 624 487 624 349 C624 211 528 112 381 112 L242 112 L242 297 L418 297 L418 407 L242 407 Z " />
<glyph glyph-name="Ntilde" unicode="&#xd1;" horiz-adv-x="790" d="M579 216 L204 700 L90 700 L90 0 L211 0 L211 498 L597 0 L700 0 L700 700 L579 700 L579 216 Z M584 882 L517 903 C502 869 491 853 462 853 C426 853 373 893 318 893 C257 893 228 849 206 768 L273 748 C288 782 299 798 328 798 C364 798 417 758 472 758 C533 758 562 802 584 882 L584 882 Z " />
<glyph glyph-name="Ograve" unicode="&#xd2;" horiz-adv-x="850" d="M791 351 C791 549 641 712 426 712 C211 712 59 547 59 349 C59 151 209 -12 424 -12 C639 -12 791 153 791 351 L791 351 Z M662 349 C662 212 565 101 426 101 C287 101 188 214 188 351 C188 488 285 599 424 599 C563 599 662 486 662 349 L662 349 Z M374 758 L468 758 L362 922 L252 873 L374 758 Z " />
<glyph glyph-name="Oacute" unicode="&#xd3;" horiz-adv-x="850" d="M791 351 C791 549 641 712 426 712 C211 712 59 547 59 349 C59 151 209 -12 424 -12 C639 -12 791 153 791 351 L791 351 Z M662 349 C662 212 565 101 426 101 C287 101 188 214 188 351 C188 488 285 599 424 599 C563 599 662 486 662 349 L662 349 Z M476 758 L598 873 L488 922 L382 758 L476 758 Z " />
<glyph glyph-name="Ocircumflex" unicode="&#xd4;" horiz-adv-x="850" d="M791 351 C791 549 641 712 426 712 C211 712 59 547 59 349 C59 151 209 -12 424 -12 C639 -12 791 153 791 351 L791 351 Z M662 349 C662 212 565 101 426 101 C287 101 188 214 188 351 C188 488 285 599 424 599 C563 599 662 486 662 349 L662 349 Z M424 825 L501 758 L597 758 L481 904 L369 904 L253 758 L347 758 L424 825 Z " />
<glyph glyph-name="Otilde" unicode="&#xd5;" horiz-adv-x="850" d="M791 351 C791 549 641 712 426 712 C211 712 59 547 59 349 C59 151 209 -12 424 -12 C639 -12 791 153 791 351 L791 351 Z M662 349 C662 212 565 101 426 101 C287 101 188 214 188 351 C188 488 285 599 424 599 C563 599 662 486 662 349 L662 349 Z M614 882 L547 903 C532 869 521 853 492 853 C456 853 403 893 348 893 C287 893 258 849 236 768 L303 748 C318 782 329 798 358 798 C394 798 447 758 502 758 C563 758 592 802 614 882 L614 882 Z " />
<glyph glyph-name="Odieresis" unicode="&#xd6;" horiz-adv-x="850" d="M791 351 C791 549 641 712 426 712 C211 712 59 547 59 349 C59 151 209 -12 424 -12 C639 -12 791 153 791 351 L791 351 Z M662 349 C662 212 565 101 426 101 C287 101 188 214 188 351 C188 488 285 599 424 599 C563 599 662 486 662 349 L662 349 Z M586 758 L586 876 L463 876 L463 758 L586 758 Z M387 758 L387 876 L264 876 L264 758 L387 758 Z " />
<glyph glyph-name="Oslash" unicode="&#xd8;" horiz-adv-x="850" d="M791 351 C791 444 758 530 700 593 L799 705 L678 705 L630 652 C573 690 504 712 426 712 C211 712 59 547 59 349 C59 256 92 170 150 107 L51 -5 L172 -5 L220 48 C277 10 346 -12 424 -12 C639 -12 791 153 791 351 L791 351 Z M552 562 L232 201 C202 244 185 295 185 351 C185 487 284 601 424 601 C473 601 517 586 552 562 L552 562 Z M665 349 C665 213 566 99 426 99 C377 99 333 114 298 138 L618 499 C648 456 665 405 665 349 L665 349 Z " />
<glyph glyph-name="Ugrave" unicode="&#xd9;" horiz-adv-x="757" d="M678 700 L555 700 L555 297 C555 168 488 102 379 102 C269 102 202 172 202 302 L202 700 L79 700 L79 297 C79 94 195 -11 377 -11 C560 -11 678 94 678 303 L678 700 Z M341 753 L435 753 L329 917 L219 868 L341 753 Z " />
<glyph glyph-name="Uacute" unicode="&#xda;" horiz-adv-x="757" d="M678 700 L555 700 L555 297 C555 168 488 102 379 102 C269 102 202 172 202 302 L202 700 L79 700 L79 297 C79 94 195 -11 377 -11 C560 -11 678 94 678 303 L678 700 Z M416 753 L538 868 L428 917 L322 753 L416 753 Z " />
<glyph glyph-name="Ucircumflex" unicode="&#xdb;" horiz-adv-x="757" d="M678 700 L555 700 L555 297 C555 168 488 102 379 102 C269 102 202 172 202 302 L202 700 L79 700 L79 297 C79 94 195 -11 377 -11 C560 -11 678 94 678 303 L678 700 Z M378 824 L455 757 L551 757 L435 903 L323 903 L207 757 L301 757 L378 824 Z " />
<glyph glyph-name="Udieresis" unicode="&#xdc;" horiz-adv-x="757" d="M678 700 L555 700 L555 297 C555 168 488 102 379 102 C269 102 202 172 202 302 L202 700 L79 700 L79 297 C79 94 195 -11 377 -11 C560 -11 678 94 678 303 L678 700 Z M540 757 L540 875 L417 875 L417 757 L540 757 Z M341 757 L341 875 L218 875 L218 757 L341 757 Z " />
<glyph glyph-name="Yacute" unicode="&#xdd;" horiz-adv-x="716" d="M420 279 L698 700 L557 700 L359 390 L163 700 L18 700 L296 276 L296 0 L420 0 L420 279 Z M405 753 L527 868 L417 917 L311 753 L405 753 Z " />
<glyph glyph-name="Thorn" unicode="&#xde;" horiz-adv-x="673" d="M632 356 C632 498 529 590 366 590 L213 590 L213 700 L90 700 L90 0 L213 0 L213 116 L352 116 C506 116 632 197 632 356 L632 356 Z M507 353 C507 278 449 226 356 226 L213 226 L213 479 L356 479 C448 479 507 436 507 353 L507 353 Z " />
<glyph glyph-name="germandbls" unicode="&#xdf;" horiz-adv-x="620" d="M529 548 C529 654 450 737 314 737 C168 737 76 647 76 502 L76 0 L196 0 L196 506 C196 584 242 634 308 634 C369 634 409 596 409 537 C409 470 360 428 296 397 L296 315 C387 304 450 266 450 200 C450 131 393 94 296 91 L296 -2 C464 -7 571 67 571 197 C571 298 498 349 419 376 C477 408 529 457 529 548 L529 548 Z " />
<glyph glyph-name="agrave" unicode="&#xe0;" horiz-adv-x="587" d="M519 0 L519 313 C519 454 443 536 287 536 C201 536 144 518 86 492 L119 395 C167 415 211 428 270 428 C354 428 400 388 400 315 L400 302 C359 315 318 324 254 324 C131 324 40 268 40 154 L40 152 C40 46 128 -11 228 -11 C308 -11 363 22 399 65 L399 0 L519 0 Z M402 191 C402 125 342 80 262 80 C205 80 160 108 160 158 L160 160 C160 214 205 245 281 245 C328 245 371 236 402 224 L402 191 Z M257 595 L351 595 L245 759 L135 710 L257 595 Z " />
<glyph glyph-name="aacute" unicode="&#xe1;" horiz-adv-x="587" d="M519 0 L519 313 C519 454 443 536 287 536 C201 536 144 518 86 492 L119 395 C167 415 211 428 270 428 C354 428 400 388 400 315 L400 302 C359 315 318 324 254 324 C131 324 40 268 40 154 L40 152 C40 46 128 -11 228 -11 C308 -11 363 22 399 65 L399 0 L519 0 Z M402 191 C402 125 342 80 262 80 C205 80 160 108 160 158 L160 160 C160 214 205 245 281 245 C328 245 371 236 402 224 L402 191 Z M329 595 L451 710 L341 759 L235 595 L329 595 Z " />
<glyph glyph-name="acircumflex" unicode="&#xe2;" horiz-adv-x="587" d="M519 0 L519 313 C519 454 443 536 287 536 C201 536 144 518 86 492 L119 395 C167 415 211 428 270 428 C354 428 400 388 400 315 L400 302 C359 315 318 324 254 324 C131 324 40 268 40 154 L40 152 C40 46 128 -11 228 -11 C308 -11 363 22 399 65 L399 0 L519 0 Z M402 191 C402 125 342 80 262 80 C205 80 160 108 160 158 L160 160 C160 214 205 245 281 245 C328 245 371 236 402 224 L402 191 Z M292 662 L369 595 L465 595 L349 741 L237 741 L121 595 L215 595 L292 662 Z " />
<glyph glyph-name="atilde" unicode="&#xe3;" horiz-adv-x="587" d="M519 0 L519 313 C519 454 443 536 287 536 C201 536 144 518 86 492 L119 395 C167 415 211 428 270 428 C354 428 400 388 400 315 L400 302 C359 315 318 324 254 324 C131 324 40 268 40 154 L40 152 C40 46 128 -11 228 -11 C308 -11 363 22 399 65 L399 0 L519 0 Z M402 191 C402 125 342 80 262 80 C205 80 160 108 160 158 L160 160 C160 214 205 245 281 245 C328 245 371 236 402 224 L402 191 Z M483 719 L416 740 C401 706 390 690 361 690 C325 690 272 730 217 730 C156 730 127 686 105 605 L172 585 C187 619 198 635 227 635 C263 635 316 595 371 595 C432 595 461 639 483 719 L483 719 Z " />
<glyph glyph-name="adieresis" unicode="&#xe4;" horiz-adv-x="587" d="M519 0 L519 313 C519 454 443 536 287 536 C201 536 144 518 86 492 L119 395 C167 415 211 428 270 428 C354 428 400 388 400 315 L400 302 C359 315 318 324 254 324 C131 324 40 268 40 154 L40 152 C40 46 128 -11 228 -11 C308 -11 363 22 399 65 L399 0 L519 0 Z M402 191 C402 125 342 80 262 80 C205 80 160 108 160 158 L160 160 C160 214 205 245 281 245 C328 245 371 236 402 224 L402 191 Z M454 595 L454 713 L331 713 L331 595 L454 595 Z M255 595 L255 713 L132 713 L132 595 L255 595 Z " />
<glyph glyph-name="aring" unicode="&#xe5;" horiz-adv-x="587" d="M519 0 L519 313 C519 454 443 536 287 536 C201 536 144 518 86 492 L119 395 C167 415 211 428 270 428 C354 428 400 388 400 315 L400 302 C359 315 318 324 254 324 C131 324 40 268 40 154 L40 152 C40 46 128 -11 228 -11 C308 -11 363 22 399 65 L399 0 L519 0 Z M402 191 C402 125 342 80 262 80 C205 80 160 108 160 158 L160 160 C160 214 205 245 281 245 C328 245 371 236 402 224 L402 191 Z M407 703 C407 763 353 813 293 813 C233 813 179 763 179 703 C179 643 233 593 293 593 C353 593 407 643 407 703 L407 703 Z M355 703 C355 669 327 641 293 641 C259 641 231 669 231 703 C231 737 259 765 293 765 C327 765 355 737 355 703 L355 703 Z " />
<glyph glyph-name="ae" unicode="&#xe6;" horiz-adv-x="952" d="M461 78 C509 22 583 -12 665 -12 C763 -12 831 27 882 87 L811 150 C769 109 727 87 667 87 C590 87 530 135 516 221 L904 221 C905 233 905 243 905 254 C905 407 821 539 655 539 C577 539 512 504 470 449 C438 505 376 536 284 536 C200 536 144 518 86 492 L119 395 C167 415 211 428 270 428 C354 428 400 388 400 315 L400 302 C359 315 318 324 254 324 C131 324 40 268 40 155 C40 48 121 -11 240 -11 C329 -11 402 29 461 78 L461 78 Z M514 301 C525 383 577 440 652 440 C732 440 778 379 786 301 L514 301 Z M397 227 C400 197 407 171 417 146 C373 105 323 80 262 80 C205 80 160 108 160 160 C160 214 205 245 281 245 C328 245 366 238 397 227 L397 227 Z " />
<glyph glyph-name="ccedilla" unicode="&#xe7;" horiz-adv-x="571" d="M250 -3 L170 -121 L276 -165 L341 -11 C432 -6 487 34 536 87 L463 159 C425 120 383 93 326 93 C233 93 168 169 168 264 C168 357 232 433 320 433 C381 433 420 406 457 367 L532 448 C483 502 421 539 321 539 C163 539 47 413 47 262 C47 134 130 27 250 -3 L250 -3 Z " />
<glyph glyph-name="egrave" unicode="&#xe8;" horiz-adv-x="604" d="M168 221 L556 221 C557 233 558 243 558 254 C558 407 473 539 305 539 C154 539 47 415 47 263 C47 99 165 -12 318 -12 C415 -12 484 27 534 87 L463 150 C421 109 379 87 320 87 C242 87 182 135 168 221 L168 221 Z M167 301 C178 383 230 440 304 440 C384 440 430 379 438 301 L167 301 Z M261 595 L355 595 L249 759 L139 710 L261 595 Z " />
<glyph glyph-name="eacute" unicode="&#xe9;" horiz-adv-x="604" d="M168 221 L556 221 C557 233 558 243 558 254 C558 407 473 539 305 539 C154 539 47 415 47 263 C47 99 165 -12 318 -12 C415 -12 484 27 534 87 L463 150 C421 109 379 87 320 87 C242 87 182 135 168 221 L168 221 Z M167 301 C178 383 230 440 304 440 C384 440 430 379 438 301 L167 301 Z M343 595 L465 710 L355 759 L249 595 L343 595 Z " />
<glyph glyph-name="ecircumflex" unicode="&#xea;" horiz-adv-x="604" d="M168 221 L556 221 C557 233 558 243 558 254 C558 407 473 539 305 539 C154 539 47 415 47 263 C47 99 165 -12 318 -12 C415 -12 484 27 534 87 L463 150 C421 109 379 87 320 87 C242 87 182 135 168 221 L168 221 Z M167 301 C178 383 230 440 304 440 C384 440 430 379 438 301 L167 301 Z M302 662 L379 595 L475 595 L359 741 L247 741 L131 595 L225 595 L302 662 Z " />
<glyph glyph-name="edieresis" unicode="&#xeb;" horiz-adv-x="604" d="M168 221 L556 221 C557 233 558 243 558 254 C558 407 473 539 305 539 C154 539 47 415 47 263 C47 99 165 -12 318 -12 C415 -12 484 27 534 87 L463 150 C421 109 379 87 320 87 C242 87 182 135 168 221 L168 221 Z M167 301 C178 383 230 440 304 440 C384 440 430 379 438 301 L167 301 Z M464 595 L464 713 L341 713 L341 595 L464 595 Z M265 595 L265 713 L142 713 L142 595 L265 595 Z " />
<glyph glyph-name="igrave" unicode="&#xec;" horiz-adv-x="286" d="M204 0 L204 528 L83 528 L83 0 L204 0 Z M101 595 L195 595 L89 759 L-21 710 L101 595 Z " />
<glyph glyph-name="iacute" unicode="&#xed;" horiz-adv-x="286" d="M204 0 L204 528 L83 528 L83 0 L204 0 Z M185 595 L307 710 L197 759 L91 595 L185 595 Z " />
<glyph glyph-name="icircumflex" unicode="&#xee;" horiz-adv-x="286" d="M204 0 L204 528 L83 528 L83 0 L204 0 Z M142 662 L219 595 L315 595 L199 741 L87 741 L-29 595 L65 595 L142 662 Z " />
<glyph glyph-name="idieresis" unicode="&#xef;" horiz-adv-x="286" d="M204 0 L204 528 L83 528 L83 0 L204 0 Z M304 595 L304 713 L181 713 L181 595 L304 595 Z M105 595 L105 713 L-18 713 L-18 595 L105 595 Z " />
<glyph glyph-name="eth" unicode="&#xf0;" horiz-adv-x="642" d="M313 588 L418 445 C375 471 336 486 279 486 C148 486 47 390 47 249 C47 105 161 -12 316 -12 C489 -12 593 113 593 258 C593 348 565 417 505 502 L416 631 L518 675 L471 738 L372 695 L348 730 L209 730 L267 651 L146 598 L194 535 L313 588 Z M474 246 C474 161 414 91 321 91 C230 91 166 163 166 246 C166 332 225 397 317 397 C410 397 474 330 474 246 L474 246 Z " />
<glyph glyph-name="ntilde" unicode="&#xf1;" horiz-adv-x="620" d="M197 298 C197 380 246 429 316 429 C388 429 429 382 429 300 L429 0 L550 0 L550 336 C550 459 481 539 362 539 C280 539 231 496 197 446 L197 528 L76 528 L76 0 L197 0 L197 298 Z M503 719 L436 740 C421 706 410 690 381 690 C345 690 292 730 237 730 C176 730 147 686 125 605 L192 585 C207 619 218 635 247 635 C283 635 336 595 391 595 C452 595 481 639 503 719 L503 719 Z " />
<glyph glyph-name="ograve" unicode="&#xf2;" horiz-adv-x="657" d="M610 264 C610 416 491 539 329 539 C167 539 47 414 47 262 C47 111 166 -12 327 -12 C490 -12 610 113 610 264 L610 264 Z M489 262 C489 169 427 93 329 93 C235 93 168 170 168 264 C168 357 230 433 327 433 C422 433 489 356 489 262 L489 262 Z M281 595 L375 595 L269 759 L159 710 L281 595 Z " />
<glyph glyph-name="oacute" unicode="&#xf3;" horiz-adv-x="657" d="M610 264 C610 416 491 539 329 539 C167 539 47 414 47 262 C47 111 166 -12 327 -12 C490 -12 610 113 610 264 L610 264 Z M489 262 C489 169 427 93 329 93 C235 93 168 170 168 264 C168 357 230 433 327 433 C422 433 489 356 489 262 L489 262 Z M375 595 L497 710 L387 759 L281 595 L375 595 Z " />
<glyph glyph-name="ocircumflex" unicode="&#xf4;" horiz-adv-x="657" d="M610 264 C610 416 491 539 329 539 C167 539 47 414 47 262 C47 111 166 -12 327 -12 C490 -12 610 113 610 264 L610 264 Z M489 262 C489 169 427 93 329 93 C235 93 168 170 168 264 C168 357 230 433 327 433 C422 433 489 356 489 262 L489 262 Z M327 662 L404 595 L500 595 L384 741 L272 741 L156 595 L250 595 L327 662 Z " />
<glyph glyph-name="otilde" unicode="&#xf5;" horiz-adv-x="657" d="M610 264 C610 416 491 539 329 539 C167 539 47 414 47 262 C47 111 166 -12 327 -12 C490 -12 610 113 610 264 L610 264 Z M489 262 C489 169 427 93 329 93 C235 93 168 170 168 264 C168 357 230 433 327 433 C422 433 489 356 489 262 L489 262 Z M517 719 L450 740 C435 706 424 690 395 690 C359 690 306 730 251 730 C190 730 161 686 139 605 L206 585 C221 619 232 635 261 635 C297 635 350 595 405 595 C466 595 495 639 517 719 L517 719 Z " />
<glyph glyph-name="odieresis" unicode="&#xf6;" horiz-adv-x="657" d="M610 264 C610 416 491 539 329 539 C167 539 47 414 47 262 C47 111 166 -12 327 -12 C490 -12 610 113 610 264 L610 264 Z M489 262 C489 169 427 93 329 93 C235 93 168 170 168 264 C168 357 230 433 327 433 C422 433 489 356 489 262 L489 262 Z M489 595 L489 713 L366 713 L366 595 L489 595 Z M290 595 L290 713 L167 713 L167 595 L290 595 Z " />
<glyph glyph-name="oslash" unicode="&#xf8;" horiz-adv-x="657" d="M610 264 C610 333 586 395 544 443 L625 534 L515 534 L480 496 C438 523 386 539 329 539 C167 539 47 414 47 262 C47 194 71 132 112 84 L32 -5 L142 -5 L176 31 C219 4 271 -12 327 -12 C490 -12 610 113 610 264 L610 264 Z M409 412 L190 172 C174 198 165 230 165 264 C165 360 230 436 327 436 C358 436 386 428 409 412 L409 412 Z M492 262 C492 167 427 90 329 90 C299 90 272 99 249 114 L467 355 C483 329 492 297 492 262 L492 262 Z " />
<glyph glyph-name="ugrave" unicode="&#xf9;" horiz-adv-x="620" d="M423 230 C423 148 374 99 304 99 C232 99 191 146 191 228 L191 528 L70 528 L70 192 C70 69 139 -11 258 -11 C340 -11 389 32 423 82 L423 0 L544 0 L544 528 L423 528 L423 230 Z M275 593 L369 593 L263 757 L153 708 L275 593 Z " />
<glyph glyph-name="uacute" unicode="&#xfa;" horiz-adv-x="620" d="M423 230 C423 148 374 99 304 99 C232 99 191 146 191 228 L191 528 L70 528 L70 192 C70 69 139 -11 258 -11 C340 -11 389 32 423 82 L423 0 L544 0 L544 528 L423 528 L423 230 Z M343 593 L465 708 L355 757 L249 593 L343 593 Z " />
<glyph glyph-name="ucircumflex" unicode="&#xfb;" horiz-adv-x="620" d="M423 230 C423 148 374 99 304 99 C232 99 191 146 191 228 L191 528 L70 528 L70 192 C70 69 139 -11 258 -11 C340 -11 389 32 423 82 L423 0 L544 0 L544 528 L423 528 L423 230 Z M309 662 L386 595 L482 595 L366 741 L254 741 L138 595 L232 595 L309 662 Z " />
<glyph glyph-name="udieresis" unicode="&#xfc;" horiz-adv-x="620" d="M423 230 C423 148 374 99 304 99 C232 99 191 146 191 228 L191 528 L70 528 L70 192 C70 69 139 -11 258 -11 C340 -11 389 32 423 82 L423 0 L544 0 L544 528 L423 528 L423 230 Z M471 595 L471 713 L348 713 L348 595 L471 595 Z M272 595 L272 713 L149 713 L149 595 L272 595 Z " />
<glyph glyph-name="yacute" unicode="&#xfd;" horiz-adv-x="596" d="M568 528 L442 528 L305 136 L155 528 L26 528 L246 0 C226 -46 205 -61 171 -61 C146 -61 122 -53 100 -41 L59 -131 C96 -151 133 -163 184 -163 C269 -163 316 -123 358 -15 L568 528 Z M338 593 L460 708 L350 757 L244 593 L338 593 Z " />
<glyph glyph-name="thorn" unicode="&#xfe;" horiz-adv-x="670" d="M622 264 C622 440 501 539 376 539 C291 539 236 495 197 440 L197 730 L76 730 L76 -160 L197 -160 L197 82 C234 33 289 -11 376 -11 C502 -11 622 88 622 264 L622 264 Z M499 264 C499 159 431 94 348 94 C266 94 194 161 194 264 C194 367 266 434 348 434 C430 434 499 368 499 264 L499 264 Z " />
<glyph glyph-name="ydieresis" unicode="&#xff;" horiz-adv-x="596" d="M568 528 L442 528 L305 136 L155 528 L26 528 L246 0 C226 -46 205 -61 171 -61 C146 -61 122 -53 100 -41 L59 -131 C96 -151 133 -163 184 -163 C269 -163 316 -123 358 -15 L568 528 Z M459 595 L459 713 L336 713 L336 595 L459 595 Z M260 595 L260 713 L137 713 L137 595 L260 595 Z " />
<glyph glyph-name="dotlessi" unicode="&#x131;" horiz-adv-x="286" d="M204 0 L204 528 L83 528 L83 0 L204 0 Z " />
<glyph glyph-name="Lslash" unicode="&#x141;" horiz-adv-x="649" d="M611 0 L611 112 L242 112 L242 315 L444 376 L444 490 L242 430 L242 700 L120 700 L120 393 L45 370 L45 256 L120 278 L120 0 L611 0 Z " />
<glyph glyph-name="lslash" unicode="&#x142;" horiz-adv-x="346" d="M233 332 L309 355 L309 470 L233 447 L233 730 L113 730 L113 412 L37 389 L37 274 L113 297 L113 0 L233 0 L233 332 Z " />
<glyph glyph-name="OE" unicode="&#x152;" horiz-adv-x="1098" d="M1042 0 L1042 110 L663 110 L663 298 L992 298 L992 408 L663 408 L663 590 L1037 590 L1037 700 L431 700 C211 700 59 547 59 349 C59 151 211 0 431 0 L1042 0 Z M540 112 L431 112 C284 112 188 213 188 351 C188 489 284 588 431 588 L540 588 L540 112 Z " />
<glyph glyph-name="oe" unicode="&#x153;" horiz-adv-x="1040" d="M539 102 C583 31 661 -12 754 -12 C850 -12 919 27 970 87 L899 150 C857 109 815 87 755 87 C678 87 617 135 603 221 L991 221 C992 233 993 243 993 254 C993 407 908 539 743 539 C655 539 583 494 541 426 C495 494 418 539 326 539 C169 539 47 414 47 262 C47 111 169 -12 321 -12 C414 -12 493 34 539 102 L539 102 Z M602 301 C613 383 665 440 740 440 C820 440 865 379 874 301 L602 301 Z M482 262 C482 169 421 93 326 93 C234 93 168 170 168 264 C168 357 229 433 324 433 C416 433 482 356 482 262 L482 262 Z " />
<glyph glyph-name="Scaron" unicode="&#x160;" horiz-adv-x="640" d="M194 517 C194 564 236 601 308 601 C372 601 435 576 498 529 L564 622 C493 679 412 710 310 710 C171 710 71 628 71 506 C71 376 155 332 304 296 C434 266 462 239 462 188 C462 134 414 99 338 99 C251 99 184 132 117 190 L43 102 C127 27 228 -10 335 -10 C482 -10 585 68 585 200 C585 317 508 370 360 406 C226 438 194 462 194 517 L194 517 Z M321 838 L244 904 L148 904 L264 758 L376 758 L492 904 L398 904 L321 838 Z " />
<glyph glyph-name="scaron" unicode="&#x161;" horiz-adv-x="500" d="M453 156 L453 158 C453 253 366 288 289 312 C227 332 170 348 170 386 L170 388 C170 419 197 441 244 441 C288 441 342 422 393 391 L441 477 C385 514 313 537 247 537 C142 537 59 476 59 376 L59 374 C59 273 146 241 224 219 C286 200 342 186 342 145 L342 143 C342 108 312 86 260 86 C206 86 144 108 87 151 L33 69 C99 17 182 -10 257 -10 C367 -10 453 45 453 156 L453 156 Z M255 675 L178 741 L82 741 L198 595 L310 595 L426 741 L332 741 L255 675 Z " />
<glyph glyph-name="Ydieresis" unicode="&#x178;" horiz-adv-x="716" d="M420 279 L698 700 L557 700 L359 390 L163 700 L18 700 L296 276 L296 0 L420 0 L420 279 Z M519 757 L519 875 L396 875 L396 757 L519 757 Z M320 757 L320 875 L197 875 L197 757 L320 757 Z " />
<glyph glyph-name="Zcaron" unicode="&#x17d;" horiz-adv-x="702" d="M478 591 L65 91 L65 0 L638 0 L638 109 L225 109 L638 609 L638 700 L78 700 L78 591 L478 591 Z M356 838 L279 904 L183 904 L299 758 L411 758 L527 904 L433 904 L356 838 Z " />
<glyph glyph-name="zcaron" unicode="&#x17e;" horiz-adv-x="560" d="M357 429 L52 83 L52 0 L511 0 L511 99 L206 99 L511 445 L511 528 L63 528 L63 429 L357 429 Z M289 675 L212 741 L116 741 L232 595 L344 595 L460 741 L366 741 L289 675 Z " />
<glyph glyph-name="florin" unicode="&#x192;" horiz-adv-x="527" d="M491 592 L491 694 C466 701 437 705 399 705 C291 705 243 651 224 550 L206 457 L109 457 L109 356 L189 356 L154 163 C146 115 123 96 81 96 C67 96 55 97 41 99 L41 0 C57 -4 73 -5 97 -5 C200 -5 254 38 273 145 L311 356 L456 356 L456 457 L329 457 L341 525 C351 579 375 602 422 602 C443 602 467 598 491 592 L491 592 Z " />
<glyph glyph-name="circumflex" unicode="&#x2c6;" horiz-adv-x="500" d="M249 662 L326 595 L422 595 L306 741 L194 741 L78 595 L172 595 L249 662 Z " />
<glyph glyph-name="caron" unicode="&#x2c7;" horiz-adv-x="500" d="M251 675 L174 741 L78 741 L194 595 L306 595 L422 741 L328 741 L251 675 Z " />
<glyph glyph-name="breve" unicode="&#x2d8;" horiz-adv-x="500" d="M421 741 L338 741 C326 703 301 678 250 678 C199 678 174 703 162 741 L79 741 C86 647 154 593 250 593 C346 593 414 647 421 741 L421 741 Z " />
<glyph glyph-name="dotaccent" unicode="&#x2d9;" horiz-adv-x="500" d="M313 595 L313 714 L187 714 L187 595 L313 595 Z " />
<glyph glyph-name="ring" unicode="&#x2da;" horiz-adv-x="500" d="M364 703 C364 763 310 813 250 813 C190 813 136 763 136 703 C136 643 190 593 250 593 C310 593 364 643 364 703 L364 703 Z M312 703 C312 669 284 641 250 641 C216 641 188 669 188 703 C188 737 216 765 250 765 C284 765 312 737 312 703 L312 703 Z " />
<glyph glyph-name="ogonek" unicode="&#x2db;" horiz-adv-x="500" d="M277 10 L191 10 C183 -9 176 -33 176 -56 C176 -130 243 -172 366 -164 L366 -108 C298 -104 271 -79 271 -34 C271 -20 273 -5 277 10 L277 10 Z " />
<glyph glyph-name="tilde" unicode="&#x2dc;" horiz-adv-x="500" d="M439 719 L372 740 C357 706 346 690 317 690 C281 690 228 730 173 730 C112 730 83 686 61 605 L128 585 C143 619 154 635 183 635 C219 635 272 595 327 595 C388 595 417 639 439 719 L439 719 Z " />
<glyph glyph-name="hungarumlaut" unicode="&#x2dd;" horiz-adv-x="500" d="M328 595 L450 710 L344 759 L238 595 L328 595 Z M146 595 L266 710 L160 759 L56 595 L146 595 Z " />
<glyph glyph-name="pi" unicode="&#x3c0;" horiz-adv-x="830" d="M777 351 C777 549 619 712 416 712 C213 712 53 547 53 349 C53 151 211 -12 414 -12 C617 -12 777 153 777 351 L777 351 Z M739 351 C739 171 599 24 414 24 C230 24 91 169 91 349 C91 529 231 676 416 676 C600 676 739 531 739 351 L739 351 Z M586 418 C586 497 529 547 439 547 L286 547 L286 167 L360 167 L360 287 L431 287 C515 287 586 331 586 418 L586 418 Z M511 417 C511 378 481 352 433 352 L360 352 L360 481 L433 481 C481 481 511 459 511 417 L511 417 Z " />
<glyph glyph-name="endash" unicode="&#x2013;" horiz-adv-x="528" d="M472 249 L472 364 L56 364 L56 249 L472 249 Z " />
<glyph glyph-name="emdash" unicode="&#x2014;" horiz-adv-x="898" d="M842 249 L842 364 L56 364 L56 249 L842 249 Z " />
<glyph glyph-name="quoteleft" unicode="&#x2018;" horiz-adv-x="269" d="M230 653 L217 705 C116 697 63 650 63 539 L63 422 L196 422 L196 560 L145 560 C140 611 169 642 230 653 L230 653 Z " />
<glyph glyph-name="quoteright" unicode="&#x2019;" horiz-adv-x="269" d="M39 469 L52 417 C153 425 206 472 206 583 L206 700 L73 700 L73 563 L124 563 C129 511 100 480 39 469 L39 469 Z " />
<glyph glyph-name="quotesinglbase" unicode="&#x201a;" horiz-adv-x="269" d="M34 -94 L47 -145 C148 -137 201 -90 201 21 L201 137 L68 137 L68 0 L119 0 C124 -51 95 -82 34 -94 L34 -94 Z " />
<glyph glyph-name="quotedblleft" unicode="&#x201c;" horiz-adv-x="501" d="M462 653 L449 705 C348 697 295 650 295 539 L295 422 L428 422 L428 560 L376 560 C372 611 401 642 462 653 L462 653 Z M230 653 L217 705 C116 697 63 650 63 539 L63 422 L196 422 L196 560 L145 560 C140 611 169 642 230 653 L230 653 Z " />
<glyph glyph-name="quotedblright" unicode="&#x201d;" horiz-adv-x="501" d="M271 469 L284 417 C385 425 438 472 438 583 L438 700 L305 700 L305 563 L356 563 C361 511 332 480 271 469 L271 469 Z M39 469 L52 417 C153 425 206 472 206 583 L206 700 L73 700 L73 563 L124 563 C129 511 100 480 39 469 L39 469 Z " />
<glyph glyph-name="quotedblbase" unicode="&#x201e;" horiz-adv-x="501" d="M266 -94 L279 -145 C380 -137 433 -90 433 21 L433 137 L300 137 L300 0 L351 0 C356 -51 327 -82 266 -94 L266 -94 Z M34 -94 L47 -145 C148 -137 201 -90 201 21 L201 137 L68 137 L68 0 L119 0 C124 -51 95 -82 34 -94 L34 -94 Z " />
<glyph glyph-name="dagger" unicode="&#x2020;" horiz-adv-x="410" d="M232 513 L354 504 L354 575 L233 566 L245 700 L165 700 L177 566 L56 575 L56 504 L178 513 L169 238 L241 238 L232 513 Z " />
<glyph glyph-name="daggerdbl" unicode="&#x2021;" horiz-adv-x="430" d="M364 125 L364 196 L243 187 L251 350 L243 513 L364 504 L364 575 L243 566 L255 700 L175 700 L187 566 L66 575 L66 504 L187 513 L179 350 L187 187 L66 196 L66 125 L187 134 L175 0 L255 0 L243 134 L364 125 Z " />
<glyph glyph-name="bullet" unicode="&#x2022;" horiz-adv-x="491" d="M387 352 C387 430 323 493 245 493 C168 493 104 430 104 352 C104 274 168 211 245 211 C323 211 387 274 387 352 L387 352 Z " />
<glyph glyph-name="ellipsis" unicode="&#x2026;" horiz-adv-x="792" d="M724 0 L724 134 L594 134 L594 0 L724 0 Z M461 0 L461 134 L331 134 L331 0 L461 0 Z M198 0 L198 134 L68 134 L68 0 L198 0 Z " />
<glyph glyph-name="perthousand" unicode="&#x2030;" horiz-adv-x="1228" d="M378 530 C378 627 312 708 214 708 C115 708 48 626 48 528 C48 431 114 350 212 350 C311 350 378 432 378 530 L378 530 Z M631 700 L119 0 L218 0 L730 700 L631 700 Z M1180 172 C1180 269 1114 350 1016 350 C916 350 850 268 850 170 C850 73 915 -8 1014 -8 C1113 -8 1180 74 1180 172 L1180 172 Z M801 172 C801 269 735 350 637 350 C538 350 471 268 471 170 C471 73 537 -8 635 -8 C734 -8 801 74 801 172 L801 172 Z M289 528 C289 472 261 427 214 427 C169 427 137 472 137 530 C137 586 165 631 212 631 C257 631 289 586 289 528 L289 528 Z M1091 170 C1091 114 1063 69 1016 69 C971 69 939 114 939 172 C939 228 967 273 1014 273 C1059 273 1091 228 1091 170 L1091 170 Z M712 170 C712 114 684 69 637 69 C592 69 560 114 560 172 C560 228 588 273 635 273 C680 273 712 228 712 170 L712 170 Z " />
<glyph glyph-name="guilsinglleft" unicode="&#x2039;" horiz-adv-x="354" d="M210 488 L44 268 L44 260 L210 41 L302 88 L170 265 L302 441 L210 488 Z " />
<glyph glyph-name="guilsinglright" unicode="&#x203a;" horiz-adv-x="354" d="M145 41 L310 260 L310 268 L145 488 L53 440 L185 263 L53 87 L145 41 Z " />
<glyph glyph-name="fraction" unicode="&#x2044;" horiz-adv-x="459" d="M397 758 L-70 -98 L40 -98 L507 758 L397 758 Z " />
<glyph glyph-name="trademark" unicode="&#x2122;" horiz-adv-x="690" d="M594 611 L594 392 L651 392 L651 700 L590 700 L497 554 L404 700 L341 700 L341 392 L398 392 L398 611 L493 463 L499 463 L594 611 Z M180 646 L275 646 L275 700 L26 700 L26 646 L121 646 L121 392 L180 392 L180 646 Z " />
<glyph glyph-name="Omega" unicode="&#x2126;" horiz-adv-x="752" d="M598 524 L598 553 C598 608 622 633 668 633 C694 633 715 628 739 620 L739 722 C712 730 683 736 640 736 C537 736 479 679 479 563 L479 525 L412 525 L412 424 L479 424 L479 0 L600 0 L600 424 L738 424 L738 524 L598 524 Z M222 524 L222 553 C222 608 246 633 292 633 C318 633 339 628 363 620 L363 722 C336 730 307 736 265 736 C161 736 103 679 103 563 L103 525 L36 525 L36 424 L103 424 L103 0 L224 0 L224 424 L362 424 L362 524 L222 524 Z " />
<glyph glyph-name="radical" unicode="&#x221a;" horiz-adv-x="1038" d="M598 524 L598 553 C598 608 622 633 668 633 C694 633 715 628 739 620 L739 722 C712 730 683 736 640 736 C537 736 479 679 479 563 L479 525 L412 525 L412 424 L479 424 L479 0 L600 0 L600 424 L738 424 L738 524 L598 524 Z M222 524 L222 553 C222 608 246 633 292 633 C318 633 339 628 363 620 L363 722 C336 730 307 736 265 736 C161 736 103 679 103 563 L103 525 L36 525 L36 424 L103 424 L103 0 L224 0 L224 424 L362 424 L362 524 L222 524 Z M956 0 L956 730 L834 730 L834 0 L956 0 Z " />
<glyph glyph-name="approxequal" unicode="&#x2248;" horiz-adv-x="1038" d="M960 609 L960 724 L830 724 L830 609 L960 609 Z M598 524 L598 553 C598 608 622 633 668 633 C694 633 715 628 739 620 L739 722 C712 730 683 736 640 736 C537 736 479 679 479 563 L479 525 L412 525 L412 424 L479 424 L479 0 L600 0 L600 424 L738 424 L738 524 L598 524 Z M222 524 L222 553 C222 608 246 633 292 633 C318 633 339 628 363 620 L363 722 C336 730 307 736 265 736 C161 736 103 679 103 563 L103 525 L36 525 L36 424 L103 424 L103 0 L224 0 L224 424 L362 424 L362 524 L222 524 Z M956 0 L956 528 L834 528 L834 0 L956 0 Z " />
<glyph glyph-name="fi" unicode="&#xfb01;" horiz-adv-x="662" d="M584 609 L584 724 L454 724 L454 609 L584 609 Z M222 524 L222 553 C222 608 246 633 292 633 C318 633 339 628 363 620 L363 722 C336 730 307 736 265 736 C161 736 103 679 103 563 L103 525 L36 525 L36 424 L103 424 L103 0 L224 0 L224 424 L362 424 L362 524 L222 524 Z M580 0 L580 528 L459 528 L459 0 L580 0 Z " />
<glyph glyph-name="fl" unicode="&#xfb02;" horiz-adv-x="662" d="M222 524 L222 553 C222 608 246 633 292 633 C318 633 339 628 363 620 L363 722 C336 730 307 736 265 736 C161 736 103 679 103 563 L103 525 L36 525 L36 424 L103 424 L103 0 L224 0 L224 424 L362 424 L362 524 L222 524 Z M580 0 L580 730 L459 730 L459 0 L580 0 Z " />
</font>
</svg>
