<?xml version="1.0" encoding="UTF-8"?>
<svg xmlns="http://www.w3.org/2000/svg" xmlns:xlink="http://www.w3.org/1999/xlink" version="1.2" >
<font id="Gotham Light Italic">
<font-face  font-family="Gotham" units-per-em="1000" ascent="799.805" descent="-199.951" font-style="normal" font-weight="300" font-stretch="normal" slope="-12" cap-height="750" x-height="500" underline-position="-123" underline-thickness="20" />
<missing-glyph  horiz-adv-x="500" d="" />
<glyph glyph-name="&amp;#x0;" d="" />
<glyph glyph-name="&amp;#x8;" unicode="&#x8;" d="" />
<glyph glyph-name="&amp;#x1d;" unicode="&#x1d;" d="" />
<glyph glyph-name="CR" unicode="&#xd;" horiz-adv-x="250" d="" />
<glyph glyph-name="space" unicode="&#x20;" horiz-adv-x="300" d="" />
<glyph glyph-name="exclam" unicode="&#x21;" horiz-adv-x="251" d="M92 183 L120 183 L255 630 L274 700 L216 700 L197 630 L92 183 Z M24 0 L90 0 L113 85 L47 85 L24 0 Z " />
<glyph glyph-name="quotedbl" unicode="&#x22;" horiz-adv-x="410" d="M281 446 L310 446 L437 695 L437 700 L374 700 L281 446 Z M101 446 L130 446 L257 695 L257 700 L194 700 L101 446 Z " />
<glyph glyph-name="numbersign" unicode="&#x23;" horiz-adv-x="678" d="M91 0 L139 0 L204 187 L411 187 L346 0 L394 0 L459 187 L596 187 L608 234 L475 234 L558 470 L683 470 L695 517 L574 517 L638 700 L590 700 L526 517 L319 517 L383 700 L335 700 L271 517 L134 517 L122 470 L255 470 L172 234 L47 234 L35 187 L156 187 L91 0 Z M221 234 L303 470 L510 470 L427 234 L221 234 Z " />
<glyph glyph-name="dollar" unicode="&#x24;" horiz-adv-x="618" d="M190 -98 L239 -98 L265 0 C272 0 278 0 284 0 C436 0 539 84 539 198 C539 280 487 330 366 374 L439 646 C503 633 553 605 592 566 L628 602 C585 644 529 677 456 691 L474 758 L425 758 L409 698 C395 699 380 700 365 700 C233 700 133 620 133 513 C133 431 184 387 312 339 L235 51 C150 63 84 100 37 155 L-1 122 C49 64 126 19 218 5 L190 -98 Z M325 389 C226 426 186 458 186 518 C186 603 279 667 396 651 L325 389 Z M278 47 L353 325 C453 286 486 248 486 193 C486 103 398 43 278 47 L278 47 Z " />
<glyph glyph-name="percent" unicode="&#x25;" horiz-adv-x="821" d="M230 346 C337 346 421 453 421 565 C421 644 365 708 284 708 C177 708 93 601 93 489 C93 410 149 346 230 346 L230 346 Z M65 0 L125 0 L807 700 L747 700 L65 0 Z M588 -7 C695 -7 779 100 779 212 C779 291 723 355 642 355 C535 355 451 248 451 136 C451 57 507 -7 588 -7 L588 -7 Z M234 389 C175 389 142 431 142 494 C142 576 203 665 280 665 C339 665 372 623 372 560 C372 478 311 389 234 389 L234 389 Z M592 36 C533 36 500 78 500 141 C500 223 561 312 638 312 C697 312 730 270 730 207 C730 125 669 36 592 36 L592 36 Z " />
<glyph glyph-name="ampersand" unicode="&#x26;" horiz-adv-x="690" d="M572 -14 L611 12 L521 140 C564 188 605 247 648 318 L609 341 C572 276 533 219 493 174 L351 375 C525 422 577 492 577 567 C577 654 512 712 413 712 C314 712 229 637 229 536 C229 491 248 448 276 403 C114 362 31 277 31 165 C31 54 120 -10 231 -10 C337 -10 409 30 487 107 L572 -14 Z M326 411 C294 460 280 495 280 537 C280 610 341 668 411 668 C481 668 526 626 526 565 C526 510 481 451 326 411 L326 411 Z M237 36 C144 36 84 88 84 171 C84 254 150 330 301 366 L460 141 C390 72 320 36 237 36 L237 36 Z " />
<glyph glyph-name="quotesingle" unicode="&#x27;" horiz-adv-x="230" d="M101 446 L130 446 L257 695 L257 700 L194 700 L101 446 Z " />
<glyph glyph-name="parenleft" unicode="&#x28;" horiz-adv-x="430" d="M273 -140 L301 -111 C219 -26 151 69 151 219 C151 389 250 570 512 682 L495 719 C222 608 99 413 99 218 C99 57 181 -58 273 -140 L273 -140 Z " />
<glyph glyph-name="parenright" unicode="&#x29;" horiz-adv-x="430" d="M-47 -139 C226 -28 349 167 349 362 C349 523 267 638 175 720 L147 691 C229 606 297 511 297 361 C297 191 198 10 -64 -102 L-47 -139 Z " />
<glyph glyph-name="asterisk" unicode="&#x2a;" horiz-adv-x="430" d="M270 406 L294 531 L378 434 L409 464 L309 548 L438 572 L426 613 L305 571 L347 692 L306 702 L282 577 L198 674 L167 644 L267 560 L138 536 L150 495 L271 537 L229 416 L270 406 Z " />
<glyph glyph-name="plus" unicode="&#x2b;" horiz-adv-x="639" d="M256 113 L306 113 L364 328 L581 328 L594 376 L377 376 L434 591 L384 591 L327 376 L110 376 L97 328 L314 328 L256 113 Z " />
<glyph glyph-name="comma" unicode="&#x2c;" horiz-adv-x="231" d="M-32 -106 C34 -87 63 -59 83 11 L103 85 L37 85 L14 0 L41 0 C34 -38 10 -65 -39 -82 L-32 -106 Z " />
<glyph glyph-name="hyphen" unicode="&#x2d;" horiz-adv-x="409" d="M74 269 L342 269 L357 325 L89 325 L74 269 Z " />
<glyph glyph-name="period" unicode="&#x2e;" horiz-adv-x="231" d="M14 0 L80 0 L103 85 L37 85 L14 0 Z " />
<glyph glyph-name="slash" unicode="&#x2f;" horiz-adv-x="500" d="M-121 -128 L-67 -128 L649 798 L595 798 L-121 -128 Z " />
<glyph glyph-name="zero" unicode="0" horiz-adv-x="709" d="M317 -12 C524 -12 677 222 677 450 C677 600 596 712 442 712 C235 712 82 478 82 250 C82 100 163 -12 317 -12 L317 -12 Z M320 35 C198 35 136 131 136 250 C136 455 275 665 439 665 C561 665 623 569 623 450 C623 245 484 35 320 35 L320 35 Z " />
<glyph glyph-name="one" unicode="1" horiz-adv-x="334" d="M93 0 L145 0 L334 705 L293 705 L117 646 L119 599 L266 645 L93 0 Z " />
<glyph glyph-name="two" unicode="2" horiz-adv-x="588" d="M-19 0 L469 0 L482 50 L78 50 L440 330 C530 400 585 460 585 543 C585 642 502 710 383 710 C281 710 205 658 144 595 L181 563 C231 616 297 663 381 663 C476 663 531 611 531 542 C531 477 489 427 408 364 L-10 39 L-19 0 Z " />
<glyph glyph-name="three" unicode="3" horiz-adv-x="606" d="M250 -12 C397 -12 523 82 523 215 C523 324 427 381 316 386 L623 663 L633 700 L183 700 L169 651 L544 651 L232 370 L243 344 L272 344 C390 344 468 301 468 211 C468 108 376 35 253 35 C153 35 90 78 53 149 L10 125 C49 42 131 -12 250 -12 L250 -12 Z " />
<glyph glyph-name="four" unicode="4" horiz-adv-x="645" d="M369 0 L420 0 L466 171 L580 171 L592 216 L478 216 L609 705 L561 705 L28 210 L36 171 L415 171 L369 0 Z M99 216 L536 622 L427 216 L99 216 Z " />
<glyph glyph-name="five" unicode="5" horiz-adv-x="601" d="M252 -12 C422 -12 535 100 535 231 C535 351 448 426 313 426 C272 426 206 410 176 393 L262 650 L594 650 L608 700 L230 700 L119 361 L152 335 C208 366 265 379 313 379 C408 379 481 325 481 229 C481 127 392 33 255 33 C164 33 103 75 59 140 L16 113 C61 45 132 -12 252 -12 L252 -12 Z " />
<glyph glyph-name="six" unicode="6" horiz-adv-x="640" d="M317 -12 C471 -12 583 101 583 231 C583 338 501 435 359 435 C257 435 183 380 141 317 C148 416 200 520 263 583 C318 638 378 665 444 665 C519 665 572 632 613 586 L651 619 C605 674 540 712 447 712 C363 712 289 678 223 612 C143 532 83 400 83 245 C83 155 108 95 151 52 C190 13 249 -12 317 -12 L317 -12 Z M320 34 C269 34 223 48 188 83 C159 112 142 150 142 201 C142 294 227 387 356 387 C475 387 529 305 529 231 C529 126 442 34 320 34 L320 34 Z " />
<glyph glyph-name="seven" unicode="7" horiz-adv-x="578" d="M80 0 L140 0 L615 662 L626 700 L162 700 L148 650 L551 650 L80 0 Z " />
<glyph glyph-name="eight" unicode="8" horiz-adv-x="641" d="M295 -10 C451 -10 570 74 570 191 C570 271 508 327 447 349 C545 367 628 433 628 531 C628 636 531 710 396 710 C257 710 147 629 147 520 C147 445 196 392 254 371 C135 353 40 286 40 173 C40 73 141 -10 295 -10 L295 -10 Z M375 380 C272 380 201 439 201 516 C201 599 278 663 396 663 C501 663 574 607 574 528 C574 455 507 380 375 380 L375 380 Z M298 37 C174 37 94 96 94 179 C94 263 177 337 314 337 C439 337 516 269 516 193 C516 102 430 37 298 37 L298 37 Z " />
<glyph glyph-name="nine" unicode="9" horiz-adv-x="640" d="M243 -13 C327 -13 400 21 466 87 C546 167 606 299 606 454 C606 544 581 604 538 647 C499 686 441 711 373 711 C219 711 106 596 105 464 C104 355 186 256 328 256 C439 256 509 321 548 379 C540 280 490 179 426 116 C371 61 312 34 246 34 C171 34 117 67 71 119 L33 86 C82 27 154 -13 243 -13 L243 -13 Z M335 304 C211 304 158 387 159 464 C160 571 247 665 369 665 C420 665 466 650 501 615 C531 585 547 547 547 500 C547 401 459 304 335 304 L335 304 Z " />
<glyph glyph-name="colon" unicode="&#x3a;" horiz-adv-x="241" d="M133 425 L199 425 L222 510 L156 510 L133 425 Z M19 0 L85 0 L108 85 L42 85 L19 0 Z " />
<glyph glyph-name="semicolon" unicode="&#x3b;" horiz-adv-x="241" d="M133 425 L199 425 L222 510 L156 510 L133 425 Z M-27 -106 C39 -87 68 -59 88 11 L108 85 L42 85 L19 0 L46 0 C39 -38 15 -65 -34 -82 L-27 -106 Z " />
<glyph glyph-name="less" unicode="&#x3c;" horiz-adv-x="640" d="M478 91 L492 140 L145 348 L603 554 L618 613 L89 372 L78 332 L478 91 Z " />
<glyph glyph-name="equal" unicode="&#x3d;" horiz-adv-x="640" d="M142 439 L596 439 L609 490 L155 490 L142 439 Z M81 214 L535 214 L549 265 L95 265 L81 214 Z " />
<glyph glyph-name="greater" unicode="&#x3e;" horiz-adv-x="640" d="M51 91 L580 332 L591 372 L191 613 L177 564 L524 356 L66 150 L51 91 Z " />
<glyph glyph-name="question" unicode="&#x3f;" horiz-adv-x="534" d="M194 183 L226 183 L269 308 C411 328 534 401 534 534 C534 635 457 709 333 709 C231 709 155 662 101 608 L133 574 C178 619 248 662 329 662 C413 662 481 617 481 533 C481 426 377 361 231 350 L224 345 L194 183 Z M128 0 L194 0 L217 85 L151 85 L128 0 Z " />
<glyph glyph-name="at" unicode="&#x40;" horiz-adv-x="980" d="M486 -161 C567 -161 635 -146 707 -113 L693 -84 C625 -115 561 -129 486 -129 C253 -129 101 15 101 231 C101 471 307 680 557 680 C781 680 913 538 913 359 C913 188 814 110 747 110 C678 110 656 168 677 237 L752 479 L705 492 L675 394 C655 450 606 502 521 502 C400 502 278 383 278 237 C278 134 348 71 435 71 C506 71 568 105 621 173 C630 112 671 73 742 73 C831 73 948 169 948 359 C948 556 805 712 557 712 C287 712 66 489 66 231 C66 -5 231 -161 486 -161 L486 -161 Z M445 118 C381 118 334 162 334 239 C334 356 419 455 523 455 C602 455 651 400 651 325 C651 220 546 118 445 118 L445 118 Z " />
<glyph glyph-name="A" unicode="A" horiz-adv-x="759" d="M-34 0 L24 0 L166 196 L579 196 L615 0 L668 0 L531 705 L481 705 L-34 0 Z M200 243 L494 648 L569 243 L200 243 Z " />
<glyph glyph-name="B" unicode="B" horiz-adv-x="717" d="M36 0 L351 0 C531 0 642 86 642 206 C642 288 581 333 508 352 C610 372 693 438 693 541 C693 641 610 700 483 700 L224 700 L36 0 Z M189 377 L263 652 L478 652 C578 652 639 613 639 536 C639 442 547 377 405 377 L189 377 Z M101 48 L176 329 L404 329 C510 329 589 288 589 206 C589 107 498 48 354 48 L101 48 Z " />
<glyph glyph-name="C" unicode="C" horiz-adv-x="738" d="M378 -13 C507 -13 591 41 655 108 L620 140 C556 76 487 35 383 35 C246 35 146 126 146 273 C146 471 305 665 507 665 C617 665 677 615 722 537 L767 561 C724 647 638 712 510 712 C279 712 92 498 92 271 C92 94 223 -13 378 -13 L378 -13 Z " />
<glyph glyph-name="D" unicode="D" horiz-adv-x="771" d="M36 0 L265 0 C409 0 537 51 621 135 C691 205 730 299 730 406 C730 492 702 557 653 606 C590 669 490 700 381 700 L224 700 L36 0 Z M101 48 L263 652 L378 652 C477 652 559 625 611 573 C653 532 676 474 676 402 C676 309 642 228 582 168 C505 91 398 48 272 48 L101 48 Z " />
<glyph glyph-name="E" unicode="E" horiz-adv-x="649" d="M36 0 L534 0 L547 48 L101 48 L176 329 L572 329 L585 377 L189 377 L263 652 L704 652 L717 700 L224 700 L36 0 Z " />
<glyph glyph-name="F" unicode="F" horiz-adv-x="656" d="M36 0 L88 0 L173 317 L569 317 L582 365 L186 365 L263 652 L704 652 L717 700 L224 700 L36 0 Z " />
<glyph glyph-name="G" unicode="G" horiz-adv-x="786" d="M396 -13 C491 -13 568 13 643 62 L729 363 L445 363 L432 315 L665 315 L601 91 C551 58 483 34 399 34 C250 34 148 128 148 284 C148 473 305 665 516 665 C639 665 695 616 736 555 L777 582 C735 648 664 712 521 712 C277 712 94 498 94 282 C94 102 222 -13 396 -13 L396 -13 Z " />
<glyph glyph-name="H" unicode="H" horiz-adv-x="756" d="M36 0 L88 0 L176 328 L619 328 L531 0 L583 0 L771 700 L719 700 L632 376 L189 376 L276 700 L224 700 L36 0 Z " />
<glyph glyph-name="I" unicode="I" horiz-adv-x="274" d="M43 0 L95 0 L283 700 L231 700 L43 0 Z " />
<glyph glyph-name="J" unicode="J" horiz-adv-x="538" d="M196 -10 C253 -10 313 13 356 56 C400 100 428 156 449 235 L574 700 L522 700 L399 242 C381 176 357 125 321 89 C287 55 245 37 194 37 C113 37 67 82 41 167 L-5 151 C18 62 79 -10 196 -10 L196 -10 Z " />
<glyph glyph-name="K" unicode="K" horiz-adv-x="714" d="M36 0 L88 0 L135 175 L359 357 L554 0 L614 0 L402 387 L791 700 L714 700 L154 245 L276 700 L224 700 L36 0 Z " />
<glyph glyph-name="L" unicode="L" horiz-adv-x="600" d="M36 0 L499 0 L512 48 L101 48 L276 700 L224 700 L36 0 Z " />
<glyph glyph-name="M" unicode="M" horiz-adv-x="869" d="M36 0 L86 0 L249 608 L418 205 L422 205 L807 608 L644 0 L696 0 L884 700 L829 700 L437 286 L267 700 L224 700 L36 0 Z " />
<glyph glyph-name="N" unicode="N" horiz-adv-x="786" d="M36 0 L86 0 L254 626 L576 0 L614 0 L802 700 L752 700 L587 87 L272 700 L224 700 L36 0 Z " />
<glyph glyph-name="O" unicode="O" horiz-adv-x="846" d="M398 -13 C621 -13 801 192 801 411 C801 580 676 712 499 712 C276 712 96 507 96 288 C96 119 221 -13 398 -13 L398 -13 Z M398 34 C249 34 150 145 150 288 C150 481 302 665 499 665 C648 665 747 554 747 411 C747 218 595 34 398 34 L398 34 Z " />
<glyph glyph-name="P" unicode="P" horiz-adv-x="663" d="M36 0 L88 0 L159 262 L337 262 C549 262 683 353 683 512 C683 564 666 606 635 637 C593 679 526 700 442 700 L224 700 L36 0 Z M171 309 L263 652 L441 652 C510 652 563 635 595 603 C620 578 631 548 631 510 C631 382 527 309 339 309 L171 309 Z " />
<glyph glyph-name="Q" unicode="Q" horiz-adv-x="846" d="M692 -24 L730 8 L655 90 C744 170 801 289 801 411 C801 580 676 712 499 712 C276 712 96 507 96 288 C96 119 221 -13 398 -13 C480 -13 556 15 620 61 L692 -24 Z M398 34 C249 34 150 145 150 288 C150 481 302 665 499 665 C648 665 747 554 747 411 C747 303 700 198 623 126 L509 260 L471 227 L588 97 C534 58 469 34 398 34 L398 34 Z " />
<glyph glyph-name="R" unicode="R" horiz-adv-x="713" d="M36 0 L88 0 L166 290 L383 290 L533 0 L593 0 L439 295 C524 304 599 332 645 378 C684 417 707 466 707 524 C707 635 620 700 475 700 L224 700 L36 0 Z M178 337 L263 652 L473 652 C595 652 655 601 655 521 C655 476 639 439 608 408 C566 366 492 337 388 337 L178 337 Z " />
<glyph glyph-name="S" unicode="S" horiz-adv-x="638" d="M299 -10 C449 -10 559 80 559 194 C559 280 503 329 373 378 C258 422 206 456 206 521 C206 595 279 663 399 663 C486 663 556 630 607 571 L647 603 C596 665 509 710 404 710 C253 710 153 623 153 517 C153 431 210 387 353 331 C466 287 506 251 506 190 C506 102 419 37 304 37 C192 37 120 76 60 153 L20 124 C78 42 172 -10 299 -10 L299 -10 Z " />
<glyph glyph-name="T" unicode="T" horiz-adv-x="615" d="M209 0 L261 0 L436 652 L680 652 L693 700 L153 700 L140 652 L384 652 L209 0 Z " />
<glyph glyph-name="U" unicode="U" horiz-adv-x="756" d="M348 -11 C429 -11 502 20 559 77 C608 126 646 194 670 283 L782 700 L730 700 L621 294 C598 209 562 147 523 108 C475 60 414 36 352 36 C212 36 147 113 147 213 C147 243 151 273 156 293 L264 700 L212 700 L110 317 C101 282 96 247 96 209 C96 84 180 -11 348 -11 L348 -11 Z " />
<glyph glyph-name="V" unicode="V" horiz-adv-x="714" d="M259 -5 L305 -5 L800 700 L741 700 L295 56 L196 700 L142 700 L259 -5 Z " />
<glyph glyph-name="W" unicode="W" horiz-adv-x="1074" d="M215 -5 L257 -5 L625 603 L667 -5 L709 -5 L1152 700 L1094 700 L707 77 L669 702 L629 702 L257 77 L204 700 L150 700 L215 -5 Z " />
<glyph glyph-name="X" unicode="X" horiz-adv-x="692" d="M-23 0 L44 0 L368 323 L541 0 L597 0 L405 353 L757 700 L690 700 L380 392 L213 700 L157 700 L343 362 L-23 0 Z " />
<glyph glyph-name="Y" unicode="Y" horiz-adv-x="668" d="M234 0 L286 0 L358 271 L779 700 L709 700 L345 324 L184 700 L127 700 L310 284 L234 0 Z " />
<glyph glyph-name="Z" unicode="Z" horiz-adv-x="662" d="M-19 0 L534 0 L547 47 L75 47 L711 671 L719 700 L186 700 L173 653 L625 653 L-11 29 L-19 0 Z " />
<glyph glyph-name="bracketleft" unicode="&#x5b;" horiz-adv-x="430" d="M16 -130 L289 -130 L299 -92 L72 -92 L274 662 L501 662 L512 700 L239 700 L16 -130 Z " />
<glyph glyph-name="backslash" unicode="&#x5c;" horiz-adv-x="500" d="M368 -128 L412 -128 L191 798 L147 798 L368 -128 Z " />
<glyph glyph-name="bracketright" unicode="&#x5d;" horiz-adv-x="430" d="M-67 -130 L206 -130 L429 700 L156 700 L146 662 L373 662 L171 -92 L-56 -92 L-67 -130 Z " />
<glyph glyph-name="asciicircum" unicode="&#x5e;" horiz-adv-x="500" d="M129 493 L186 493 L359 660 L442 493 L489 493 L387 703 L343 703 L129 493 Z " />
<glyph glyph-name="underscore" unicode="&#x5f;" horiz-adv-x="600" d="M-114 -160 L491 -160 L503 -116 L-102 -116 L-114 -160 Z " />
<glyph glyph-name="grave" unicode="&#x60;" horiz-adv-x="500" d="M368 595 L403 595 L351 728 L289 698 L368 595 Z " />
<glyph glyph-name="a" unicode="a" horiz-adv-x="571" d="M190 -12 C279 -12 346 30 395 88 L372 0 L420 0 L498 292 C504 315 508 340 508 359 C508 457 435 518 310 518 C247 518 199 507 149 489 L158 445 C207 462 250 472 306 472 C406 472 460 429 460 352 C460 338 457 316 453 301 L449 287 C398 301 326 316 253 316 C119 316 23 244 23 131 C23 36 105 -12 190 -12 L190 -12 Z M199 33 C123 33 75 74 75 137 C75 216 144 272 246 272 C321 272 387 261 439 248 L427 203 C399 100 295 33 199 33 L199 33 Z " />
<glyph glyph-name="b" unicode="b" horiz-adv-x="654" d="M312 -13 C464 -13 600 126 600 307 C600 433 513 522 395 522 C304 522 234 471 183 410 L270 730 L221 730 L25 0 L74 0 L109 130 C135 57 198 -13 312 -13 L312 -13 Z M310 33 C205 33 134 113 134 211 C134 347 262 476 389 476 C482 476 547 406 547 301 C547 160 448 33 310 33 L310 33 Z " />
<glyph glyph-name="c" unicode="c" horiz-adv-x="563" d="M272 -12 C356 -12 421 25 473 75 L440 107 C393 63 341 34 275 34 C186 34 103 96 103 211 C103 351 217 476 347 476 C432 476 478 430 509 376 L550 399 C519 463 454 522 350 522 C189 522 50 375 50 208 C50 68 160 -12 272 -12 L272 -12 Z " />
<glyph glyph-name="d" unicode="d" horiz-adv-x="654" d="M259 -13 C350 -13 419 38 470 99 L444 0 L493 0 L688 730 L639 730 L545 379 C519 452 456 522 342 522 C190 522 54 383 54 202 C54 76 141 -13 259 -13 L259 -13 Z M265 33 C172 33 107 103 107 208 C107 349 206 476 344 476 C449 476 520 396 520 298 C520 162 392 33 265 33 L265 33 Z " />
<glyph glyph-name="e" unicode="e" horiz-adv-x="583" d="M105 238 L524 238 C533 264 538 293 538 327 C538 432 473 522 345 522 C179 522 50 361 50 202 C50 76 142 -12 272 -12 C364 -12 422 23 475 67 L446 102 C397 62 349 34 272 34 C172 34 103 101 103 204 C103 215 104 227 105 238 L105 238 Z M114 282 C143 387 230 477 344 477 C443 477 488 406 488 324 C488 305 486 291 484 282 L114 282 Z " />
<glyph glyph-name="f" unicode="f" horiz-adv-x="362" d="M55 0 L104 0 L229 465 L413 465 L425 510 L241 510 L258 573 C278 652 320 686 373 686 C406 686 431 678 465 662 L477 706 C449 721 413 730 375 730 C294 730 238 682 212 584 L192 510 L118 510 L106 465 L180 465 L55 0 Z " />
<glyph glyph-name="g" unicode="g" horiz-adv-x="654" d="M236 -162 C321 -162 383 -137 431 -89 C466 -54 492 -7 511 63 L630 510 L581 510 L548 386 C519 453 467 522 349 522 C205 522 60 406 60 236 C60 112 164 38 273 38 C365 38 432 85 483 139 L465 75 C449 18 429 -25 395 -59 C362 -92 309 -116 238 -116 C155 -116 85 -82 31 -31 L-5 -67 C56 -125 146 -162 236 -162 L236 -162 Z M282 84 C196 84 113 137 113 239 C113 379 228 475 347 475 C459 475 526 393 526 312 C526 197 410 84 282 84 L282 84 Z " />
<glyph glyph-name="h" unicode="h" horiz-adv-x="609" d="M25 0 L74 0 L151 288 C181 399 277 478 364 478 C445 478 495 431 495 355 C495 336 492 311 487 292 L409 0 L458 0 L534 288 C540 312 545 338 545 360 C545 458 479 522 378 522 C292 522 235 475 185 415 L270 730 L221 730 L25 0 Z " />
<glyph glyph-name="i" unicode="i" horiz-adv-x="250" d="M199 643 L260 643 L278 710 L217 710 L199 643 Z M32 0 L81 0 L218 510 L169 510 L32 0 Z " />
<glyph glyph-name="j" unicode="j" horiz-adv-x="249" d="M199 643 L260 643 L278 710 L217 710 L199 643 Z M-52 -163 C5 -163 48 -122 67 -52 L218 510 L169 510 L19 -48 C6 -96 -22 -117 -56 -117 C-70 -117 -89 -113 -103 -109 L-115 -153 C-91 -161 -74 -163 -52 -163 L-52 -163 Z " />
<glyph glyph-name="k" unicode="k" horiz-adv-x="560" d="M25 0 L74 0 L107 124 L267 252 L403 0 L460 0 L308 282 L592 510 L521 510 L125 189 L270 730 L221 730 L25 0 Z " />
<glyph glyph-name="l" unicode="l" horiz-adv-x="250" d="M32 0 L81 0 L277 730 L228 730 L32 0 Z " />
<glyph glyph-name="m" unicode="m" horiz-adv-x="951" d="M25 0 L74 0 L151 288 C180 397 272 478 354 478 C428 478 475 430 475 355 C475 336 472 311 467 292 L389 0 L438 0 L514 288 C543 397 635 478 717 478 C791 478 838 430 838 355 C838 336 835 311 830 292 L752 0 L801 0 L877 288 C883 312 890 338 890 360 C890 455 823 522 731 522 C635 522 563 473 517 397 C506 458 460 522 368 522 C286 522 235 476 185 415 L210 510 L161 510 L25 0 Z " />
<glyph glyph-name="n" unicode="n" horiz-adv-x="611" d="M25 0 L74 0 L151 288 C181 399 277 478 364 478 C445 478 495 431 495 355 C495 336 492 311 487 292 L409 0 L458 0 L534 288 C540 312 545 338 545 360 C545 458 479 522 378 522 C292 522 235 475 185 415 L210 510 L161 510 L25 0 Z " />
<glyph glyph-name="o" unicode="o" horiz-adv-x="633" d="M278 -12 C436 -12 581 130 581 296 C581 427 489 522 354 522 C191 522 51 375 51 214 C51 83 143 -12 278 -12 L278 -12 Z M283 34 C177 34 104 101 104 216 C104 352 220 476 349 476 C455 476 528 409 528 294 C528 153 407 34 283 34 L283 34 Z " />
<glyph glyph-name="p" unicode="p" horiz-adv-x="654" d="M-18 -160 L31 -160 L109 130 C135 57 198 -13 312 -13 C464 -13 600 126 600 307 C600 433 513 522 395 522 C304 522 234 471 183 410 L210 510 L161 510 L-18 -160 Z M310 33 C205 33 134 113 134 211 C134 347 262 476 389 476 C482 476 547 406 547 301 C547 160 448 33 310 33 L310 33 Z " />
<glyph glyph-name="q" unicode="q" horiz-adv-x="654" d="M391 -200 L440 -200 L629 510 L580 510 L545 380 C519 453 456 522 342 522 C190 522 54 383 54 202 C54 76 141 -13 259 -13 C350 -13 420 39 471 100 L391 -200 Z M265 33 C172 33 107 103 107 208 C107 349 206 476 344 476 C449 476 520 397 520 299 C520 163 392 33 265 33 L265 33 Z " />
<glyph glyph-name="r" unicode="r" horiz-adv-x="396" d="M25 0 L74 0 L130 209 C173 371 298 464 416 464 L420 464 L434 518 C326 524 239 459 172 365 L210 510 L161 510 L25 0 Z " />
<glyph glyph-name="s" unicode="s" horiz-adv-x="495" d="M217 -11 C320 -11 407 54 407 143 C407 204 370 241 268 281 C173 318 153 342 153 381 C153 429 199 476 285 476 C345 476 403 448 442 416 L474 453 C431 489 362 521 290 521 C175 521 101 454 101 373 C101 306 147 272 244 236 C333 203 355 174 355 135 C355 74 288 34 223 34 C156 34 92 58 36 112 L1 77 C59 19 138 -11 217 -11 L217 -11 Z " />
<glyph glyph-name="t" unicode="t" horiz-adv-x="396" d="M206 -9 C232 -9 251 -6 278 4 L291 52 C262 41 239 36 217 36 C166 36 134 55 134 97 C134 109 136 127 139 140 L226 465 L402 465 L414 510 L238 510 L282 673 L233 673 L189 510 L115 510 L103 465 L177 465 L90 141 C87 128 84 108 84 92 C84 22 138 -9 206 -9 L206 -9 Z " />
<glyph glyph-name="u" unicode="u" horiz-adv-x="609" d="M231 -12 C317 -12 374 35 424 95 L399 0 L448 0 L584 510 L535 510 L458 222 C428 111 332 32 245 32 C164 32 114 79 114 155 C114 174 117 199 122 218 L200 510 L151 510 L75 222 C69 198 64 172 64 150 C64 52 130 -12 231 -12 L231 -12 Z " />
<glyph glyph-name="v" unicode="v" horiz-adv-x="557" d="M179 -4 L221 -4 L585 510 L526 510 L213 55 L142 510 L89 510 L179 -4 Z " />
<glyph glyph-name="w" unicode="w" horiz-adv-x="845" d="M148 -4 L189 -4 L459 433 L494 -4 L537 -4 L862 510 L808 510 L533 66 L498 512 L459 512 L186 66 L149 510 L99 510 L148 -4 Z " />
<glyph glyph-name="x" unicode="x" horiz-adv-x="559" d="M-29 0 L37 0 L277 229 L395 0 L451 0 L310 260 L578 510 L512 510 L288 295 L176 510 L120 510 L255 264 L-29 0 Z " />
<glyph glyph-name="y" unicode="y" horiz-adv-x="568" d="M20 -163 C93 -163 155 -125 229 -18 L592 510 L533 510 L226 54 L137 510 L85 510 L189 3 C126 -87 78 -117 26 -117 C-1 -117 -40 -105 -61 -88 L-88 -128 C-55 -151 -19 -163 20 -163 L20 -163 Z " />
<glyph glyph-name="z" unicode="z" horiz-adv-x="546" d="M-17 0 L424 0 L436 44 L75 44 L550 482 L558 510 L134 510 L122 466 L466 466 L-9 28 L-17 0 Z " />
<glyph glyph-name="braceleft" unicode="&#x7b;" horiz-adv-x="480" d="M312 -141 L326 -110 C235 -85 203 -36 203 30 C203 64 215 111 225 145 C231 165 234 187 234 202 C234 244 212 271 165 285 C251 300 291 345 318 485 C340 601 390 670 538 678 L541 715 C353 704 296 622 270 490 C243 357 206 306 101 306 L75 306 L65 268 L91 268 C160 268 186 244 186 201 C186 185 183 167 177 146 C160 84 154 60 154 26 C154 -46 196 -116 312 -141 L312 -141 Z " />
<glyph glyph-name="bar" unicode="&#x7c;" horiz-adv-x="286" d="M141 -128 L185 -128 L185 798 L141 798 L141 -128 Z " />
<glyph glyph-name="braceright" unicode="&#x7d;" horiz-adv-x="480" d="M-44 -141 C144 -130 200 -48 227 84 C254 217 291 268 396 268 L422 268 L432 306 L406 306 C337 306 311 330 311 373 C311 389 314 407 320 428 C337 490 343 514 343 548 C343 620 301 690 185 715 L171 684 C262 659 294 610 294 544 C294 510 282 463 272 429 C266 409 263 387 263 372 C263 330 285 303 332 289 C246 274 206 229 179 89 C157 -27 107 -96 -41 -104 L-44 -141 Z " />
<glyph glyph-name="asciitilde" unicode="&#x7e;" horiz-adv-x="460" d="M125 245 C148 285 163 305 184 305 C201 305 210 296 232 275 C254 254 269 240 299 240 C342 240 371 271 403 336 L365 351 C342 311 327 291 306 291 C289 291 280 300 258 321 C236 342 221 356 191 356 C148 356 119 325 87 260 L125 245 Z " />
<glyph glyph-name="nbspace" unicode="&#xa0;" horiz-adv-x="300" d="" />
<glyph glyph-name="exclamdown" unicode="&#xa1;" horiz-adv-x="251" d="M189 615 L255 615 L278 700 L212 700 L189 615 Z M28 0 L86 0 L105 70 L210 517 L182 517 L47 70 L28 0 Z " />
<glyph glyph-name="cent" unicode="&#xa2;" horiz-adv-x="558" d="M204 105 L160 -6 L210 -6 L249 92 C264 89 280 87 296 87 C389 87 455 122 511 174 L478 206 C428 161 372 133 299 133 C286 133 274 134 263 136 L433 569 C491 555 523 519 547 476 L588 499 C566 548 523 594 453 612 L491 706 L441 706 L407 620 C398 621 389 621 380 621 C212 621 75 475 75 303 C75 213 126 138 204 105 L204 105 Z M391 575 L223 148 C163 174 128 233 128 304 C128 451 239 575 377 575 C382 575 387 575 391 575 L391 575 Z " />
<glyph glyph-name="sterling" unicode="&#xa3;" horiz-adv-x="624" d="M-2 0 L509 0 L522 47 L148 47 L217 305 L515 305 L528 353 L230 353 L263 475 C279 534 302 579 333 610 C365 642 405 660 454 660 C525 660 566 626 600 571 L643 597 C608 661 549 707 457 707 C389 707 338 683 294 639 C259 604 231 548 214 484 L179 353 L93 353 L80 305 L166 305 L96 45 L5 25 L-2 0 Z " />
<glyph glyph-name="currency" unicode="&#xa4;" horiz-adv-x="684" d="M372 -12 C479 -12 549 36 609 103 L574 133 C519 72 459 35 373 35 C257 35 189 122 183 245 L466 245 L479 293 L183 293 C185 335 193 377 205 416 L511 416 L524 464 L223 464 C275 581 371 665 484 665 C583 665 634 614 667 535 L712 553 C682 641 610 712 493 712 C342 712 225 606 168 464 L95 464 L82 416 L151 416 C139 377 132 335 130 293 L50 293 L37 245 L129 245 C136 85 237 -12 372 -12 L372 -12 Z " />
<glyph glyph-name="yen" unicode="&#xa5;" horiz-adv-x="700" d="M251 0 L303 0 L336 125 L550 125 L562 170 L348 170 L374 268 L588 268 L600 313 L416 313 L796 700 L728 700 L364 324 L203 700 L144 700 L314 313 L124 313 L112 268 L322 268 L296 170 L86 170 L74 125 L284 125 L251 0 Z " />
<glyph glyph-name="section" unicode="&#xa7;" horiz-adv-x="632" d="M288 -10 C387 -10 469 36 469 114 C469 159 433 192 392 210 C504 210 590 260 590 338 C590 403 527 440 402 484 C306 518 263 545 263 587 C263 634 317 665 385 665 C468 665 540 629 580 591 L613 628 C569 671 484 710 392 710 C293 710 211 664 211 586 C211 541 247 508 288 490 C176 490 90 440 90 362 C90 297 153 260 278 216 C374 182 417 155 417 113 C417 66 363 35 295 35 C212 35 140 71 100 109 L67 72 C111 29 196 -10 288 -10 L288 -10 Z M392 245 C346 245 315 252 275 266 C179 299 142 327 142 366 C142 414 204 455 288 455 C334 455 364 448 405 434 C501 401 538 373 538 334 C538 286 476 245 392 245 L392 245 Z " />
<glyph glyph-name="dieresis" unicode="&#xa8;" horiz-adv-x="500" d="M376 595 L445 595 L467 675 L398 675 L376 595 Z M213 595 L282 595 L304 675 L235 675 L213 595 Z " />
<glyph glyph-name="copyright" unicode="&#xa9;" horiz-adv-x="830" d="M439 -12 C642 -12 802 153 802 351 C802 549 644 712 441 712 C238 712 78 547 78 349 C78 151 236 -12 439 -12 L439 -12 Z M439 16 C250 16 108 165 108 349 C108 533 251 684 441 684 C630 684 772 535 772 351 C772 167 629 16 439 16 L439 16 Z M444 166 C509 166 549 192 588 230 L560 258 C525 225 494 206 445 206 C368 206 306 274 306 356 C306 438 363 505 444 505 C491 505 527 481 556 453 L586 484 C549 519 510 545 445 545 C340 545 262 458 262 355 C262 251 341 166 444 166 L444 166 Z " />
<glyph glyph-name="ordfeminine" unicode="&#xaa;" horiz-adv-x="390" d="M191 410 C239 410 276 434 305 466 L291 416 L331 416 L374 577 C377 590 380 604 380 616 C380 670 340 704 269 704 C232 704 203 697 175 687 L182 652 C207 661 232 667 262 667 C314 667 340 646 340 609 C340 601 338 589 336 582 L334 576 C307 583 272 591 237 591 C161 591 106 549 106 485 C106 439 144 410 191 410 L191 410 Z M58 293 L302 293 L312 333 L68 333 L58 293 Z M201 442 C169 442 148 461 148 489 C148 531 185 560 237 560 C271 560 302 554 327 548 L323 534 C309 484 252 442 201 442 L201 442 Z " />
<glyph glyph-name="guillemotleft" unicode="&#xab;" horiz-adv-x="515" d="M353 42 L394 64 L311 248 L503 440 L467 468 L251 259 L249 251 L353 42 Z M149 42 L190 64 L107 248 L299 440 L263 468 L47 259 L45 251 L149 42 Z " />
<glyph glyph-name="registered" unicode="&#xae;" horiz-adv-x="830" d="M439 -12 C642 -12 802 153 802 351 C802 549 644 712 441 712 C238 712 78 547 78 349 C78 151 236 -12 439 -12 L439 -12 Z M439 16 C250 16 108 165 108 349 C108 533 251 684 441 684 C630 684 772 535 772 351 C772 167 629 16 439 16 L439 16 Z M301 177 L344 177 L344 324 L450 324 L566 177 L622 177 L500 331 C559 342 600 377 600 437 C600 502 543 543 465 543 L301 543 L301 177 Z M344 364 L344 502 L463 502 C520 502 555 477 555 435 C555 388 513 364 458 364 L344 364 Z " />
<glyph glyph-name="macron" unicode="&#xaf;" horiz-adv-x="500" d="M190 600 L490 600 L504 653 L204 653 L190 600 Z " />
<glyph glyph-name="degree" unicode="&#xb0;" horiz-adv-x="366" d="M214 411 C304 411 380 490 380 579 C380 651 328 705 254 705 C164 705 88 626 88 537 C88 465 140 411 214 411 L214 411 Z M219 453 C169 453 133 487 133 542 C133 606 188 663 249 663 C299 663 335 629 335 574 C335 510 280 453 219 453 L219 453 Z " />
<glyph glyph-name="plusminus" unicode="&#xb1;" horiz-adv-x="600" d="M260 -12 C405 -12 520 76 520 191 C520 278 455 327 380 349 C508 370 591 432 591 537 C591 648 489 710 372 710 C274 710 204 673 150 629 L182 594 C234 635 291 663 372 663 C466 663 536 614 536 534 C536 436 436 376 271 376 L231 376 L219 330 L249 330 C368 330 465 288 465 189 C465 104 383 35 263 35 C154 35 92 80 52 141 L7 114 C52 41 140 -12 260 -12 L260 -12 Z " />
<glyph glyph-name="acute" unicode="&#xb4;" horiz-adv-x="500" d="M251 595 L302 595 L437 698 L375 728 L251 595 Z " />
<glyph glyph-name="mu" unicode="&#xb5;" horiz-adv-x="846" d="M692 -24 L730 8 L655 90 C744 170 801 289 801 411 C801 580 676 712 499 712 C276 712 96 507 96 288 C96 119 221 -13 398 -13 C480 -13 556 15 620 61 L692 -24 Z M398 34 C249 34 150 145 150 288 C150 481 302 665 499 665 C648 665 747 554 747 411 C747 303 700 198 623 126 L509 260 L471 227 L588 97 C534 58 469 34 398 34 L398 34 Z " />
<glyph glyph-name="paragraph" unicode="&#xb6;" horiz-adv-x="486" d="M260 0 L313 0 L501 700 L428 700 C226 700 102 605 102 446 C102 320 207 270 330 263 L260 0 Z " />
<glyph glyph-name="periodcentered" unicode="&#xb7;" horiz-adv-x="231" d="M82 255 L148 255 L171 340 L105 340 L82 255 Z " />
<glyph glyph-name="cedilla" unicode="&#xb8;" horiz-adv-x="500" d="M118 -148 L238 10 L195 10 L70 -122 L118 -148 Z " />
<glyph glyph-name="ordmasculine" unicode="&#xba;" horiz-adv-x="390" d="M245 407 C337 407 412 487 412 576 C412 650 359 705 282 705 C190 705 115 625 115 536 C115 462 167 407 245 407 L245 407 Z M60 293 L328 293 L338 333 L70 333 L60 293 Z M248 444 C195 444 157 481 157 538 C157 606 212 668 279 668 C332 668 369 631 369 574 C369 506 314 444 248 444 L248 444 Z " />
<glyph glyph-name="guillemotright" unicode="&#xbb;" horiz-adv-x="515" d="M251 41 L467 250 L469 258 L365 467 L324 445 L407 261 L215 69 L251 41 Z M47 41 L263 250 L265 258 L161 467 L120 445 L203 261 L11 69 L47 41 Z " />
<glyph glyph-name="questiondown" unicode="&#xbf;" horiz-adv-x="534" d="M368 615 L434 615 L457 700 L391 700 L368 615 Z M252 -9 C354 -9 430 38 484 92 L452 126 C407 81 337 38 256 38 C172 38 104 83 104 167 C104 274 208 339 354 350 L361 355 L391 517 L359 517 L316 392 C174 372 51 299 51 166 C51 65 128 -9 252 -9 L252 -9 Z " />
<glyph glyph-name="Agrave" unicode="&#xc0;" horiz-adv-x="759" d="M-34 0 L24 0 L166 196 L579 196 L615 0 L668 0 L531 705 L481 705 L-34 0 Z M200 243 L494 648 L569 243 L200 243 Z M517 765 L552 765 L500 898 L438 868 L517 765 Z " />
<glyph glyph-name="Aacute" unicode="&#xc1;" horiz-adv-x="759" d="M-34 0 L24 0 L166 196 L579 196 L615 0 L668 0 L531 705 L481 705 L-34 0 Z M200 243 L494 648 L569 243 L200 243 Z M489 765 L540 765 L675 868 L613 898 L489 765 Z " />
<glyph glyph-name="Acircumflex" unicode="&#xc2;" horiz-adv-x="759" d="M-34 0 L24 0 L166 196 L579 196 L615 0 L668 0 L531 705 L481 705 L-34 0 Z M200 243 L494 648 L569 243 L200 243 Z M401 765 L449 765 L545 833 L597 765 L641 765 L574 887 L534 887 L401 765 Z " />
<glyph glyph-name="Atilde" unicode="&#xc3;" horiz-adv-x="759" d="M-34 0 L24 0 L166 196 L579 196 L615 0 L668 0 L531 705 L481 705 L-34 0 Z M200 243 L494 648 L569 243 L200 243 Z M416 763 C439 803 454 823 475 823 C492 823 501 814 523 793 C545 772 560 758 590 758 C633 758 662 789 694 854 L656 869 C633 829 618 809 597 809 C580 809 571 818 549 839 C527 860 512 874 482 874 C439 874 410 843 378 778 L416 763 Z " />
<glyph glyph-name="Adieresis" unicode="&#xc4;" horiz-adv-x="759" d="M-34 0 L24 0 L166 196 L579 196 L615 0 L668 0 L531 705 L481 705 L-34 0 Z M200 243 L494 648 L569 243 L200 243 Z M575 765 L644 765 L666 845 L597 845 L575 765 Z M412 765 L481 765 L503 845 L434 845 L412 765 Z " />
<glyph glyph-name="Aring" unicode="&#xc5;" horiz-adv-x="779" d="M-24 0 L34 0 L176 196 L589 196 L625 0 L678 0 L547 672 C594 683 630 723 630 772 C630 819 591 854 534 854 C477 854 428 809 428 752 C428 721 445 695 474 681 L-24 0 Z M524 702 C485 702 464 723 464 752 C464 791 495 822 534 822 C573 822 594 801 594 772 C594 733 563 702 524 702 L524 702 Z M210 243 L504 648 L579 243 L210 243 Z " />
<glyph glyph-name="AE" unicode="&#xc6;" horiz-adv-x="1068" d="M-32 0 L31 0 L201 196 L502 196 L449 0 L937 0 L950 48 L514 48 L589 329 L975 329 L988 377 L602 377 L676 652 L1107 652 L1120 700 L579 700 L-32 0 Z M242 243 L597 653 L624 653 L514 243 L242 243 Z " />
<glyph glyph-name="Ccedilla" unicode="&#xc7;" horiz-adv-x="738" d="M374 -13 C375 -13 377 -13 378 -13 C507 -13 591 41 655 108 L620 140 C556 76 487 35 383 35 C246 35 146 126 146 273 C146 471 305 665 507 665 C617 665 677 615 722 537 L767 561 C724 647 638 712 510 712 C279 712 92 498 92 271 C92 113 197 11 330 -9 L223 -122 L271 -148 L374 -13 Z " />
<glyph glyph-name="Egrave" unicode="&#xc8;" horiz-adv-x="649" d="M36 0 L534 0 L547 48 L101 48 L176 329 L572 329 L585 377 L189 377 L263 652 L704 652 L717 700 L224 700 L36 0 Z M480 765 L515 765 L463 898 L401 868 L480 765 Z " />
<glyph glyph-name="Eacute" unicode="&#xc9;" horiz-adv-x="649" d="M36 0 L534 0 L547 48 L101 48 L176 329 L572 329 L585 377 L189 377 L263 652 L704 652 L717 700 L224 700 L36 0 Z M413 765 L464 765 L599 868 L537 898 L413 765 Z " />
<glyph glyph-name="Ecircumflex" unicode="&#xca;" horiz-adv-x="649" d="M36 0 L534 0 L547 48 L101 48 L176 329 L572 329 L585 377 L189 377 L263 652 L704 652 L717 700 L224 700 L36 0 Z M355 765 L403 765 L499 833 L551 765 L595 765 L528 887 L488 887 L355 765 Z " />
<glyph glyph-name="Edieresis" unicode="&#xcb;" horiz-adv-x="649" d="M36 0 L534 0 L547 48 L101 48 L176 329 L572 329 L585 377 L189 377 L263 652 L704 652 L717 700 L224 700 L36 0 Z M528 765 L597 765 L619 845 L550 845 L528 765 Z M365 765 L434 765 L456 845 L387 845 L365 765 Z " />
<glyph glyph-name="Igrave" unicode="&#xcc;" horiz-adv-x="274" d="M43 0 L95 0 L283 700 L231 700 L43 0 Z M264 765 L299 765 L247 898 L185 868 L264 765 Z " />
<glyph glyph-name="Iacute" unicode="&#xcd;" horiz-adv-x="274" d="M43 0 L95 0 L283 700 L231 700 L43 0 Z M232 765 L283 765 L418 868 L356 898 L232 765 Z " />
<glyph glyph-name="Icircumflex" unicode="&#xce;" horiz-adv-x="274" d="M43 0 L95 0 L283 700 L231 700 L43 0 Z M148 765 L196 765 L292 833 L344 765 L388 765 L321 887 L281 887 L148 765 Z " />
<glyph glyph-name="Idieresis" unicode="&#xcf;" horiz-adv-x="274" d="M43 0 L95 0 L283 700 L231 700 L43 0 Z M322 765 L391 765 L413 845 L344 845 L322 765 Z M159 765 L228 765 L250 845 L181 845 L159 765 Z " />
<glyph glyph-name="Eth" unicode="&#xd0;" horiz-adv-x="801" d="M66 0 L295 0 C439 0 567 51 651 135 C721 205 760 299 760 406 C760 492 732 557 683 606 C620 669 520 700 411 700 L254 700 L167 376 L92 376 L79 328 L154 328 L66 0 Z M131 48 L206 328 L438 328 L451 376 L219 376 L293 652 L408 652 C507 652 589 625 641 573 C683 532 706 474 706 402 C706 309 672 228 612 168 C535 91 428 48 302 48 L131 48 Z " />
<glyph glyph-name="Ntilde" unicode="&#xd1;" horiz-adv-x="786" d="M36 0 L86 0 L254 626 L576 0 L614 0 L802 700 L752 700 L587 87 L272 700 L224 700 L36 0 Z M407 763 C430 803 445 823 466 823 C483 823 492 814 514 793 C536 772 551 758 581 758 C624 758 653 789 685 854 L647 869 C624 829 609 809 588 809 C571 809 562 818 540 839 C518 860 503 874 473 874 C430 874 401 843 369 778 L407 763 Z " />
<glyph glyph-name="Ograve" unicode="&#xd2;" horiz-adv-x="846" d="M398 -13 C621 -13 801 192 801 411 C801 580 676 712 499 712 C276 712 96 507 96 288 C96 119 221 -13 398 -13 L398 -13 Z M398 34 C249 34 150 145 150 288 C150 481 302 665 499 665 C648 665 747 554 747 411 C747 218 595 34 398 34 L398 34 Z M546 765 L581 765 L529 898 L467 868 L546 765 Z " />
<glyph glyph-name="Oacute" unicode="&#xd3;" horiz-adv-x="846" d="M398 -13 C621 -13 801 192 801 411 C801 580 676 712 499 712 C276 712 96 507 96 288 C96 119 221 -13 398 -13 L398 -13 Z M398 34 C249 34 150 145 150 288 C150 481 302 665 499 665 C648 665 747 554 747 411 C747 218 595 34 398 34 L398 34 Z M469 765 L520 765 L655 868 L593 898 L469 765 Z " />
<glyph glyph-name="Ocircumflex" unicode="&#xd4;" horiz-adv-x="846" d="M398 -13 C621 -13 801 192 801 411 C801 580 676 712 499 712 C276 712 96 507 96 288 C96 119 221 -13 398 -13 L398 -13 Z M398 34 C249 34 150 145 150 288 C150 481 302 665 499 665 C648 665 747 554 747 411 C747 218 595 34 398 34 L398 34 Z M420 765 L468 765 L564 833 L616 765 L660 765 L593 887 L553 887 L420 765 Z " />
<glyph glyph-name="Otilde" unicode="&#xd5;" horiz-adv-x="846" d="M398 -13 C621 -13 801 192 801 411 C801 580 676 712 499 712 C276 712 96 507 96 288 C96 119 221 -13 398 -13 L398 -13 Z M398 34 C249 34 150 145 150 288 C150 481 302 665 499 665 C648 665 747 554 747 411 C747 218 595 34 398 34 L398 34 Z M421 763 C444 803 459 823 480 823 C497 823 506 814 528 793 C550 772 565 758 595 758 C638 758 667 789 699 854 L661 869 C638 829 623 809 602 809 C585 809 576 818 554 839 C532 860 517 874 487 874 C444 874 415 843 383 778 L421 763 Z " />
<glyph glyph-name="Odieresis" unicode="&#xd6;" horiz-adv-x="846" d="M398 -13 C621 -13 801 192 801 411 C801 580 676 712 499 712 C276 712 96 507 96 288 C96 119 221 -13 398 -13 L398 -13 Z M398 34 C249 34 150 145 150 288 C150 481 302 665 499 665 C648 665 747 554 747 411 C747 218 595 34 398 34 L398 34 Z M584 765 L653 765 L675 845 L606 845 L584 765 Z M421 765 L490 765 L512 845 L443 845 L421 765 Z " />
<glyph glyph-name="Oslash" unicode="&#xd8;" horiz-adv-x="846" d="M398 -13 C621 -13 801 192 801 411 C801 474 783 532 753 580 L902 705 L833 705 L726 615 C672 675 593 712 499 712 C276 712 96 507 96 288 C96 228 112 173 140 126 L-17 -5 L52 -5 L166 90 C220 27 301 -13 398 -13 L398 -13 Z M180 159 C160 197 150 240 150 288 C150 481 302 665 499 665 C579 665 644 634 688 583 L180 159 Z M398 34 C315 34 247 67 204 122 L713 547 C735 508 747 462 747 411 C747 218 595 34 398 34 L398 34 Z " />
<glyph glyph-name="Ugrave" unicode="&#xd9;" horiz-adv-x="756" d="M348 -11 C429 -11 502 20 559 77 C608 126 646 194 670 283 L782 700 L730 700 L621 294 C598 209 562 147 523 108 C475 60 414 36 352 36 C212 36 147 113 147 213 C147 243 151 273 156 293 L264 700 L212 700 L110 317 C101 282 96 247 96 209 C96 84 180 -11 348 -11 L348 -11 Z M506 765 L541 765 L489 898 L427 868 L506 765 Z " />
<glyph glyph-name="Uacute" unicode="&#xda;" horiz-adv-x="756" d="M348 -11 C429 -11 502 20 559 77 C608 126 646 194 670 283 L782 700 L730 700 L621 294 C598 209 562 147 523 108 C475 60 414 36 352 36 C212 36 147 113 147 213 C147 243 151 273 156 293 L264 700 L212 700 L110 317 C101 282 96 247 96 209 C96 84 180 -11 348 -11 L348 -11 Z M439 765 L490 765 L625 868 L563 898 L439 765 Z " />
<glyph glyph-name="Ucircumflex" unicode="&#xdb;" horiz-adv-x="756" d="M348 -11 C429 -11 502 20 559 77 C608 126 646 194 670 283 L782 700 L730 700 L621 294 C598 209 562 147 523 108 C475 60 414 36 352 36 C212 36 147 113 147 213 C147 243 151 273 156 293 L264 700 L212 700 L110 317 C101 282 96 247 96 209 C96 84 180 -11 348 -11 L348 -11 Z M387 765 L435 765 L531 833 L583 765 L627 765 L560 887 L520 887 L387 765 Z " />
<glyph glyph-name="Udieresis" unicode="&#xdc;" horiz-adv-x="756" d="M348 -11 C429 -11 502 20 559 77 C608 126 646 194 670 283 L782 700 L730 700 L621 294 C598 209 562 147 523 108 C475 60 414 36 352 36 C212 36 147 113 147 213 C147 243 151 273 156 293 L264 700 L212 700 L110 317 C101 282 96 247 96 209 C96 84 180 -11 348 -11 L348 -11 Z M555 765 L624 765 L646 845 L577 845 L555 765 Z M392 765 L461 765 L483 845 L414 845 L392 765 Z " />
<glyph glyph-name="Yacute" unicode="&#xdd;" horiz-adv-x="668" d="M234 0 L286 0 L358 271 L779 700 L709 700 L345 324 L184 700 L127 700 L310 284 L234 0 Z M395 765 L446 765 L581 868 L519 898 L395 765 Z " />
<glyph glyph-name="Thorn" unicode="&#xde;" horiz-adv-x="668" d="M36 0 L88 0 L125 135 L303 135 C515 135 649 226 649 385 C649 437 632 479 601 510 C559 552 492 573 408 573 L242 573 L275 700 L224 700 L36 0 Z M137 182 L229 525 L407 525 C476 525 529 508 561 476 C586 451 597 421 597 383 C597 255 493 182 305 182 L137 182 Z " />
<glyph glyph-name="germandbls" unicode="&#xdf;" horiz-adv-x="620" d="M220 -2 C425 -4 546 85 546 201 C546 292 475 342 387 365 C502 397 599 457 599 576 C599 669 520 737 412 737 C349 737 291 712 246 667 C207 628 177 568 159 500 L25 0 L74 0 L204 485 C238 613 310 691 408 691 C496 691 546 641 546 574 C546 487 481 424 324 387 L312 342 C427 321 493 277 493 202 C493 119 416 44 232 42 L220 -2 Z " />
<glyph glyph-name="agrave" unicode="&#xe0;" horiz-adv-x="571" d="M190 -12 C279 -12 346 30 395 88 L372 0 L420 0 L498 292 C504 315 508 340 508 359 C508 457 435 518 310 518 C247 518 199 507 149 489 L158 445 C207 462 250 472 306 472 C406 472 460 429 460 352 C460 338 457 316 453 301 L449 287 C398 301 326 316 253 316 C119 316 23 244 23 131 C23 36 105 -12 190 -12 L190 -12 Z M199 33 C123 33 75 74 75 137 C75 216 144 272 246 272 C321 272 387 261 439 248 L427 203 C399 100 295 33 199 33 L199 33 Z M363 595 L398 595 L346 728 L284 698 L363 595 Z " />
<glyph glyph-name="aacute" unicode="&#xe1;" horiz-adv-x="571" d="M190 -12 C279 -12 346 30 395 88 L372 0 L420 0 L498 292 C504 315 508 340 508 359 C508 457 435 518 310 518 C247 518 199 507 149 489 L158 445 C207 462 250 472 306 472 C406 472 460 429 460 352 C460 338 457 316 453 301 L449 287 C398 301 326 316 253 316 C119 316 23 244 23 131 C23 36 105 -12 190 -12 L190 -12 Z M199 33 C123 33 75 74 75 137 C75 216 144 272 246 272 C321 272 387 261 439 248 L427 203 C399 100 295 33 199 33 L199 33 Z M301 595 L352 595 L487 698 L425 728 L301 595 Z " />
<glyph glyph-name="acircumflex" unicode="&#xe2;" horiz-adv-x="571" d="M190 -12 C279 -12 346 30 395 88 L372 0 L420 0 L498 292 C504 315 508 340 508 359 C508 457 435 518 310 518 C247 518 199 507 149 489 L158 445 C207 462 250 472 306 472 C406 472 460 429 460 352 C460 338 457 316 453 301 L449 287 C398 301 326 316 253 316 C119 316 23 244 23 131 C23 36 105 -12 190 -12 L190 -12 Z M199 33 C123 33 75 74 75 137 C75 216 144 272 246 272 C321 272 387 261 439 248 L427 203 C399 100 295 33 199 33 L199 33 Z M246 595 L294 595 L390 663 L442 595 L486 595 L419 717 L379 717 L246 595 Z " />
<glyph glyph-name="atilde" unicode="&#xe3;" horiz-adv-x="571" d="M190 -12 C279 -12 346 30 395 88 L372 0 L420 0 L498 292 C504 315 508 340 508 359 C508 457 435 518 310 518 C247 518 199 507 149 489 L158 445 C207 462 250 472 306 472 C406 472 460 429 460 352 C460 338 457 316 453 301 L449 287 C398 301 326 316 253 316 C119 316 23 244 23 131 C23 36 105 -12 190 -12 L190 -12 Z M199 33 C123 33 75 74 75 137 C75 216 144 272 246 272 C321 272 387 261 439 248 L427 203 C399 100 295 33 199 33 L199 33 Z M258 593 C281 633 296 653 317 653 C334 653 343 644 365 623 C387 602 402 588 432 588 C475 588 504 619 536 684 L498 699 C475 659 460 639 439 639 C422 639 413 648 391 669 C369 690 354 704 324 704 C281 704 252 673 220 608 L258 593 Z " />
<glyph glyph-name="adieresis" unicode="&#xe4;" horiz-adv-x="571" d="M190 -12 C279 -12 346 30 395 88 L372 0 L420 0 L498 292 C504 315 508 340 508 359 C508 457 435 518 310 518 C247 518 199 507 149 489 L158 445 C207 462 250 472 306 472 C406 472 460 429 460 352 C460 338 457 316 453 301 L449 287 C398 301 326 316 253 316 C119 316 23 244 23 131 C23 36 105 -12 190 -12 L190 -12 Z M199 33 C123 33 75 74 75 137 C75 216 144 272 246 272 C321 272 387 261 439 248 L427 203 C399 100 295 33 199 33 L199 33 Z M411 595 L480 595 L502 675 L433 675 L411 595 Z M248 595 L317 595 L339 675 L270 675 L248 595 Z " />
<glyph glyph-name="aring" unicode="&#xe5;" horiz-adv-x="571" d="M190 -12 C279 -12 346 30 395 88 L372 0 L420 0 L498 292 C504 315 508 340 508 359 C508 457 435 518 310 518 C247 518 199 507 149 489 L158 445 C207 462 250 472 306 472 C406 472 460 429 460 352 C460 338 457 316 453 301 L449 287 C398 301 326 316 253 316 C119 316 23 244 23 131 C23 36 105 -12 190 -12 L190 -12 Z M199 33 C123 33 75 74 75 137 C75 216 144 272 246 272 C321 272 387 261 439 248 L427 203 C399 100 295 33 199 33 L199 33 Z M384 595 C441 595 490 640 490 697 C490 744 451 779 394 779 C337 779 288 734 288 677 C288 630 327 595 384 595 L384 595 Z M384 627 C345 627 324 648 324 677 C324 716 355 747 394 747 C433 747 454 726 454 697 C454 658 423 627 384 627 L384 627 Z " />
<glyph glyph-name="ae" unicode="&#xe6;" horiz-adv-x="965" d="M455 113 C486 39 556 -12 659 -12 C743 -12 806 23 859 67 L830 102 C781 62 733 34 656 34 C556 34 487 101 487 204 C487 215 488 227 489 238 L908 238 C917 264 922 293 922 327 C922 432 857 522 729 522 C638 522 557 469 504 397 C487 473 418 518 310 518 C247 518 199 507 149 489 L158 445 C207 462 250 472 306 472 C406 472 460 429 460 352 C460 338 457 316 453 301 L449 287 C400 302 327 316 257 316 C123 316 23 247 23 136 C23 39 101 -12 200 -12 C296 -12 386 41 455 113 L455 113 Z M498 282 C527 387 614 477 728 477 C827 477 872 406 872 324 C872 305 870 291 868 282 L498 282 Z M441 249 C439 235 438 220 438 206 C438 190 439 173 442 158 C370 80 290 33 204 33 C122 33 75 76 75 142 C75 217 148 272 250 272 C318 272 395 262 441 249 L441 249 Z " />
<glyph glyph-name="ccedilla" unicode="&#xe7;" horiz-adv-x="558" d="M226 -8 L118 -122 L166 -148 L269 -12 C270 -12 271 -12 272 -12 C356 -12 421 25 473 75 L440 107 C393 63 341 34 275 34 C186 34 103 96 103 211 C103 351 217 476 347 476 C432 476 478 430 509 376 L550 399 C519 463 454 522 350 522 C189 522 50 375 50 208 C50 87 132 11 226 -8 L226 -8 Z " />
<glyph glyph-name="egrave" unicode="&#xe8;" horiz-adv-x="583" d="M105 238 L524 238 C533 264 538 293 538 327 C538 432 473 522 345 522 C179 522 50 361 50 202 C50 76 142 -12 272 -12 C364 -12 422 23 475 67 L446 102 C397 62 349 34 272 34 C172 34 103 101 103 204 C103 215 104 227 105 238 L105 238 Z M114 282 C143 387 230 477 344 477 C443 477 488 406 488 324 C488 305 486 291 484 282 L114 282 Z M367 595 L402 595 L350 728 L288 698 L367 595 Z " />
<glyph glyph-name="eacute" unicode="&#xe9;" horiz-adv-x="583" d="M105 238 L524 238 C533 264 538 293 538 327 C538 432 473 522 345 522 C179 522 50 361 50 202 C50 76 142 -12 272 -12 C364 -12 422 23 475 67 L446 102 C397 62 349 34 272 34 C172 34 103 101 103 204 C103 215 104 227 105 238 L105 238 Z M114 282 C143 387 230 477 344 477 C443 477 488 406 488 324 C488 305 486 291 484 282 L114 282 Z M310 595 L361 595 L496 698 L434 728 L310 595 Z " />
<glyph glyph-name="ecircumflex" unicode="&#xea;" horiz-adv-x="583" d="M105 238 L524 238 C533 264 538 293 538 327 C538 432 473 522 345 522 C179 522 50 361 50 202 C50 76 142 -12 272 -12 C364 -12 422 23 475 67 L446 102 C397 62 349 34 272 34 C172 34 103 101 103 204 C103 215 104 227 105 238 L105 238 Z M114 282 C143 387 230 477 344 477 C443 477 488 406 488 324 C488 305 486 291 484 282 L114 282 Z M244 595 L292 595 L388 663 L440 595 L484 595 L417 717 L377 717 L244 595 Z " />
<glyph glyph-name="edieresis" unicode="&#xeb;" horiz-adv-x="583" d="M105 238 L524 238 C533 264 538 293 538 327 C538 432 473 522 345 522 C179 522 50 361 50 202 C50 76 142 -12 272 -12 C364 -12 422 23 475 67 L446 102 C397 62 349 34 272 34 C172 34 103 101 103 204 C103 215 104 227 105 238 L105 238 Z M114 282 C143 387 230 477 344 477 C443 477 488 406 488 324 C488 305 486 291 484 282 L114 282 Z M415 595 L484 595 L506 675 L437 675 L415 595 Z M252 595 L321 595 L343 675 L274 675 L252 595 Z " />
<glyph glyph-name="igrave" unicode="&#xec;" horiz-adv-x="249" d="M32 0 L81 0 L218 510 L169 510 L32 0 Z M180 595 L215 595 L163 728 L101 698 L180 595 Z " />
<glyph glyph-name="iacute" unicode="&#xed;" horiz-adv-x="249" d="M32 0 L81 0 L218 510 L169 510 L32 0 Z M181 595 L232 595 L367 698 L305 728 L181 595 Z " />
<glyph glyph-name="icircumflex" unicode="&#xee;" horiz-adv-x="249" d="M32 0 L81 0 L218 510 L169 510 L32 0 Z M87 595 L135 595 L231 663 L283 595 L327 595 L260 717 L220 717 L87 595 Z " />
<glyph glyph-name="idieresis" unicode="&#xef;" horiz-adv-x="249" d="M32 0 L81 0 L218 510 L169 510 L32 0 Z M259 595 L328 595 L350 675 L281 675 L259 595 Z M96 595 L165 595 L187 675 L118 675 L96 595 Z " />
<glyph glyph-name="eth" unicode="&#xf0;" horiz-adv-x="616" d="M271 -11 C445 -11 567 131 567 274 C567 331 553 381 520 464 L447 648 L563 699 L541 739 L430 690 L414 730 L355 730 L381 669 L223 599 L245 559 L399 627 L481 432 C448 460 400 485 327 485 C182 485 47 359 47 202 C47 82 142 -11 271 -11 L271 -11 Z M276 35 C174 35 100 100 100 205 C100 332 204 441 328 441 C446 441 514 363 514 272 C514 142 405 35 276 35 L276 35 Z " />
<glyph glyph-name="ntilde" unicode="&#xf1;" horiz-adv-x="611" d="M25 0 L74 0 L151 288 C181 399 277 478 364 478 C445 478 495 431 495 355 C495 336 492 311 487 292 L409 0 L458 0 L534 288 C540 312 545 338 545 360 C545 458 479 522 378 522 C292 522 235 475 185 415 L210 510 L161 510 L25 0 Z M278 593 C301 633 316 653 337 653 C354 653 363 644 385 623 C407 602 422 588 452 588 C495 588 524 619 556 684 L518 699 C495 659 480 639 459 639 C442 639 433 648 411 669 C389 690 374 704 344 704 C301 704 272 673 240 608 L278 593 Z " />
<glyph glyph-name="ograve" unicode="&#xf2;" horiz-adv-x="633" d="M278 -12 C436 -12 581 130 581 296 C581 427 489 522 354 522 C191 522 51 375 51 214 C51 83 143 -12 278 -12 L278 -12 Z M283 34 C177 34 104 101 104 216 C104 352 220 476 349 476 C455 476 528 409 528 294 C528 153 407 34 283 34 L283 34 Z M378 595 L413 595 L361 728 L299 698 L378 595 Z " />
<glyph glyph-name="oacute" unicode="&#xf3;" horiz-adv-x="633" d="M278 -12 C436 -12 581 130 581 296 C581 427 489 522 354 522 C191 522 51 375 51 214 C51 83 143 -12 278 -12 L278 -12 Z M283 34 C177 34 104 101 104 216 C104 352 220 476 349 476 C455 476 528 409 528 294 C528 153 407 34 283 34 L283 34 Z M322 595 L373 595 L508 698 L446 728 L322 595 Z " />
<glyph glyph-name="ocircumflex" unicode="&#xf4;" horiz-adv-x="633" d="M278 -12 C436 -12 581 130 581 296 C581 427 489 522 354 522 C191 522 51 375 51 214 C51 83 143 -12 278 -12 L278 -12 Z M283 34 C177 34 104 101 104 216 C104 352 220 476 349 476 C455 476 528 409 528 294 C528 153 407 34 283 34 L283 34 Z M278 595 L326 595 L422 663 L474 595 L518 595 L451 717 L411 717 L278 595 Z " />
<glyph glyph-name="otilde" unicode="&#xf5;" horiz-adv-x="633" d="M278 -12 C436 -12 581 130 581 296 C581 427 489 522 354 522 C191 522 51 375 51 214 C51 83 143 -12 278 -12 L278 -12 Z M283 34 C177 34 104 101 104 216 C104 352 220 476 349 476 C455 476 528 409 528 294 C528 153 407 34 283 34 L283 34 Z M282 593 C305 633 320 653 341 653 C358 653 367 644 389 623 C411 602 426 588 456 588 C499 588 528 619 560 684 L522 699 C499 659 484 639 463 639 C446 639 437 648 415 669 C393 690 378 704 348 704 C305 704 276 673 244 608 L282 593 Z " />
<glyph glyph-name="odieresis" unicode="&#xf6;" horiz-adv-x="633" d="M278 -12 C436 -12 581 130 581 296 C581 427 489 522 354 522 C191 522 51 375 51 214 C51 83 143 -12 278 -12 L278 -12 Z M283 34 C177 34 104 101 104 216 C104 352 220 476 349 476 C455 476 528 409 528 294 C528 153 407 34 283 34 L283 34 Z M432 595 L501 595 L523 675 L454 675 L432 595 Z M269 595 L338 595 L360 675 L291 675 L269 595 Z " />
<glyph glyph-name="oslash" unicode="&#xf8;" horiz-adv-x="633" d="M278 -12 C436 -12 581 130 581 296 C581 343 570 384 549 419 L669 517 L602 517 L523 453 C483 496 425 522 354 522 C191 522 51 375 51 214 C51 167 62 126 83 91 L-35 -5 L32 -5 L109 58 C149 15 207 -12 278 -12 L278 -12 Z M123 124 C111 150 104 180 104 216 C104 352 220 476 349 476 C407 476 454 457 486 422 L123 124 Z M283 34 C225 34 177 53 146 88 L509 386 C521 360 528 330 528 294 C528 153 407 34 283 34 L283 34 Z " />
<glyph glyph-name="ugrave" unicode="&#xf9;" horiz-adv-x="609" d="M231 -12 C317 -12 374 35 424 95 L399 0 L448 0 L584 510 L535 510 L458 222 C428 111 332 32 245 32 C164 32 114 79 114 155 C114 174 117 199 122 218 L200 510 L151 510 L75 222 C69 198 64 172 64 150 C64 52 130 -12 231 -12 L231 -12 Z M370 595 L405 595 L353 728 L291 698 L370 595 Z " />
<glyph glyph-name="uacute" unicode="&#xfa;" horiz-adv-x="609" d="M231 -12 C317 -12 374 35 424 95 L399 0 L448 0 L584 510 L535 510 L458 222 C428 111 332 32 245 32 C164 32 114 79 114 155 C114 174 117 199 122 218 L200 510 L151 510 L75 222 C69 198 64 172 64 150 C64 52 130 -12 231 -12 L231 -12 Z M330 595 L381 595 L516 698 L454 728 L330 595 Z " />
<glyph glyph-name="ucircumflex" unicode="&#xfb;" horiz-adv-x="609" d="M231 -12 C317 -12 374 35 424 95 L399 0 L448 0 L584 510 L535 510 L458 222 C428 111 332 32 245 32 C164 32 114 79 114 155 C114 174 117 199 122 218 L200 510 L151 510 L75 222 C69 198 64 172 64 150 C64 52 130 -12 231 -12 L231 -12 Z M263 595 L311 595 L407 663 L459 595 L503 595 L436 717 L396 717 L263 595 Z " />
<glyph glyph-name="udieresis" unicode="&#xfc;" horiz-adv-x="609" d="M231 -12 C317 -12 374 35 424 95 L399 0 L448 0 L584 510 L535 510 L458 222 C428 111 332 32 245 32 C164 32 114 79 114 155 C114 174 117 199 122 218 L200 510 L151 510 L75 222 C69 198 64 172 64 150 C64 52 130 -12 231 -12 L231 -12 Z M431 595 L500 595 L522 675 L453 675 L431 595 Z M268 595 L337 595 L359 675 L290 675 L268 595 Z " />
<glyph glyph-name="yacute" unicode="&#xfd;" horiz-adv-x="568" d="M20 -163 C93 -163 155 -125 229 -18 L592 510 L533 510 L226 54 L137 510 L85 510 L189 3 C126 -87 78 -117 26 -117 C-1 -117 -40 -105 -61 -88 L-88 -128 C-55 -151 -19 -163 20 -163 L20 -163 Z M295 595 L346 595 L481 698 L419 728 L295 595 Z " />
<glyph glyph-name="thorn" unicode="&#xfe;" horiz-adv-x="654" d="M-18 -160 L31 -160 L109 130 C135 57 198 -13 312 -13 C464 -13 600 126 600 307 C600 433 513 522 395 522 C304 522 234 471 183 410 L270 730 L221 730 L-18 -160 Z M310 33 C205 33 134 113 134 211 C134 347 262 476 389 476 C482 476 547 406 547 301 C547 160 448 33 310 33 L310 33 Z " />
<glyph glyph-name="ydieresis" unicode="&#xff;" horiz-adv-x="568" d="M20 -163 C93 -163 155 -125 229 -18 L592 510 L533 510 L226 54 L137 510 L85 510 L189 3 C126 -87 78 -117 26 -117 C-1 -117 -40 -105 -61 -88 L-88 -128 C-55 -151 -19 -163 20 -163 L20 -163 Z M405 595 L474 595 L496 675 L427 675 L405 595 Z M242 595 L311 595 L333 675 L264 675 L242 595 Z " />
<glyph glyph-name="dotlessi" unicode="&#x131;" horiz-adv-x="249" d="M32 0 L81 0 L218 510 L169 510 L32 0 Z " />
<glyph glyph-name="Lslash" unicode="&#x141;" horiz-adv-x="650" d="M86 0 L549 0 L562 48 L151 48 L227 332 L470 401 L483 449 L240 380 L326 700 L274 700 L184 364 L103 341 L91 293 L171 316 L86 0 Z " />
<glyph glyph-name="lslash" unicode="&#x142;" horiz-adv-x="309" d="M62 0 L111 0 L205 350 L288 374 L302 424 L218 400 L307 730 L258 730 L165 385 L84 362 L71 312 L152 335 L62 0 Z " />
<glyph glyph-name="OE" unicode="&#x152;" horiz-adv-x="1154" d="M441 0 L1023 0 L1036 48 L601 48 L676 329 L1061 329 L1074 377 L689 377 L763 652 L1193 652 L1206 700 L557 700 C413 700 285 649 201 565 C131 495 92 401 92 294 C92 208 120 143 169 94 C232 31 332 0 441 0 L441 0 Z M444 48 C345 48 263 75 211 127 C170 168 146 226 146 298 C146 391 180 472 240 532 C317 609 424 652 550 652 L711 652 L549 48 L444 48 Z " />
<glyph glyph-name="oe" unicode="&#x153;" horiz-adv-x="1046" d="M570 238 L989 238 C998 264 1003 293 1003 327 C1003 432 938 522 810 522 C689 522 610 444 564 359 C544 448 471 522 354 522 C191 522 51 375 51 214 C51 83 145 -12 275 -12 C393 -12 479 60 529 143 C550 50 631 -12 740 -12 C824 -12 887 23 940 67 L911 102 C862 62 814 34 737 34 C637 34 568 101 568 204 C568 215 569 227 570 238 L570 238 Z M579 282 C608 387 695 477 809 477 C908 477 953 406 953 324 C953 305 951 291 949 282 L579 282 Z M283 34 C177 34 104 101 104 216 C104 352 220 476 349 476 C455 476 528 409 528 289 C528 153 407 34 283 34 L283 34 Z " />
<glyph glyph-name="Scaron" unicode="&#x160;" horiz-adv-x="638" d="M299 -10 C449 -10 559 80 559 194 C559 280 503 329 373 378 C258 422 206 456 206 521 C206 595 279 663 399 663 C486 663 556 630 607 571 L647 603 C596 665 509 710 404 710 C253 710 153 623 153 517 C153 431 210 387 353 331 C466 287 506 251 506 190 C506 102 419 37 304 37 C192 37 120 76 60 153 L20 124 C78 42 172 -10 299 -10 L299 -10 Z M420 765 L460 765 L593 887 L545 887 L449 819 L397 887 L353 887 L420 765 Z " />
<glyph glyph-name="scaron" unicode="&#x161;" horiz-adv-x="495" d="M217 -11 C320 -11 407 54 407 143 C407 204 370 241 268 281 C173 318 153 342 153 381 C153 429 199 476 285 476 C345 476 403 448 442 416 L474 453 C431 489 362 521 290 521 C175 521 101 454 101 373 C101 306 147 272 244 236 C333 203 355 174 355 135 C355 74 288 34 223 34 C156 34 92 58 36 112 L1 77 C59 19 138 -11 217 -11 L217 -11 Z M308 595 L348 595 L481 717 L433 717 L337 649 L285 717 L241 717 L308 595 Z " />
<glyph glyph-name="Ydieresis" unicode="&#x178;" horiz-adv-x="668" d="M234 0 L286 0 L358 271 L779 700 L709 700 L345 324 L184 700 L127 700 L310 284 L234 0 Z M506 765 L575 765 L597 845 L528 845 L506 765 Z M343 765 L412 765 L434 845 L365 845 L343 765 Z " />
<glyph glyph-name="Zcaron" unicode="&#x17d;" horiz-adv-x="662" d="M-19 0 L534 0 L547 47 L75 47 L711 671 L719 700 L186 700 L173 653 L625 653 L-11 29 L-19 0 Z M426 765 L466 765 L599 887 L551 887 L455 819 L403 887 L359 887 L426 765 Z " />
<glyph glyph-name="zcaron" unicode="&#x17e;" horiz-adv-x="546" d="M-17 0 L424 0 L436 44 L75 44 L550 482 L558 510 L134 510 L122 466 L466 466 L-9 28 L-17 0 Z M330 595 L370 595 L503 717 L455 717 L359 649 L307 717 L263 717 L330 595 Z " />
<glyph glyph-name="florin" unicode="&#x192;" horiz-adv-x="526" d="M33 -10 C99 -10 149 24 195 129 L307 384 L476 384 L488 429 L326 429 L380 551 C415 630 456 666 511 666 C538 666 561 660 581 653 L596 695 C572 704 545 710 513 710 C434 710 378 662 335 563 L276 429 L162 429 L150 384 L257 384 L150 141 C117 67 84 34 37 34 C14 34 -1 38 -10 41 L-23 -2 C-10 -6 7 -10 33 -10 L33 -10 Z " />
<glyph glyph-name="circumflex" unicode="&#x2c6;" horiz-adv-x="500" d="M222 595 L270 595 L366 663 L418 595 L462 595 L395 717 L355 717 L222 595 Z " />
<glyph glyph-name="caron" unicode="&#x2c7;" horiz-adv-x="500" d="M321 595 L361 595 L494 717 L446 717 L350 649 L298 717 L254 717 L321 595 Z " />
<glyph glyph-name="breve" unicode="&#x2d8;" horiz-adv-x="500" d="M339 593 C413 593 479 639 505 717 L459 717 C435 672 402 644 350 644 C293 644 279 672 279 717 L239 717 C236 704 235 694 235 684 C235 626 276 593 339 593 L339 593 Z " />
<glyph glyph-name="dotaccent" unicode="&#x2d9;" horiz-adv-x="500" d="M307 593 L373 593 L396 678 L330 678 L307 593 Z " />
<glyph glyph-name="ring" unicode="&#x2da;" horiz-adv-x="500" d="M359 595 C416 595 465 640 465 697 C465 744 426 779 369 779 C312 779 263 734 263 677 C263 630 302 595 359 595 L359 595 Z M359 627 C320 627 299 648 299 677 C299 716 330 747 369 747 C408 747 429 726 429 697 C429 658 398 627 359 627 L359 627 Z " />
<glyph glyph-name="ogonek" unicode="&#x2db;" horiz-adv-x="500" d="M226 -164 L234 -133 C169 -130 136 -109 136 -72 C136 -53 149 -13 161 10 L118 10 C100 -16 82 -56 82 -82 C82 -132 127 -167 226 -164 L226 -164 Z " />
<glyph glyph-name="tilde" unicode="&#x2dc;" horiz-adv-x="500" d="M233 593 C256 633 271 653 292 653 C309 653 318 644 340 623 C362 602 377 588 407 588 C450 588 479 619 511 684 L473 699 C450 659 435 639 414 639 C397 639 388 648 366 669 C344 690 329 704 299 704 C256 704 227 673 195 608 L233 593 Z " />
<glyph glyph-name="hungarumlaut" unicode="&#x2dd;" horiz-adv-x="500" d="M344 595 L387 595 L516 699 L469 728 L344 595 Z M192 595 L235 595 L364 699 L317 728 L192 595 Z " />
<glyph glyph-name="pi" unicode="&#x3c0;" horiz-adv-x="830" d="M439 -12 C642 -12 802 153 802 351 C802 549 644 712 441 712 C238 712 78 547 78 349 C78 151 236 -12 439 -12 L439 -12 Z M439 16 C250 16 108 165 108 349 C108 533 251 684 441 684 C630 684 772 535 772 351 C772 167 629 16 439 16 L439 16 Z M321 175 L365 175 L365 303 L455 303 C534 303 605 342 605 425 C605 500 548 541 462 541 L321 541 L321 175 Z M365 344 L365 500 L459 500 C521 500 560 476 560 423 C560 372 519 344 456 344 L365 344 Z " />
<glyph glyph-name="endash" unicode="&#x2013;" horiz-adv-x="528" d="M74 271 L462 271 L476 323 L88 323 L74 271 Z " />
<glyph glyph-name="emdash" unicode="&#x2014;" horiz-adv-x="898" d="M74 271 L832 271 L846 323 L88 323 L74 271 Z " />
<glyph glyph-name="quoteleft" unicode="&#x2018;" horiz-adv-x="231" d="M147 513 L213 513 L236 598 L209 598 C216 636 240 663 289 680 L282 704 C216 685 186 657 167 587 L147 513 Z " />
<glyph glyph-name="quoteright" unicode="&#x2019;" horiz-adv-x="231" d="M138 509 C204 528 233 556 253 626 L273 700 L207 700 L184 615 L211 615 C204 577 180 550 131 533 L138 509 Z " />
<glyph glyph-name="quotesinglbase" unicode="&#x201a;" horiz-adv-x="231" d="M-32 -106 C34 -87 63 -59 83 11 L103 85 L37 85 L14 0 L41 0 C34 -38 10 -65 -39 -82 L-32 -106 Z " />
<glyph glyph-name="quotedblleft" unicode="&#x201c;" horiz-adv-x="411" d="M326 513 L392 513 L415 598 L388 598 C395 636 419 663 468 680 L461 704 C395 685 365 657 346 587 L326 513 Z M146 513 L212 513 L235 598 L208 598 C215 636 239 663 288 680 L281 704 C215 685 185 657 166 587 L146 513 Z " />
<glyph glyph-name="quotedblright" unicode="&#x201d;" horiz-adv-x="411" d="M307 509 C373 528 402 556 422 626 L442 700 L376 700 L353 615 L380 615 C373 577 349 550 300 533 L307 509 Z M127 509 C193 528 222 556 242 626 L262 700 L196 700 L173 615 L200 615 C193 577 169 550 120 533 L127 509 Z " />
<glyph glyph-name="quotedblbase" unicode="&#x201e;" horiz-adv-x="412" d="M149 -106 C215 -87 244 -59 264 11 L284 85 L218 85 L195 0 L222 0 C215 -38 191 -65 142 -82 L149 -106 Z M-32 -106 C34 -87 63 -59 83 11 L103 85 L37 85 L14 0 L41 0 C34 -38 10 -65 -39 -82 L-32 -106 Z " />
<glyph glyph-name="dagger" unicode="&#x2020;" horiz-adv-x="410" d="M160 238 L204 238 L275 524 L399 517 L411 562 L285 555 L331 700 L281 700 L249 555 L127 562 L115 517 L241 524 L160 238 Z " />
<glyph glyph-name="daggerdbl" unicode="&#x2021;" horiz-adv-x="430" d="M103 0 L153 0 L185 145 L307 138 L319 183 L192 176 L244 350 L285 524 L409 517 L421 562 L295 555 L341 700 L291 700 L259 555 L137 562 L125 517 L251 524 L200 350 L158 176 L35 183 L23 138 L149 145 L103 0 Z " />
<glyph glyph-name="bullet" unicode="&#x2022;" horiz-adv-x="470" d="M232 222 C309 222 375 292 375 373 C375 440 331 482 270 482 C193 482 127 412 127 331 C127 264 171 222 232 222 L232 222 Z " />
<glyph glyph-name="ellipsis" unicode="&#x2026;" horiz-adv-x="683" d="M466 0 L532 0 L555 85 L489 85 L466 0 Z M240 0 L306 0 L329 85 L263 85 L240 0 Z M14 0 L80 0 L103 85 L37 85 L14 0 Z " />
<glyph glyph-name="perthousand" unicode="&#x2030;" horiz-adv-x="1203" d="M230 346 C337 346 421 453 421 565 C421 644 365 708 284 708 C177 708 93 601 93 489 C93 410 149 346 230 346 L230 346 Z M65 0 L125 0 L807 700 L747 700 L65 0 Z M970 -7 C1077 -7 1161 100 1161 212 C1161 291 1105 355 1024 355 C917 355 833 248 833 136 C833 57 889 -7 970 -7 L970 -7 Z M588 -7 C695 -7 779 100 779 212 C779 291 723 355 642 355 C535 355 451 248 451 136 C451 57 507 -7 588 -7 L588 -7 Z M234 389 C175 389 142 431 142 494 C142 576 203 665 280 665 C339 665 372 623 372 560 C372 478 311 389 234 389 L234 389 Z M974 36 C915 36 882 78 882 141 C882 223 943 312 1020 312 C1079 312 1112 270 1112 207 C1112 125 1051 36 974 36 L974 36 Z M592 36 C533 36 500 78 500 141 C500 223 561 312 638 312 C697 312 730 270 730 207 C730 125 669 36 592 36 L592 36 Z " />
<glyph glyph-name="guilsinglleft" unicode="&#x2039;" horiz-adv-x="311" d="M149 42 L190 64 L107 248 L299 440 L263 468 L47 259 L45 251 L149 42 Z " />
<glyph glyph-name="guilsinglright" unicode="&#x203a;" horiz-adv-x="311" d="M47 41 L263 250 L265 258 L161 467 L120 445 L203 261 L11 69 L47 41 Z " />
<glyph glyph-name="fraction" unicode="&#x2044;" horiz-adv-x="550" d="M-83 -98 L-24 -98 L673 758 L614 758 L-83 -98 Z " />
<glyph glyph-name="trademark" unicode="&#x2122;" horiz-adv-x="690" d="M360 392 L395 392 L466 638 L537 460 L542 460 L709 638 L638 392 L673 392 L761 700 L720 700 L552 517 L480 700 L448 700 L360 392 Z M154 392 L189 392 L267 666 L368 666 L378 700 L141 700 L131 666 L232 666 L154 392 Z " />
<glyph glyph-name="Omega" unicode="&#x2126;" horiz-adv-x="724" d="M417 0 L466 0 L591 465 L775 465 L787 510 L603 510 L620 573 C641 652 682 686 735 686 C768 686 793 678 827 662 L839 706 C811 721 775 730 737 730 C656 730 600 681 574 584 L554 510 L480 510 L468 465 L542 465 L417 0 Z M55 0 L104 0 L229 465 L413 465 L425 510 L241 510 L258 573 C278 652 320 686 373 686 C406 686 431 678 465 662 L477 706 C449 721 413 730 375 730 C294 730 238 682 212 584 L192 510 L118 510 L106 465 L180 465 L55 0 Z " />
<glyph glyph-name="radical" unicode="&#x221a;" horiz-adv-x="974" d="M756 0 L805 0 L1001 730 L952 730 L756 0 Z M417 0 L466 0 L591 465 L775 465 L787 510 L603 510 L620 573 C641 652 682 686 735 686 C768 686 793 678 827 662 L839 706 C811 721 775 730 737 730 C656 730 600 681 574 584 L554 510 L480 510 L468 465 L542 465 L417 0 Z M55 0 L104 0 L229 465 L413 465 L425 510 L241 510 L258 573 C278 652 320 686 373 686 C406 686 431 678 465 662 L477 706 C449 721 413 730 375 730 C294 730 238 682 212 584 L192 510 L118 510 L106 465 L180 465 L55 0 Z " />
<glyph glyph-name="approxequal" unicode="&#x2248;" horiz-adv-x="974" d="M923 643 L984 643 L1002 710 L941 710 L923 643 Z M417 0 L466 0 L591 465 L775 465 L787 510 L603 510 L620 573 C641 652 682 686 735 686 C768 686 793 678 827 662 L839 706 C811 721 775 730 737 730 C656 730 600 681 574 584 L554 510 L480 510 L468 465 L542 465 L417 0 Z M55 0 L104 0 L229 465 L413 465 L425 510 L241 510 L258 573 C278 652 320 686 373 686 C406 686 431 678 465 662 L477 706 C449 721 413 730 375 730 C294 730 238 682 212 584 L192 510 L118 510 L106 465 L180 465 L55 0 Z M756 0 L805 0 L942 510 L893 510 L756 0 Z " />
<glyph glyph-name="fi" unicode="&#xfb01;" horiz-adv-x="612" d="M561 643 L622 643 L640 710 L579 710 L561 643 Z M55 0 L104 0 L229 465 L413 465 L425 510 L241 510 L258 573 C278 652 320 686 373 686 C406 686 431 678 465 662 L477 706 C449 721 413 730 375 730 C294 730 238 682 212 584 L192 510 L118 510 L106 465 L180 465 L55 0 Z M394 0 L443 0 L580 510 L531 510 L394 0 Z " />
<glyph glyph-name="fl" unicode="&#xfb02;" horiz-adv-x="612" d="M394 0 L443 0 L639 730 L590 730 L394 0 Z M55 0 L104 0 L229 465 L413 465 L425 510 L241 510 L258 573 C278 652 320 686 373 686 C406 686 431 678 465 662 L477 706 C449 721 413 730 375 730 C294 730 238 682 212 584 L192 510 L118 510 L106 465 L180 465 L55 0 Z " />
</font>
</svg>
